<svg viewBox="0 0 1498 400" xmlns="http://www.w3.org/2000/svg"><g><g><g><g><g><line x1="34" y1="366" x2="29" y2="366" style="visibility: inherit;" fill="rgb(0, 0, 0)" stroke="rgb(204, 204, 204)" stroke-width="1px"></line><line x1="34" y1="329.4" x2="29" y2="329.4" style="visibility: inherit;" fill="rgb(0, 0, 0)" stroke="rgb(204, 204, 204)" stroke-width="1px"></line><line x1="34" y1="292.8" x2="29" y2="292.8" style="visibility: inherit;" fill="rgb(0, 0, 0)" stroke="rgb(204, 204, 204)" stroke-width="1px"></line><line x1="34" y1="256.2" x2="29" y2="256.2" style="visibility: inherit;" fill="rgb(0, 0, 0)" stroke="rgb(204, 204, 204)" stroke-width="1px"></line><line x1="34" y1="219.6" x2="29" y2="219.6" style="visibility: inherit;" fill="rgb(0, 0, 0)" stroke="rgb(204, 204, 204)" stroke-width="1px"></line><line x1="34" y1="183" x2="29" y2="183" style="visibility: inherit;" fill="rgb(0, 0, 0)" stroke="rgb(204, 204, 204)" stroke-width="1px"></line><line x1="34" y1="146.4" x2="29" y2="146.4" style="visibility: inherit;" fill="rgb(0, 0, 0)" stroke="rgb(204, 204, 204)" stroke-width="1px"></line><line x1="34" y1="109.80000000000001" x2="29" y2="109.80000000000001" style="visibility: inherit;" fill="rgb(0, 0, 0)" stroke="rgb(204, 204, 204)" stroke-width="1px"></line><line x1="34" y1="73.19999999999999" x2="29" y2="73.19999999999999" style="visibility: inherit;" fill="rgb(0, 0, 0)" stroke="rgb(204, 204, 204)" stroke-width="1px"></line><line x1="34" y1="36.599999999999966" x2="29" y2="36.599999999999966" style="visibility: inherit;" fill="rgb(0, 0, 0)" stroke="rgb(204, 204, 204)" stroke-width="1px"></line><line x1="34" y1="0" x2="29" y2="0" style="visibility: inherit;" fill="rgb(0, 0, 0)" stroke="rgb(204, 204, 204)" stroke-width="1px"></line></g><g transform="translate(24, 0)"><text x="0" y="366" dx="0em" dy="0.3em" style="text-anchor: end; visibility: hidden; font-family: &quot;Helvetica Neue&quot;, sans-serif; font-size: 12px; font-weight: 200;" fill="rgb(50, 49, 63)" stroke="none" stroke-width="1px">-1</text><text x="0" y="329.4" dx="0em" dy="0.3em" style="text-anchor: end; visibility: inherit; font-family: &quot;Helvetica Neue&quot;, sans-serif; font-size: 12px; font-weight: 200;" fill="rgb(50, 49, 63)" stroke="none" stroke-width="1px">0</text><text x="0" y="292.8" dx="0em" dy="0.3em" style="text-anchor: end; visibility: inherit; font-family: &quot;Helvetica Neue&quot;, sans-serif; font-size: 12px; font-weight: 200;" fill="rgb(50, 49, 63)" stroke="none" stroke-width="1px">1</text><text x="0" y="256.2" dx="0em" dy="0.3em" style="text-anchor: end; visibility: inherit; font-family: &quot;Helvetica Neue&quot;, sans-serif; font-size: 12px; font-weight: 200;" fill="rgb(50, 49, 63)" stroke="none" stroke-width="1px">2</text><text x="0" y="219.6" dx="0em" dy="0.3em" style="text-anchor: end; visibility: inherit; font-family: &quot;Helvetica Neue&quot;, sans-serif; font-size: 12px; font-weight: 200;" fill="rgb(50, 49, 63)" stroke="none" stroke-width="1px">3</text><text x="0" y="183" dx="0em" dy="0.3em" style="text-anchor: end; visibility: inherit; font-family: &quot;Helvetica Neue&quot;, sans-serif; font-size: 12px; font-weight: 200;" fill="rgb(50, 49, 63)" stroke="none" stroke-width="1px">4</text><text x="0" y="146.4" dx="0em" dy="0.3em" style="text-anchor: end; visibility: inherit; font-family: &quot;Helvetica Neue&quot;, sans-serif; font-size: 12px; font-weight: 200;" fill="rgb(50, 49, 63)" stroke="none" stroke-width="1px">5</text><text x="0" y="109.80000000000001" dx="0em" dy="0.3em" style="text-anchor: end; visibility: inherit; font-family: &quot;Helvetica Neue&quot;, sans-serif; font-size: 12px; font-weight: 200;" fill="rgb(50, 49, 63)" stroke="none" stroke-width="1px">6</text><text x="0" y="73.19999999999999" dx="0em" dy="0.3em" style="text-anchor: end; visibility: inherit; font-family: &quot;Helvetica Neue&quot;, sans-serif; font-size: 12px; font-weight: 200;" fill="rgb(50, 49, 63)" stroke="none" stroke-width="1px">7</text><text x="0" y="36.599999999999966" dx="0em" dy="0.3em" style="text-anchor: end; visibility: inherit; font-family: &quot;Helvetica Neue&quot;, sans-serif; font-size: 12px; font-weight: 200;" fill="rgb(50, 49, 63)" stroke="none" stroke-width="1px">8</text><text x="0" y="0" dx="0em" dy="0.3em" style="text-anchor: end; visibility: hidden; font-family: &quot;Helvetica Neue&quot;, sans-serif; font-size: 12px; font-weight: 200;" fill="rgb(50, 49, 63)" stroke="none" stroke-width="1px">9</text></g><line x1="34" y1="0" x2="34" y2="366" fill="rgb(0, 0, 0)" stroke="rgb(204, 204, 204)" stroke-width="1px"></line></g></g><g transform="translate(34, 0)" clip-path="url(#clip_0)"><clipPath id="clip_0"><rect width="1464" height="366"></rect></clipPath><g><g><g><line x1="0" y1="0" x2="0" y2="366" fill="rgb(0, 0, 0)" stroke="rgb(60, 60, 60)" stroke-width="1px" opacity="0.25"></line><line x1="183" y1="0" x2="183" y2="366" fill="rgb(0, 0, 0)" stroke="rgb(60, 60, 60)" stroke-width="1px" opacity="0.25"></line><line x1="366" y1="0" x2="366" y2="366" fill="rgb(0, 0, 0)" stroke="rgb(60, 60, 60)" stroke-width="1px" opacity="0.25"></line><line x1="549" y1="0" x2="549" y2="366" fill="rgb(0, 0, 0)" stroke="rgb(60, 60, 60)" stroke-width="1px" opacity="0.25"></line><line x1="732" y1="0" x2="732" y2="366" fill="rgb(0, 0, 0)" stroke="rgb(60, 60, 60)" stroke-width="1px" opacity="0.25"></line><line x1="915" y1="0" x2="915" y2="366" fill="rgb(0, 0, 0)" stroke="rgb(60, 60, 60)" stroke-width="1px" opacity="0.25"></line><line x1="1098" y1="0" x2="1098" y2="366" fill="rgb(0, 0, 0)" stroke="rgb(60, 60, 60)" stroke-width="1px" opacity="0.25"></line><line x1="1281" y1="0" x2="1281" y2="366" fill="rgb(0, 0, 0)" stroke="rgb(60, 60, 60)" stroke-width="1px" opacity="0.25"></line><line x1="1464" y1="0" x2="1464" y2="366" fill="rgb(0, 0, 0)" stroke="rgb(60, 60, 60)" stroke-width="1px" opacity="0.25"></line></g><g><line x1="0" y1="366" x2="1464" y2="366" fill="rgb(0, 0, 0)" stroke="rgb(60, 60, 60)" stroke-width="1px" opacity="0.25"></line><line x1="0" y1="329.4" x2="1464" y2="329.4" fill="rgb(0, 0, 0)" stroke="rgb(60, 60, 60)" stroke-width="1px" opacity="0.25"></line><line x1="0" y1="292.8" x2="1464" y2="292.8" fill="rgb(0, 0, 0)" stroke="rgb(60, 60, 60)" stroke-width="1px" opacity="0.25"></line><line x1="0" y1="256.2" x2="1464" y2="256.2" fill="rgb(0, 0, 0)" stroke="rgb(60, 60, 60)" stroke-width="1px" opacity="0.25"></line><line x1="0" y1="219.6" x2="1464" y2="219.6" fill="rgb(0, 0, 0)" stroke="rgb(60, 60, 60)" stroke-width="1px" opacity="0.25"></line><line x1="0" y1="183" x2="1464" y2="183" fill="rgb(0, 0, 0)" stroke="rgb(60, 60, 60)" stroke-width="1px" opacity="0.25"></line><line x1="0" y1="146.4" x2="1464" y2="146.4" fill="rgb(0, 0, 0)" stroke="rgb(60, 60, 60)" stroke-width="1px" opacity="0.25"></line><line x1="0" y1="109.80000000000001" x2="1464" y2="109.80000000000001" fill="rgb(0, 0, 0)" stroke="rgb(60, 60, 60)" stroke-width="1px" opacity="0.25"></line><line x1="0" y1="73.19999999999999" x2="1464" y2="73.19999999999999" fill="rgb(0, 0, 0)" stroke="rgb(60, 60, 60)" stroke-width="1px" opacity="0.25"></line><line x1="0" y1="36.599999999999966" x2="1464" y2="36.599999999999966" fill="rgb(0, 0, 0)" stroke="rgb(60, 60, 60)" stroke-width="1px" opacity="0.25"></line><line x1="0" y1="0" x2="1464" y2="0" fill="rgb(0, 0, 0)" stroke="rgb(60, 60, 60)" stroke-width="1px" opacity="0.25"></line></g></g></g><g><g><line x1="0" y1="329.4" x2="1464" y2="329.4" fill="rgb(0, 0, 0)" stroke="rgb(153, 153, 153)" stroke-width="1.5px"></line></g></g><g><g><line x1="-161247156" y1="0" x2="-161247156" y2="366" fill="rgb(0, 0, 0)" stroke="rgb(153, 153, 153)" stroke-width="1.5px"></line></g></g><g><g><g><g><g><path stroke="rgb(0, 153, 136)" stroke-width="2px" d="M97.38690666666668,70.19758644104007L98.28747,106.36241483688354L100.10150833333333,130.20875415802L100.99902166666666,135.91493854522705L101.89765333333332,139.8028787612915L102.79659,141.7149287223816L103.69328999999999,143.4053003311157L104.59222666666666,145.06636962890624L105.48994333333333,146.01264753341675L106.387965,146.60049133300782L107.286495,147.8723931312561L108.18451666666667,148.84238862991333L109.10815833333332,149.3567759513855L110.05477666666667,149.7277756690979L110.96998,149.88132047653198L111.91405666666668,149.94797058105468L112.81604333333334,150.50558710098267L113.714675,151.05641469955444L114.61412,152.17620277404785L115.51326,152.47716665267944L116.4124,152.59723806381226L117.31093,153.19099817276L118.21017166666665,153.76802158355713L119.15312999999999,154.23349027633668L120.05105,154.60040616989136L120.94958,154.72866268157958L121.84790666666666,155.0056471824646L123.64537333333334,155.40097532272338L124.54248000000001,155.79972410202026L125.43928166666666,156.14140405654908L126.33699833333334,156.35411195755006L127.23491833333333,156.6587059020996L128.13477,156.9090582847595L139.85815666666667,178.13878326416017L140.76116,173.74198808670045L141.65796166666667,171.72873258590698L142.55496666666664,173.66552982330322L143.45075166666666,171.96301145553588L144.34846833333333,170.1455002784729L146.139225,169.99579496383666L147.04070333333334,170.63004426956178L147.936285,170.84530019760132L148.83166333333335,170.49143857955931L149.72877,170.51749477386474L150.62414833333335,169.7219344139099L151.51993333333334,170.21883459091185L152.415515,170.39007596969606L153.38897333333333,170.3965856552124L154.34891,170.341872882843L155.28353166666668,170.3535484313965L156.18175666666664,170.12794332504274L157.07977833333334,170.07858839035035L157.975665,170.17234182357788L158.87206,170.03251447677613L159.77099666666666,170.10925197601318L160.66617166666668,170.3570563316345L161.56531166666667,170.50567960739136L162.482345,170.69761934280396L163.37813,171.0154595375061L164.27381333333332,170.94229974746705L165.16980166666667,170.87723779678345L166.06873833333333,171.0027543067932L166.96381166666666,170.6464319229126L167.85918999999998,170.48618545532227L168.75731333333334,170.52531337738037L169.65248833333334,170.64960823059081L170.54796833333333,170.74716625213622L171.44416,170.5888918876648L182.83336833333334,176.3444486618042L183.72325666666666,182.99724254608154L184.61507666666668,177.26505432128906L185.50404999999998,177.0796766281128L186.39282,176.9683138847351L187.28474166666666,177.30552606582643L188.17402,174.17447204589843L189.0636033333333,173.74664783477783L189.95572833333335,173.38182621002198L190.845515,173.14995574951172L191.73438666666667,173.3083348274231L192.62336,173.6772053718567L193.51518000000002,174.17284898757936L194.40394999999998,174.13834590911864L195.30197166666667,174.06996803283693L196.2126,174.40642976760864L197.18361833333333,174.44204978942872L198.25477833333335,174.88214292526246L199.36141999999998,174.51295824050902L200.257205,174.68184356689454L201.23899999999998,175.26511487960815L202.16904666666665,175.00924758911134L203.06381499999998,174.91399326324463L203.95238166666667,174.87606954574585L204.84084666666666,174.5963275909424L205.72921000000002,174.6338499069214L206.62021666666666,174.68912115097046L207.50919000000002,175.01612377166748L208.39755333333332,175.22532377243041L209.2896783333333,175.39518642425537L210.17804166666664,175.706796169281L211.06620166666667,175.75674448013305L211.95730999999998,175.67587080001832L212.845775,175.99786462783814L213.73474833333333,176.0958415031433L214.62301000000002,175.85683307647705L226.0606116666667,179.11352577209473L226.96015833333334,182.88802642822264L227.86367,178.91104488372804L228.76331833333333,175.52028408050538L229.662865,176.3029472351074L230.56342833333335,176.91110544204713L231.46470333333332,177.71017370223998L232.36506333333332,178.62453145980834L233.26776166666667,178.11805000305176L234.16761333333335,178.48224334716798L235.06746499999997,178.21904611587524L235.96630000000002,178.17691640853883L236.86859166666667,178.9311149597168L237.76935833333334,179.48286752700807L238.66921000000002,180.19189968109131L239.57251833333333,180.31207580566405L240.47369166666667,180.2994927406311L241.37293333333335,179.93542156219482L242.2731916666667,180.33661365509033L243.17792333333333,180.30101108551025L244.07818166666667,180.07936763763428L245.88083333333333,180.35895252227783L246.78099,180.2717611312866L247.681045,180.39979076385498L249.48268,180.1619167327881L250.38466666666667,180.1825976371765L251.285535,180.17978782653807L252.18965666666668,180.21936950683593L253.08940666666666,180.4646083831787L253.98936,180.29488534927367L254.89307499999998,180.2637505531311L255.792825,180.51087427139282L256.69186333333334,180.66633882522584L268.14969666666667,170.20794439315796L269.0519883333333,185.25936698913574L269.9531616666667,189.40738921165465L270.8516916666667,185.4560101032257L271.75052666666664,183.8793921947479L272.6481416666667,185.57657890319823L273.549315,187.00682487487794L274.44774333333334,185.2961126804352L275.34729,185.59279203414917L276.2487683333333,184.87926592826844L278.04694666666666,184.6788269519806L278.9451716666667,184.1932445526123L279.845735,183.86392951011658L280.74518,184.04997911453248L281.64391333333333,183.97126078605652L282.54651,183.5632884979248L283.44565,183.9988091468811L284.3442816666667,184.57684478759765L285.24535333333336,184.46691312789918L286.14368,184.792449760437L287.04312500000003,184.9947997570038L287.94135,184.95407495498657L288.84232000000003,184.61083302497863L289.74156166666666,184.6929196357727L290.6406,184.41711316108703L291.5413666666667,184.44713973999023L292.44020166666667,184.2125467300415L293.338935,184.3244155883789L294.23797333333334,184.47186083793642L295.13924833333334,184.36340389251708L296.03808333333336,184.55628604888918L296.9362066666667,184.4652551651001L297.83961666666664,184.42718310356142L298.73753666666664,184.53821425437926L299.63616833333333,184.6542716503143L310.70045,187.94250926971435L311.59887833333335,190.69791254997253L312.49456166666664,189.81547493934633L313.39268500000003,188.98083901405334L314.2880633333333,190.08188338279726L315.1834416666667,190.19369988441466L316.0808533333333,189.14631242752077L316.97633333333334,188.9728633403778L317.87201666666664,188.8378004550934L318.77034333333336,189.4162811279297L319.665925,189.283460855484L320.56140500000004,188.27939858436585L321.4567833333333,187.36724853515625L322.35521166666666,187.9861922264099L323.25038666666666,187.8116523742676L324.1464766666667,187.67261910438538L325.04510833333336,187.25114750862122L327.73205666666667,187.80228052139282L328.63018,187.87959394454955L329.52626999999995,187.93503971099855L330.4219533333333,187.89996070861818L331.31946666666664,187.71481862068177L332.2144383333333,187.46423935890198L333.11012166666666,187.3923099517822L334.902505,187.48290452957153L335.79839166666665,187.51596779823305L336.6935666666667,187.4979396343231L337.59179166666667,187.75955743789675L338.48757666666666,187.92712512016297L340.2809766666667,188.09404706954956L341.176355,188.30253152847288L342.07193666666666,188.33028931617739L353.5011,187.893136882782L354.38976833333334,191.4616574764252L355.28026666666665,190.89514904022215L356.16873166666664,189.56859555244446L357.0571966666667,189.55071573257445L357.9466783333333,190.3958055496216L358.8380916666667,189.605123090744L359.726455,189.5892677307129L360.615835,189.41797399520874L361.50724833333334,189.79176607131959L363.28428,191.928391456604L364.1726433333333,191.91705622673035L365.0643616666667,191.8846386909485L365.95303,191.83021388053893L366.8423083333334,191.21363496780396L367.73463666666663,190.94930334091188L368.623305,191.33607988357542L369.51258333333334,191.53959918022156L370.401455,191.49104704856873L371.2925633333333,191.32033796310427L372.18143499999996,191.13451523780824L373.0700016666667,191.26347856521605L373.96171999999996,191.57738327980042L374.8502866666667,191.4635772228241L375.73875166666664,191.31705694198607L376.63036833333337,191.10350260734558L377.51873166666667,190.95821270942687L378.4087216666666,190.90253133773805L379.2971866666667,191.1803011894226L380.18921,190.89573369026184L381.0777766666667,190.68121075630188L381.9663433333333,190.79211974143982L382.8575533333333,190.86548895835878L383.7460183333333,190.93474817276L394.96086833333334,158.06942281723022L395.86539666666664,186.7950506687164L396.7646383333334,194.97851071357726L397.66337166666665,195.19332160949708L398.56607,195.7397774219513L399.46520999999996,195.8666377544403L400.36435,195.83557276725767L401.2666416666667,195.38027873039246L402.16527333333335,195.84184684753419L403.0655316666667,196.02296619415281L403.96507833333334,195.10380907058718L404.86767499999996,195.40321969985962L405.76691666666665,195.38048815727234L406.66534499999995,195.83369665145872L407.5680433333333,195.51484422683714L408.467285,195.54110112190247L409.36795,195.67673120498657L411.168975,195.1961052417755L412.067505,194.83670253753664L412.9662383333333,195.26862802505494L413.8689366666666,195.27198758125306L414.76828,194.9135709285736L415.668945,194.7652617931366L416.5700166666666,194.79174556732178L417.4701733333333,194.85738344192507L418.36982166666667,195.02589354515075L419.2683516666666,194.75456357002258L420.1718633333333,194.446418094635L421.07100333333335,194.29638991355895L421.96983833333337,194.24673829078674L422.8741633333333,193.92180376052855L423.7731,193.9689335346222L424.6724433333333,193.64995894432067L425.574735,193.72688841819763L426.47418,194.0398245334625L437.7157683333333,201.15685672760011L438.61541666666665,201.9221199989319L439.51333666666665,198.66207647323608L441.31029500000005,200.20993309020994L443.10654166666666,200.4282431602478L444.0073083333333,200.50041689872742L444.9054316666667,200.60120358467103L445.8045716666666,200.26605949401855L446.70167833333335,199.33628268241884L447.6020383333333,199.25072307586672L448.49934833333333,199.039306640625L449.3978783333334,198.97732501029967L450.308405,198.7482294559479L451.20591833333333,198.36712489128112L452.10414333333335,198.3344804763794L453.003385,198.4963587284088L453.90059333333335,198.40338191986083L454.79719166666666,199.0963405609131L457.4934933333334,198.6250864505768L458.39222666666666,198.8203595638275L459.29228166666667,198.50831351280212L460.18877833333335,198.4452672958374L461.08588499999996,198.66434526443481L462.8834533333333,198.40813765525817L463.78076333333337,198.28315343856812L464.6785816666667,197.64119896888732L465.57955166666665,197.47224383354185L466.4763533333333,197.5158220767975L467.3733583333334,197.35600318908692L468.2737183333333,197.28496384620667L469.17163833333336,197.35244293212892L480.41556499999996,206.68781189918516L481.3117566666666,201.59542279243468L482.2076433333333,196.4789234161377L483.1034283333334,197.72243914604186L484.00206000000003,199.00975999832153L484.89743833333335,198.16605763435362L485.79332500000004,198.84562168121337L486.69236333333333,197.7965064525604L487.58845333333335,198.02827219963072L488.48474666666664,197.4075047492981L489.38093833333335,196.8849323272705L490.2796716666667,197.76702089309694L491.1751516666667,198.4215060710907L492.0706316666667,199.15778989791872L492.96865333333335,198.72667593955995L493.8637266666667,198.46230940818785L494.760325,198.23582296371458L495.65946499999995,197.98644790649413L496.554945,197.4764585494995L497.4505266666667,197.27622900009155L498.3456,197.2823809146881L499.24392666666665,197.277171421051L500.1394066666667,197.66349420547485L501.03509,197.56807408332824L501.93392500000004,197.89391613006592L502.8295066666667,198.1168335914612L503.72498666666667,198.3383810520172L504.6204666666667,198.3090961933136L505.5196066666667,198.44156742095947L506.416205,198.36195030212403L507.3114816666667,198.44096531867982L508.2106216666667,198.69828987121582L509.10630499999996,198.77488775253298L510.00148,199.23959727287294L510.9007216666667,199.38909316062927L511.7959983333334,199.1831480026245L523.0462283333334,212.8088447570801L523.9346933333334,207.25113530158998L524.8239716666666,205.47020401954651L525.7125383333333,203.85115098953247L526.6040533333334,206.14171385765076L527.492925,206.5358814239502L528.3815933333333,207.615651512146L529.2734133333333,206.20877408981323L530.1621833333334,205.15599389076235L531.0517666666667,204.39804310798647L531.9405366666666,204.23755230903626L532.8320516666666,204.1291389942169L534.6095916666667,204.21297082901L535.5011066666666,204.00548114776612L536.3898766666667,203.72648963928222L537.2792566666667,203.6121163845062L538.1681283333334,203.20627326965334L539.0596433333333,203.6084339618683L539.9480066666667,203.507088804245L540.83637,202.96359987258913L541.727885,203.28569841384888L542.6165533333334,203.13527755737303L543.5061366666666,202.82904310226442L544.3973466666666,203.06667280197144L545.2862183333333,203.05127120018005L546.175395,202.80629410743714L547.0637583333333,203.11458792686463L547.9551716666667,203.43769869804382L548.8442466666667,203.39919905662535L549.733525,203.15176119804383L550.625955,202.85736808776855L551.51442,202.7366422176361L552.4033933333334,202.48226709365846L553.2920616666667,202.37321677207947L564.14203,214.79989228248596L565.0480833333334,207.796151304245L566.8493116666667,209.12333307266235L567.7490616666666,207.31483597755434L568.6486083333334,208.65511565208433L569.5503916666667,206.8707899093628L570.4495316666666,207.73010330200194L571.3484683333334,207.10037412643433L572.253505,206.52826352119448L573.1521366666667,206.39013776779174L574.0507683333333,205.77714529037476L574.952755,205.5513394832611L575.8527083333333,206.08182649612425L576.753475,205.59643607139586L577.6530216666667,205.67383675575255L578.555415,205.365656375885L580.3537966666667,205.61652359962463L581.256495,206.06185240745546L582.1551266666667,205.71839232444765L583.054775,205.11279959678652L583.953915,205.23804559707642L584.8568166666668,205.60791964530947L585.7557533333334,205.37857103347778L587.5582016666666,205.31477437019348L588.4561216666667,205.59822492599486L589.3558716666666,205.23327240943908L590.25857,205.3453506946564L591.1582183333334,205.41994156837464L592.058985,205.42511615753173L592.95904,205.39076142311094L593.8601116666666,205.18772206306457L594.7592516666667,204.97451677322388L595.6581883333333,205.08783416748045L606.5096816666667,201.03279747962952L607.4107533333333,206.27289361953737L608.3083683333334,208.74605054855348L610.1077666666666,210.0916706085205L611.905335,210.59967913627625L612.8036616666667,210.77039694786072L613.7015816666667,210.63339686393738L614.6020433333333,211.26947865486144L615.4992516666666,211.24231424331666L616.3968666666667,211.09526166915893L617.2938716666666,211.41328511238098L618.1946383333334,211.2337713718414L619.0934733333333,211.2824718475342L619.99058,211.21071696281433L620.89155,210.94531202316284L621.78886,210.63522934913635L622.6866783333332,210.8848051071167L623.5839883333333,210.55752325057983L624.48384,210.43972063064575L625.3803366666667,210.4255406856537L626.2789683333333,210.2718562602997L627.1784133333333,209.97689595222474L628.0760283333333,209.5090537548065L628.9743550000001,209.22425065040588L629.8763416666667,208.46868209838865L630.7734483333334,208.47207655906678L631.6704533333334,208.14633922576903L632.56756,208.27138452529906L633.4675133333334,208.32657723426817L634.3644166666667,208.50891823768617L635.2629466666666,208.44153513908387L636.163205,208.4175208568573L637.0599050000001,208.53719959259033L637.95752,208.71735906600952L649.2496366666667,211.50486574172973L650.145015,214.38979954719545L651.0419183333333,213.89886803627016L651.9408549999999,213.0489963054657L652.836945,212.3025378227234L653.7328316666667,210.88990988731385L654.6319716666667,210.94940457344055L655.5278583333334,211.08802771568298L656.4235416666667,211.13267927169798L657.3229866666667,210.69026498794554L658.2184666666667,210.48389225006102L659.1146583333333,210.81159296035767L660.9098883333334,211.73684964179992L661.80547,211.68766050338743L662.7016616666667,211.33127703666688L663.5998866666666,211.17920694351196L664.4956716666667,211.1492763519287L665.3920666666667,210.89413332939148L666.2882583333334,211.2790337562561L667.186585,211.26878056526184L668.082675,211.10156192779542L668.9782566666667,210.82771883010864L669.8765833333333,210.9763595581055L670.7720633333333,210.9898326873779L671.6681533333333,211.23833513259888L672.5666833333333,211.52624473571777L673.4626716666667,211.62047810554506L674.3582533333333,211.54080862998964L675.25414,211.54530258178713L677.0486583333333,211.4727361679077L677.944545,211.55825214385985L678.8440916666667,211.79551534652708L679.7399783333333,212.21622776985168L690.5894383333333,214.0924657344818L691.488375,216.0674222946167L693.2672366666667,214.98331532478332L694.161395,216.23047857284544L695.0506733333334,216.1681740760803L695.9407649999999,217.0800012588501L696.8302466666667,217.36174149513246L697.7227783333334,217.9464089870453L698.612565,217.14636340141297L699.5032666666667,216.4318250656128L700.3960016666666,216.40415453910828L701.2853816666666,216.31991257667542L702.175575,216.48463554382326L703.9575883333333,216.37351713180541L704.8469683333333,216.26745114326476L705.73645,216.80777249336242L706.629185,216.51498498916627L707.518565,216.68383541107178L708.4086566666667,216.46457419395446L709.3014933333334,216.89763407707213L711.08066,216.55165214538576L711.9707516666666,216.27732038497925L712.8634866666667,215.959672164917L713.75307,215.71181545257568L717.3140466666666,215.2489471435547L718.2047483333333,214.87229290008545L719.09728,214.55105824470522L719.9873716666667,214.66749086380005L720.876955,214.71323318481447L721.7695883333333,214.79557285308837L732.6520899999999,220.8588475227356L733.5620066666667,220.73204827308655L734.4620616666666,221.6181944847107L735.3628283333334,219.06288986206053L736.2634933333333,220.77044320106506L737.1665983333335,219.92958555221557L738.0666533333333,220.36561231613157L738.9670133333333,220.26938939094543L739.8691016666667,220.42892904281618L740.7695633333333,220.61161909103393L741.6699233333334,220.08981456756592L742.5701816666666,219.9318717956543L743.4735916666666,219.99722170829773L744.3743583333334,219.0163272857666L745.27482,218.7710884094238L746.1775183333333,218.9169804096222L747.0771666666666,218.89901332855223L747.9765100000001,218.88697128295897L748.8811400000001,218.5254306793213L750.6808433333334,218.27149186134338L751.5799833333333,218.50409531593323L752.4839016666667,218.5100028991699L753.3826349999999,218.31975603103638L754.2826899999999,218.14882006645203L755.1849816666667,217.78185181617735L756.0845283333332,217.88371181488037L756.985295,217.9497423648834L757.887485,217.53706669807434L758.786625,217.82743706703187L759.6860700000001,217.9408155441284L760.5876499999999,218.1025629043579L761.491365,217.68684182167053L762.3919283333333,217.55642123222353L763.2932033333333,217.71431164741514L764.1978333333333,217.77526359558104L775.2795000000001,220.5998824596405L776.1812833333333,220.21267833709717L777.08022,221.81468052864076L777.979055,223.24241337776184L778.8785,222.4452474117279L779.779775,222.20797548294067L780.6772883333333,222.25256595611572L781.5755133333333,222.41673917770387L782.4763816666667,222.4722547531128L783.3750133333333,224.3928301334381L784.2744583333333,224.51492600440977L785.1734966666667,225.0308491230011L786.0752799999999,225.68221035003663L786.9745216666666,225.77846817970274L787.8728483333333,225.84666280746458L788.7749366666667,225.80421895980837L789.6738733333333,225.97919511795044L790.5735216666666,225.4913526535034L791.4758133333333,225.67056097984315L793.2742966666667,225.953138923645L794.172725,225.5220947742462L795.074915,225.48480806350707L795.9724283333334,225.37740697860718L796.8715683333334,225.0549768447876L797.77203,225.2488537788391L798.6706616666667,224.99133725166323L799.5686833333333,224.81707663536073L800.467925,224.4691487789154L801.3711316666668,224.20740880966187L802.2703733333334,223.74955801963804L803.1695133333333,223.60691213607788L804.070585,223.5371904373169L804.9695216666667,223.46560134887696L805.86856,223.29730067253112L816.7620416666667,215.50555615425108L818.5628633333332,229.8510879993439L819.46241,232.3553186416626L820.3587033333333,234.42273716926573L821.2557083333334,231.4383517742157L822.1552549999999,229.59187860488893L823.0517516666667,227.2168730735779L823.9485533333334,226.35021228790285L824.8450499999999,226.46648783683779L825.743885,226.360648727417L826.6403816666667,226.01872444152832L827.53698,226.38451466560363L828.436425,226.14323744773864L829.3330233333332,226.21440768241882L830.2298249999999,227.04461946487427L831.130185,227.20386242866516L832.02658,227.21477007865906L832.9228733333333,227.35501627922056L833.8201833333334,227.53967843055725L834.7195266666668,227.8326579093933L835.615515,227.56197366714477L836.5126216666667,227.7998040676117L837.41227,228.32568368911743L838.30897,228.5742733955383L839.205365,228.6560458660126L840.10176,228.4258246421814L841.0015099999999,228.39859914779663L841.8985150000001,228.18013200759887L842.7950116666667,227.86706500053404L843.694965,227.78433265686036L844.5911566666666,227.90169897079468L845.4876533333334,228.05507798194887L846.3873016666668,227.8433735847473L847.2835950000001,227.5735532283783L848.1801933333332,227.441832447052L859.0513083333333,236.5158279418945L859.9469916666667,231.8769440174103L860.8367783333333,233.94753012657165L861.72992,234.98122630119323L862.6197066666666,233.0881992816925L863.5095950000001,234.0596607685089L864.3994833333334,232.44888010025025L865.2923200000001,232.84192199707033L866.1818016666667,232.91319694519044L867.0721983333334,232.65260009765623L867.9645266666666,232.7901150226593L868.8541099999999,232.64759130477907L870.6342933333333,232.47404623031616L871.526825,232.7168417930603L872.41712,233.03040618896486L873.3067033333333,232.30210676193238L874.199845,232.9645676136017L875.0897333333334,233.0317063808441L875.979215,233.31397891044617L876.8717466666667,233.7723183631897L877.7613299999999,233.49596214294434L878.6512183333334,233.40673756599426L879.5408016666665,233.47713990211489L880.43374,233.36459040641785L881.3233233333334,233.00774445533753L882.2135166666667,233.19264221191406L883.1060483333333,233.214221906662L884.8857233333333,233.25848078727722L885.775205,233.30493865013122L886.6687533333334,233.00038833618166L887.558235,232.86038646697997L888.44792,233.01857357025145L889.3404516666667,232.94319734573364L890.2298316666667,233.00499572753907L901.3111933333333,244.3867009162903L902.2141966666667,243.7404619216919L903.1148616666666,244.7062514305115L904.0155266666667,244.12993483543397L904.91792,242.61667728424072L905.817365,243.06994686126708L906.7179283333334,241.52113909721373L907.6208300000001,241.53114795684814L908.5212916666667,241.14473791122435L909.4237866666667,240.33178639411926L910.3230283333334,239.8940318584442L911.227455,239.8856460571289L912.1284249999999,240.3837591648102L913.0294966666667,239.90867428779603L913.931585,239.4576647758484L914.8318433333333,239.48704562187194L915.7330166666667,239.14785261154174L916.6361216666667,239.2223125934601L917.5374983333332,239.3058913707733L920.2441699999999,239.3003502845764L921.1450383333333,239.6753116607666L922.0449916666666,239.395822763443L922.9496216666666,238.94948172569275L923.850185,238.8083629131317L924.7508499999999,238.9915939807892L925.6535483333333,238.87370409965516L926.5533999999999,238.75803937911988L927.4547766666666,238.741721534729L928.3544249999999,238.60925030708313L929.2578350000001,238.30833878517151L930.1571783333334,238.0620876789093L931.0571316666667,238.0628293991089L931.9612533333333,237.8894850254059L943.7435049999999,254.9366759777069L944.6468133333333,245.8033079624176L945.5470716666667,245.03453679084777L946.445195,243.53358306884766L947.3471816666666,245.2223316192627L948.2458133333333,242.65563941001892L949.1451566666666,242.87572960853578L950.0470416666667,243.05676169395446L950.9459783333333,242.25792031288148L951.8455250000001,243.44512639045715L952.7439533333334,243.46307601928712L953.6464483333334,243.98392939567566L954.54447,243.42003879547119L955.4441183333334,243.53000535964966L956.34519,243.22306408882142L957.243415,243.52578191757203L958.1424533333333,243.72335000038146L959.0410850000001,243.76013059616088L959.9431733333334,243.391757440567L960.8416016666667,243.55090441703797L961.7395216666666,243.85136218070983L962.6424233333333,243.8517810344696L963.5420716666666,243.63960542678834L964.4412116666666,243.85579504966736L965.3422833333333,244.0197937488556L966.2402033333333,243.9706395149231L967.1395466666665,243.97233238220215L968.0384833333334,244.12836413383485L968.9406733333334,244.4770686149597L969.83961,244.41120386123657L970.7383433333333,244.51209526062013L971.6403300000001,244.42184100151061L972.53886,244.07489919662476L973.4377966666666,244.063738489151L985.2150666666666,264.06229519844055L986.1190866666666,257.8271377801895L987.0179216666666,255.84426226615906L987.9142149999999,255.9192370891571L988.8114233333332,254.86989498138428L989.7108683333333,252.64126138687135L990.6071616666667,250.36927642822266L991.5036583333333,250.65823316574097L992.4006633333333,250.4279770374298L993.2999050000001,250.20436148643495L994.1965033333332,250.14175157546998L995.0933050000001,250.27282662391661L995.9934616666667,250.97791457176208L996.8896533333333,251.28391342163087L997.78615,251.73585662841796L998.682545,252.08455238342285L999.5821933333334,252.31759214401245L1000.4794016666667,252.0976851940155L1001.3756950000001,252.16070523262024L1002.2750383333333,251.93361668586732L1003.171535,251.67315073013305L1004.067625,251.65353441238403L1004.9670699999999,251.56267805099486L1005.8633633333333,251.4278944015503L1006.76047,251.72939929962158L1007.6569666666666,251.51888165473937L1008.5576316666667,251.3701362133026L1009.453925,251.39922909736634L1011.2499683333334,251.29647903442384L1012.1462616666668,251.34714288711547L1013.043165,251.55093269348146L1013.93956,251.5197019100189L1014.8388016666667,251.272944688797L1015.735095,250.95995621681215L1016.6321,250.90221548080444L1027.5140933333332,257.7038420677185L1028.4073366666667,260.9752819061279L1029.2967166666667,260.2235223054886L1030.1894516666666,259.767041516304L1031.0792383333333,261.58912081718444L1031.9698383333332,260.92717480659485L1032.8629799999999,260.6488290309906L1033.7530716666665,260.40686681270597L1034.6425533333334,260.34385113716127L1035.5349833333332,259.009339427948L1036.4250749999999,258.9304683923721L1037.3157766666666,259.05757305622103L1038.205055,259.34512052536013L1039.0969766666667,259.3313987016678L1039.9863566666668,259.3118914604187L1040.87594,259.0807016372681L1041.7691833333333,259.0118307352066L1042.6587666666667,259.16378738880155L1043.548655,258.75034818649294L1044.438035,258.9533308267593L1045.331075,258.918164563179L1046.2203533333334,259.14185864925383L1047.10953,258.689391875267L1048.0020616666666,258.3805744886398L1048.89134,258.031743478775L1050.6730483333333,257.93342628479L1051.5639533333333,257.65172095298766L1052.453435,257.66142439842224L1053.3430183333335,257.52276198863984L1054.2354483333334,257.6012578010559L1055.1250316666667,257.6388368368149L1056.0149199999998,257.60818634033205L1056.9080616666668,257.44156980514526L1057.7975433333334,257.5154451370239L1058.6869233333334,257.4222545385361L1069.5809133333332,270.36508877277373L1070.4842216666666,263.5094736814499L1071.3836666666666,263.3884860277176L1072.28667,264.22297797203066L1073.1854033333334,264.9035367965698L1074.0870850000001,265.5831924676895L1074.9864283333334,265.86778178215025L1075.8888216666667,265.7797919511795L1076.7883683333332,265.846852183342L1077.6870000000001,265.9588693857193L1078.5903083333335,266.22020359039306L1079.48955,266.6128615379333L1080.391435,266.5109273672104L1081.2932183333332,266.82643768787386L1082.1938833333334,266.49813923835757L1083.0944466666667,266.5935768127441L1083.9945016666668,266.8310189008713L1084.897505,266.42473075389864L1085.7977633333333,266.3163087129593L1086.6996483333335,265.905818939209L1087.6033633333334,265.9745589494705L1088.5023,266.0230936288834L1089.4021516666667,266.0327927112579L1090.3031216666666,265.57867670059204L1091.2072433333333,265.50769844055174L1092.1074,265.2786770582199L1093.0066416666668,264.9963172674179L1093.9110683333333,264.85016348361967L1095.7107716666667,264.6646461725235L1096.61286,264.756719827652L1097.5127116666665,264.97609012126924L1098.4146983333333,264.9562949180603L1099.3137366666667,265.19335741996764L1100.21735,265.16085262298583L1111.10158,276.27552981376647L1112.0108866666667,275.1422816991806L1113.8086583333334,275.7931586265564L1114.708815,276.7953753232956L1115.6102933333334,277.5989768028259L1116.5099416666667,277.0209149837494L1117.4089800000002,277.98553519248964L1119.2122416666666,277.55747973918915L1120.1119916666667,277.6215425491333L1121.0218066666666,277.3275333881378L1121.9215566666667,277.6338332891464L1122.8205950000001,277.0116347551346L1123.7199383333334,276.85528886318207L1124.6220266666667,276.6522145986557L1125.52076,277.01592364311216L1126.4194933333333,276.2858397245407L1127.321175,276.26272423267363L1128.218485,275.96807806491853L1129.1172183333333,275.4997515678406L1130.019205,275.2998405218124L1130.91804,275.45606861114504L1131.817485,275.5274264574051L1132.7148966666666,275.3733929872513L1133.6171883333334,275.50159714221957L1134.514905,275.45652236938474L1135.4145533333333,275.50552389621737L1136.3175566666666,275.06896047592164L1137.2160866666666,274.85641837120056L1138.114515,274.769877076149L1139.0135533333334,275.03350188732145L1139.9157433333332,274.48754346370697L1140.814985,274.2410916566849L1141.7142266666667,274.094322681427L1142.6158066666667,273.8568631410599L1153.4970883333333,278.99733316898346L1154.4035483333334,283.0073692560196L1155.300045,284.4658354997635L1156.1960333333334,283.1815382480621L1157.0926316666666,284.8341606616974L1157.9916699999999,283.6098074913025L1158.8878616666666,283.35428924560546L1159.7849683333334,282.7930862903595L1160.6844133333332,282.826114654541L1161.5808083333334,282.88343653678896L1162.4768983333333,282.44703018665314L1163.3732933333333,282.1652288675308L1164.2729416666666,282.1066067934036L1165.1700483333334,281.9939394950867L1166.0666466666667,281.902271604538L1166.9660916666667,281.90502469539643L1167.8626900000002,281.7225833415985L1168.7591866666667,281.816393494606L1169.6589366666667,281.8743916511536L1170.5550266666667,281.58846724033356L1171.4518283333334,282.04395761489866L1172.3482233333334,281.7722873210907L1174.1439616666667,281.63384306430817L1175.0403566666666,281.35115604400636L1175.94031,281.4670825481415L1176.8366033333334,281.53895087242125L1178.63041,281.1088404178619L1179.529855,281.17405943870546L1180.4261483333332,281.19727964401244L1181.322645,281.3097593307495L1182.2329683333332,281.19385464191436L1183.1293633333332,281.3560819387436L1184.0260633333332,281.1832611322403L1184.92561,281.05767917633057L1195.8099416666666,286.1583013772964L1197.5972416666666,285.24825432300565L1198.4868250000002,285.17218000888823L1199.3761033333333,284.58779175281524L1200.2683299999999,285.3855423688889L1201.15771,286.18817088603976L1202.0471916666665,286.966850566864L1202.93708,287.5337691307068L1203.8296116666666,287.4388551235199L1204.7191950000001,287.42393345832824L1205.608575,287.9076964616776L1207.390995,288.1862647533417L1208.2812900000001,288.5584206819534L1209.1711783333333,288.8546070098877L1210.0653366666668,289.00806455612184L1210.9545133333334,289.12684886455537L1212.73673,289.0014632463455L1213.6259066666667,288.76912157535554L1214.5161,288.72658610343933L1216.299435,288.67541177272795L1217.188815,288.4705835580826L1218.0780933333333,288.39701364040377L1218.9710316666667,288.2616933345795L1219.8605133333333,287.9331767320633L1220.750605,287.73451352119446L1221.6436449999999,287.5525346517563L1222.5332283333335,287.3852505683899L1223.4228116666666,287.3145384550095L1224.3121916666666,287.411852145195L1225.20452,287.4559583187103L1226.0939,287.16875116825105L1236.9664383333334,301.61451559066774L1237.8756433333333,296.095438849926L1238.77641,290.52903599739074L1239.6769733333333,291.8362393140793L1240.58079,292.7619759321213L1242.3823233333333,292.4155707836151L1243.284615,292.9308525323868L1244.18528,293.3371952176094L1245.085335,293.5468380689621L1245.9895583333334,294.09648764133453L1246.889105,294.1310997962952L1247.7892616666668,294.39131705760957L1248.6900283333334,293.4465095043182L1249.5934383333333,293.2984141588211L1250.495425,293.38149336576464L1251.3955816666667,293.3643988966942L1252.2997033333334,293.40198011398314L1253.19864,293.24253644943235L1254.1007283333333,293.39358776807785L1254.9999699999998,293.43666425943377L1255.9026683333334,293.51545675992963L1256.8044516666666,293.59719650745393L1257.7039983333334,293.4447926402092L1258.6083233333334,293.28006531000136L1259.5085816666665,293.1357854604721L1260.408535,293.32275130748747L1261.3116400000001,293.2696463227272L1262.2127116666666,293.22001869678496L1263.1134783333334,293.29506332874297L1264.0147533333334,293.2512080311775L1264.91857,293.0717662811279L1266.7172566666666,293.07391945123675L1267.6206666666667,292.90396735668185L1279.404545,300.68947051763536L1280.3126316666667,302.5197589159012L1281.2123816666667,301.5705795764923L1282.1101999999998,300.70843455791476L1283.0121866666666,300.28950880765916L1283.9116316666666,299.7854335784912L1284.8105683333333,299.77305775880814L1286.6105766666667,299.3170983552933L1287.5097166666667,299.03335111141206L1288.4079416666668,299.120930814743L1289.31003,298.7074763417244L1290.2092716666668,298.47456965446474L1291.1081066666668,298.73555917739867L1292.00928,298.3092445850372L1292.9083183333335,298.24973462820054L1294.7102583333333,298.1163297057152L1295.6090933333332,298.3526613950729L1296.50864,298.43358088731765L1297.4076783333333,298.6690966844559L1298.3090550000002,298.69645525217055L1299.2086016666667,298.9628309726715L1300.1072333333334,298.9825280070305L1301.0094233333334,298.75296996831895L1301.908055,298.74758377075193L1302.8067883333333,298.5304953575134L1303.7045050000002,298.52419073581694L1304.6071016666667,298.5251855134964L1305.506445,298.2992531776428L1306.4050766666667,298.15638041496277L1307.3067583333332,298.26526275873186L1308.204475,298.37243260145186L1309.1022933333334,298.3075495362282L1310.0056016666667,298.22438088655474L1310.9039283333334,298.1064822793007L1321.7881583333333,301.11999328136443L1322.69106,301.99726284742354L1323.58776,302.2051692008972L1324.48446,302.9536630511284L1325.3850233333335,302.9255256772041L1326.2811133333335,303.070523250103L1327.17761,303.02255795001986L1328.0745133333335,303.4622213244438L1328.9739583333333,302.5794782996178L1329.8705566666667,302.6475682139397L1330.7670533333333,302.4767675042152L1332.562995,302.8183623790741L1333.4594916666665,302.66525824069976L1334.358835,303.12441794872285L1335.25523,302.9696405768394L1336.152235,302.9429059267044L1337.04863,302.9144936800003L1337.9485833333333,302.7781131505966L1338.8501633333333,302.9144369602203L1339.7464566666667,302.8027927994728L1340.6459016666665,302.82002034187315" style="fill: none;" fill="none"></path></g></g></g></g></g></g><g transform="translate(34, 366)" clip-path="url(#clip_1)"><clipPath id="clip_1"><rect width="1464" height="34"></rect></clipPath><g><g visibility="inherit"><g><g transform="translate(0,0)" style="visibility: inherit;"><text transform="translate(3,14)" style="text-anchor: start; font-family: &quot;Helvetica Neue&quot;, sans-serif; font-size: 12px; font-weight: 200;" fill="rgb(50, 49, 63)" stroke="none" stroke-width="1px">01:00 AM</text></g><g transform="translate(183,0)" style="visibility: inherit;"><text transform="translate(3,14)" style="text-anchor: start; font-family: &quot;Helvetica Neue&quot;, sans-serif; font-size: 12px; font-weight: 200;" fill="rgb(50, 49, 63)" stroke="none" stroke-width="1px">01:30 AM</text></g><g transform="translate(366,0)" style="visibility: inherit;"><text transform="translate(3,14)" style="text-anchor: start; font-family: &quot;Helvetica Neue&quot;, sans-serif; font-size: 12px; font-weight: 200;" fill="rgb(50, 49, 63)" stroke="none" stroke-width="1px">02:00 AM</text></g><g transform="translate(549,0)" style="visibility: inherit;"><text transform="translate(3,14)" style="text-anchor: start; font-family: &quot;Helvetica Neue&quot;, sans-serif; font-size: 12px; font-weight: 200;" fill="rgb(50, 49, 63)" stroke="none" stroke-width="1px">02:30 AM</text></g><g transform="translate(732,0)" style="visibility: inherit;"><text transform="translate(3,14)" style="text-anchor: start; font-family: &quot;Helvetica Neue&quot;, sans-serif; font-size: 12px; font-weight: 200;" fill="rgb(50, 49, 63)" stroke="none" stroke-width="1px">03:00 AM</text></g><g transform="translate(915,0)" style="visibility: inherit;"><text transform="translate(3,14)" style="text-anchor: start; font-family: &quot;Helvetica Neue&quot;, sans-serif; font-size: 12px; font-weight: 200;" fill="rgb(50, 49, 63)" stroke="none" stroke-width="1px">03:30 AM</text></g><g transform="translate(1098,0)" style="visibility: inherit;"><text transform="translate(3,14)" style="text-anchor: start; font-family: &quot;Helvetica Neue&quot;, sans-serif; font-size: 12px; font-weight: 200;" fill="rgb(50, 49, 63)" stroke="none" stroke-width="1px">04:00 AM</text></g><g transform="translate(1281,0)" style="visibility: inherit;"><text transform="translate(3,14)" style="text-anchor: start; font-family: &quot;Helvetica Neue&quot;, sans-serif; font-size: 12px; font-weight: 200;" fill="rgb(50, 49, 63)" stroke="none" stroke-width="1px">04:30 AM</text></g><g transform="translate(1464,0)" style="visibility: hidden;"><text transform="translate(3,14)" style="text-anchor: start; font-family: &quot;Helvetica Neue&quot;, sans-serif; font-size: 12px; font-weight: 200;" fill="rgb(50, 49, 63)" stroke="none" stroke-width="1px">05:00 AM</text></g></g><g><line x1="0" y1="0" x2="0" y2="17" fill="rgb(0, 0, 0)" stroke="rgb(204, 204, 204)" stroke-width="1px"></line><line x1="183" y1="0" x2="183" y2="17" fill="rgb(0, 0, 0)" stroke="rgb(204, 204, 204)" stroke-width="1px"></line><line x1="366" y1="0" x2="366" y2="17" fill="rgb(0, 0, 0)" stroke="rgb(204, 204, 204)" stroke-width="1px"></line><line x1="549" y1="0" x2="549" y2="17" fill="rgb(0, 0, 0)" stroke="rgb(204, 204, 204)" stroke-width="1px"></line><line x1="732" y1="0" x2="732" y2="17" fill="rgb(0, 0, 0)" stroke="rgb(204, 204, 204)" stroke-width="1px"></line><line x1="915" y1="0" x2="915" y2="17" fill="rgb(0, 0, 0)" stroke="rgb(204, 204, 204)" stroke-width="1px"></line><line x1="1098" y1="0" x2="1098" y2="17" fill="rgb(0, 0, 0)" stroke="rgb(204, 204, 204)" stroke-width="1px"></line><line x1="1281" y1="0" x2="1281" y2="17" fill="rgb(0, 0, 0)" stroke="rgb(204, 204, 204)" stroke-width="1px"></line><line x1="1464" y1="0" x2="1464" y2="17" fill="rgb(0, 0, 0)" stroke="rgb(204, 204, 204)" stroke-width="1px"></line></g><line x1="0" y1="0" x2="1464" y2="0" style="visibility: inherit;" fill="rgb(0, 0, 0)" stroke="rgb(204, 204, 204)" stroke-width="1px"></line></g><g visibility="inherit"><g><g transform="translate(91.5,0)" style="visibility: inherit;"><text transform="translate(0,31)" style="text-anchor: middle; font-family: &quot;Helvetica Neue&quot;, sans-serif; font-size: 12px; font-weight: 200;" fill="rgb(50, 49, 63)" stroke="none" stroke-width="1px">April  5, 2020</text></g><g transform="translate(274.5,0)" style="visibility: inherit;"><text transform="translate(0,31)" style="text-anchor: middle; font-family: &quot;Helvetica Neue&quot;, sans-serif; font-size: 12px; font-weight: 200;" fill="rgb(50, 49, 63)" stroke="none" stroke-width="1px">April  5, 2020</text></g><g transform="translate(457.5,0)" style="visibility: inherit;"><text transform="translate(0,31)" style="text-anchor: middle; font-family: &quot;Helvetica Neue&quot;, sans-serif; font-size: 12px; font-weight: 200;" fill="rgb(50, 49, 63)" stroke="none" stroke-width="1px">April  5, 2020</text></g><g transform="translate(640.5,0)" style="visibility: inherit;"><text transform="translate(0,31)" style="text-anchor: middle; font-family: &quot;Helvetica Neue&quot;, sans-serif; font-size: 12px; font-weight: 200;" fill="rgb(50, 49, 63)" stroke="none" stroke-width="1px">April  5, 2020</text></g><g transform="translate(823.5,0)" style="visibility: inherit;"><text transform="translate(0,31)" style="text-anchor: middle; font-family: &quot;Helvetica Neue&quot;, sans-serif; font-size: 12px; font-weight: 200;" fill="rgb(50, 49, 63)" stroke="none" stroke-width="1px">April  5, 2020</text></g><g transform="translate(1006.5,0)" style="visibility: inherit;"><text transform="translate(0,31)" style="text-anchor: middle; font-family: &quot;Helvetica Neue&quot;, sans-serif; font-size: 12px; font-weight: 200;" fill="rgb(50, 49, 63)" stroke="none" stroke-width="1px">April  5, 2020</text></g><g transform="translate(1189.5,0)" style="visibility: inherit;"><text transform="translate(0,31)" style="text-anchor: middle; font-family: &quot;Helvetica Neue&quot;, sans-serif; font-size: 12px; font-weight: 200;" fill="rgb(50, 49, 63)" stroke="none" stroke-width="1px">April  5, 2020</text></g><g transform="translate(1372.5,0)" style="visibility: inherit;"><text transform="translate(0,31)" style="text-anchor: middle; font-family: &quot;Helvetica Neue&quot;, sans-serif; font-size: 12px; font-weight: 200;" fill="rgb(50, 49, 63)" stroke="none" stroke-width="1px">April  5, 2020</text></g></g><g><line x1="0" y1="17" x2="0" y2="34" fill="rgb(0, 0, 0)" stroke="rgb(204, 204, 204)" stroke-width="1px"></line><line x1="183" y1="17" x2="183" y2="34" fill="rgb(0, 0, 0)" stroke="rgb(204, 204, 204)" stroke-width="1px"></line><line x1="366" y1="17" x2="366" y2="34" fill="rgb(0, 0, 0)" stroke="rgb(204, 204, 204)" stroke-width="1px"></line><line x1="549" y1="17" x2="549" y2="34" fill="rgb(0, 0, 0)" stroke="rgb(204, 204, 204)" stroke-width="1px"></line><line x1="732" y1="17" x2="732" y2="34" fill="rgb(0, 0, 0)" stroke="rgb(204, 204, 204)" stroke-width="1px"></line><line x1="915" y1="17" x2="915" y2="34" fill="rgb(0, 0, 0)" stroke="rgb(204, 204, 204)" stroke-width="1px"></line><line x1="1098" y1="17" x2="1098" y2="34" fill="rgb(0, 0, 0)" stroke="rgb(204, 204, 204)" stroke-width="1px"></line><line x1="1281" y1="17" x2="1281" y2="34" fill="rgb(0, 0, 0)" stroke="rgb(204, 204, 204)" stroke-width="1px"></line><line x1="1464" y1="17" x2="1464" y2="34" fill="rgb(0, 0, 0)" stroke="rgb(204, 204, 204)" stroke-width="1px"></line></g><line x1="0" y1="17" x2="1464" y2="17" style="visibility: inherit;" fill="rgb(0, 0, 0)" stroke="rgb(204, 204, 204)" stroke-width="1px"></line></g></g></g></g></g></svg>