<svg viewBox="0 0 1498 400" xmlns="http://www.w3.org/2000/svg"><g><g><g><g><g><line x1="34" y1="366" x2="29" y2="366" style="visibility: inherit;" fill="rgb(0, 0, 0)" stroke="rgb(204, 204, 204)" stroke-width="1px"></line><line x1="34" y1="325.3333333333333" x2="29" y2="325.3333333333333" style="visibility: inherit;" fill="rgb(0, 0, 0)" stroke="rgb(204, 204, 204)" stroke-width="1px"></line><line x1="34" y1="284.6666666666667" x2="29" y2="284.6666666666667" style="visibility: inherit;" fill="rgb(0, 0, 0)" stroke="rgb(204, 204, 204)" stroke-width="1px"></line><line x1="34" y1="244" x2="29" y2="244" style="visibility: inherit;" fill="rgb(0, 0, 0)" stroke="rgb(204, 204, 204)" stroke-width="1px"></line><line x1="34" y1="203.33333333333334" x2="29" y2="203.33333333333334" style="visibility: inherit;" fill="rgb(0, 0, 0)" stroke="rgb(204, 204, 204)" stroke-width="1px"></line><line x1="34" y1="162.66666666666666" x2="29" y2="162.66666666666666" style="visibility: inherit;" fill="rgb(0, 0, 0)" stroke="rgb(204, 204, 204)" stroke-width="1px"></line><line x1="34" y1="122" x2="29" y2="122" style="visibility: inherit;" fill="rgb(0, 0, 0)" stroke="rgb(204, 204, 204)" stroke-width="1px"></line><line x1="34" y1="81.33333333333331" x2="29" y2="81.33333333333331" style="visibility: inherit;" fill="rgb(0, 0, 0)" stroke="rgb(204, 204, 204)" stroke-width="1px"></line><line x1="34" y1="40.666666666666686" x2="29" y2="40.666666666666686" style="visibility: inherit;" fill="rgb(0, 0, 0)" stroke="rgb(204, 204, 204)" stroke-width="1px"></line><line x1="34" y1="0" x2="29" y2="0" style="visibility: inherit;" fill="rgb(0, 0, 0)" stroke="rgb(204, 204, 204)" stroke-width="1px"></line></g><g transform="translate(24, 0)"><text x="0" y="366" dx="0em" dy="0.3em" style="text-anchor: end; visibility: hidden; font-family: &quot;Helvetica Neue&quot;, sans-serif; font-size: 12px; font-weight: 200;" fill="rgb(50, 49, 63)" stroke="none" stroke-width="1px">-2</text><text x="0" y="325.3333333333333" dx="0em" dy="0.3em" style="text-anchor: end; visibility: inherit; font-family: &quot;Helvetica Neue&quot;, sans-serif; font-size: 12px; font-weight: 200;" fill="rgb(50, 49, 63)" stroke="none" stroke-width="1px">0</text><text x="0" y="284.6666666666667" dx="0em" dy="0.3em" style="text-anchor: end; visibility: inherit; font-family: &quot;Helvetica Neue&quot;, sans-serif; font-size: 12px; font-weight: 200;" fill="rgb(50, 49, 63)" stroke="none" stroke-width="1px">2</text><text x="0" y="244" dx="0em" dy="0.3em" style="text-anchor: end; visibility: inherit; font-family: &quot;Helvetica Neue&quot;, sans-serif; font-size: 12px; font-weight: 200;" fill="rgb(50, 49, 63)" stroke="none" stroke-width="1px">4</text><text x="0" y="203.33333333333334" dx="0em" dy="0.3em" style="text-anchor: end; visibility: inherit; font-family: &quot;Helvetica Neue&quot;, sans-serif; font-size: 12px; font-weight: 200;" fill="rgb(50, 49, 63)" stroke="none" stroke-width="1px">6</text><text x="0" y="162.66666666666666" dx="0em" dy="0.3em" style="text-anchor: end; visibility: inherit; font-family: &quot;Helvetica Neue&quot;, sans-serif; font-size: 12px; font-weight: 200;" fill="rgb(50, 49, 63)" stroke="none" stroke-width="1px">8</text><text x="0" y="122" dx="0em" dy="0.3em" style="text-anchor: end; visibility: inherit; font-family: &quot;Helvetica Neue&quot;, sans-serif; font-size: 12px; font-weight: 200;" fill="rgb(50, 49, 63)" stroke="none" stroke-width="1px">10</text><text x="0" y="81.33333333333331" dx="0em" dy="0.3em" style="text-anchor: end; visibility: inherit; font-family: &quot;Helvetica Neue&quot;, sans-serif; font-size: 12px; font-weight: 200;" fill="rgb(50, 49, 63)" stroke="none" stroke-width="1px">12</text><text x="0" y="40.666666666666686" dx="0em" dy="0.3em" style="text-anchor: end; visibility: inherit; font-family: &quot;Helvetica Neue&quot;, sans-serif; font-size: 12px; font-weight: 200;" fill="rgb(50, 49, 63)" stroke="none" stroke-width="1px">14</text><text x="0" y="0" dx="0em" dy="0.3em" style="text-anchor: end; visibility: hidden; font-family: &quot;Helvetica Neue&quot;, sans-serif; font-size: 12px; font-weight: 200;" fill="rgb(50, 49, 63)" stroke="none" stroke-width="1px">16</text></g><line x1="34" y1="0" x2="34" y2="366" fill="rgb(0, 0, 0)" stroke="rgb(204, 204, 204)" stroke-width="1px"></line></g></g><g transform="translate(34, 0)" clip-path="url(#clip_0)"><clipPath id="clip_0"><rect width="1464" height="366"></rect></clipPath><g><g><g><line x1="0" y1="0" x2="0" y2="366" fill="rgb(0, 0, 0)" stroke="rgb(60, 60, 60)" stroke-width="1px" opacity="0.25"></line><line x1="133.0909090909091" y1="0" x2="133.0909090909091" y2="366" fill="rgb(0, 0, 0)" stroke="rgb(60, 60, 60)" stroke-width="1px" opacity="0.25"></line><line x1="266.1818181818182" y1="0" x2="266.1818181818182" y2="366" fill="rgb(0, 0, 0)" stroke="rgb(60, 60, 60)" stroke-width="1px" opacity="0.25"></line><line x1="399.27272727272725" y1="0" x2="399.27272727272725" y2="366" fill="rgb(0, 0, 0)" stroke="rgb(60, 60, 60)" stroke-width="1px" opacity="0.25"></line><line x1="532.3636363636364" y1="0" x2="532.3636363636364" y2="366" fill="rgb(0, 0, 0)" stroke="rgb(60, 60, 60)" stroke-width="1px" opacity="0.25"></line><line x1="665.4545454545454" y1="0" x2="665.4545454545454" y2="366" fill="rgb(0, 0, 0)" stroke="rgb(60, 60, 60)" stroke-width="1px" opacity="0.25"></line><line x1="798.5454545454545" y1="0" x2="798.5454545454545" y2="366" fill="rgb(0, 0, 0)" stroke="rgb(60, 60, 60)" stroke-width="1px" opacity="0.25"></line><line x1="931.6363636363636" y1="0" x2="931.6363636363636" y2="366" fill="rgb(0, 0, 0)" stroke="rgb(60, 60, 60)" stroke-width="1px" opacity="0.25"></line><line x1="1064.7272727272727" y1="0" x2="1064.7272727272727" y2="366" fill="rgb(0, 0, 0)" stroke="rgb(60, 60, 60)" stroke-width="1px" opacity="0.25"></line><line x1="1197.818181818182" y1="0" x2="1197.818181818182" y2="366" fill="rgb(0, 0, 0)" stroke="rgb(60, 60, 60)" stroke-width="1px" opacity="0.25"></line><line x1="1330.9090909090908" y1="0" x2="1330.9090909090908" y2="366" fill="rgb(0, 0, 0)" stroke="rgb(60, 60, 60)" stroke-width="1px" opacity="0.25"></line><line x1="1464" y1="0" x2="1464" y2="366" fill="rgb(0, 0, 0)" stroke="rgb(60, 60, 60)" stroke-width="1px" opacity="0.25"></line></g><g><line x1="0" y1="366" x2="1464" y2="366" fill="rgb(0, 0, 0)" stroke="rgb(60, 60, 60)" stroke-width="1px" opacity="0.25"></line><line x1="0" y1="325.3333333333333" x2="1464" y2="325.3333333333333" fill="rgb(0, 0, 0)" stroke="rgb(60, 60, 60)" stroke-width="1px" opacity="0.25"></line><line x1="0" y1="284.6666666666667" x2="1464" y2="284.6666666666667" fill="rgb(0, 0, 0)" stroke="rgb(60, 60, 60)" stroke-width="1px" opacity="0.25"></line><line x1="0" y1="244" x2="1464" y2="244" fill="rgb(0, 0, 0)" stroke="rgb(60, 60, 60)" stroke-width="1px" opacity="0.25"></line><line x1="0" y1="203.33333333333334" x2="1464" y2="203.33333333333334" fill="rgb(0, 0, 0)" stroke="rgb(60, 60, 60)" stroke-width="1px" opacity="0.25"></line><line x1="0" y1="162.66666666666666" x2="1464" y2="162.66666666666666" fill="rgb(0, 0, 0)" stroke="rgb(60, 60, 60)" stroke-width="1px" opacity="0.25"></line><line x1="0" y1="122" x2="1464" y2="122" fill="rgb(0, 0, 0)" stroke="rgb(60, 60, 60)" stroke-width="1px" opacity="0.25"></line><line x1="0" y1="81.33333333333331" x2="1464" y2="81.33333333333331" fill="rgb(0, 0, 0)" stroke="rgb(60, 60, 60)" stroke-width="1px" opacity="0.25"></line><line x1="0" y1="40.666666666666686" x2="1464" y2="40.666666666666686" fill="rgb(0, 0, 0)" stroke="rgb(60, 60, 60)" stroke-width="1px" opacity="0.25"></line><line x1="0" y1="0" x2="1464" y2="0" fill="rgb(0, 0, 0)" stroke="rgb(60, 60, 60)" stroke-width="1px" opacity="0.25"></line></g></g></g><g><g><line x1="0" y1="325.3333333333333" x2="1464" y2="325.3333333333333" fill="rgb(0, 0, 0)" stroke="rgb(153, 153, 153)" stroke-width="1.5px"></line></g></g><g><g><line x1="-117101234.18181819" y1="0" x2="-117101234.18181819" y2="366" fill="rgb(0, 0, 0)" stroke="rgb(153, 153, 153)" stroke-width="1.5px"></line></g></g><g><g><g><g><g><path stroke="rgb(255, 112, 67)" stroke-width="2px" d="M155.7705612121212,78.70209789276123L157.04564606060606,144.06804720560712L158.3100096969697,170.8844223022461L158.93997333333334,178.10892248153687L160.20078787878788,186.86987908681235L161.46485575757578,193.14912716547647L162.09459757575758,195.99664433797201L162.72441333333333,197.69224580128989L163.35334181818183,199.43356243769327L163.98212242424242,201.04566462834677L164.61171636363636,202.55729039510092L165.2405709090909,204.08981037139893L165.86935151515152,205.27151123682657L166.49813212121214,206.43407281239828L167.12809575757578,207.3557643890381L167.7569503030303,208.35794957478842L169.0165818181818,209.72411092122397L170.2754,211.0263582865397L170.9043284848485,211.67978954315186L174.05178060606062,214.4842675526937L174.68122666666665,214.9683248202006L175.3109684848485,215.2671750386556L175.9396012121212,215.58365201950073L176.56934303030303,215.9568681716919L185.11444484848485,229.25879096984863L187.01187757575758,228.72382164001465L187.6434678787879,227.63958183924356L188.90746181818182,227.0177682240804L189.53993939393942,227.04471254348755L190.1718993939394,227.6246019999186L190.8054121212121,227.66124200820923L191.43633696969695,227.88648255666098L192.06918424242423,227.63837957382202L193.3341393939394,227.71699221928915L193.966543030303,227.51242287953696L195.87624969696967,227.72108379999796L196.5146424242424,227.7014306386312L197.14845090909094,227.7344832420349L197.77989333333332,227.71095180511475L198.4120012121212,227.7366065979004L200.30869454545456,227.85755062103271L200.94080242424243,227.64779408772787L201.57320606060605,227.69702879587808L202.21337333333332,227.7438007990519L202.84599878787878,227.69569079081217L203.47773696969696,227.85466130574545L204.11087999999998,228.02174711227417L204.74350545454544,228.00253025690714L205.37635272727272,227.9806373914083L206.00838666666664,227.9483119646708L214.69804000000002,229.47126229604086L215.33244,231.07567580540976L215.96698787878788,229.4850107828776L216.6021272727273,229.31712023417154L217.87233212121214,228.6365507443746L219.14187151515154,228.58265240987143L219.77582787878788,228.78246116638184L221.04514545454546,228.72957118352255L221.6798412121212,228.65123971303305L222.95026787878786,228.6481564839681L223.5847418181818,228.66506576538086L224.21936363636362,228.63242038091025L224.85361575757577,228.83944272994995L225.48927272727275,228.45435905456543L226.1243381818182,228.29241196314493L227.39476484848484,228.3177080154419L228.0292387878788,228.22871128718057L228.66371272727272,228.18298641840616L229.29781696969695,228.06743319829306L230.5670606060606,228.25484116872153L232.4724787878788,228.13570054372153L233.10717454545457,228.10354963938394L234.37664,228.28054443995157L235.65009818181818,228.46038007736206L236.29122666666666,228.49521668752035L236.93376,228.5556983947754L247.22324,230.88399203618368L247.86473818181818,229.68959951400757L249.78834545454546,230.31482601165771L251.68407757575758,230.04638147354126L252.3161115151515,230.05588324864706L252.9482193939394,230.24300034840903L253.5801793939394,230.03085867563883L254.21273090909088,229.6037441889445L256.1083151515151,229.58587503433228L256.74086666666665,229.79433234532675L257.3730484848485,229.9234595298767L258.0047127272727,229.96188354492188L258.63696848484847,229.89001909891763L259.9016278787879,229.75146770477295L260.53292242424243,229.71645657221475L262.43035515151513,229.68890142440796L264.32579151515154,229.74902439117432L264.95782545454546,229.83720668156943L266.2213018181818,229.83618863423666L267.48559151515155,229.7019518216451L275.5615478787879,235.0733731587728L276.1912896969697,235.00057792663574L276.8215490909091,232.75192467371622L277.4515127272727,231.4818960825602L278.0813284848485,231.22465006510416L279.34155151515154,231.25908915201822L279.97166303030303,230.93027925491333L280.6016266666667,230.3224662144979L281.2309987878788,230.5743408203125L282.49011272727273,229.9875577290853L283.1197066666667,229.75168100992838L283.74959636363633,229.89281145731607L285.00974545454545,229.9579373995463L285.6390436363636,230.03705422083536L286.2684896969697,230.28297567367554L287.5273818181818,230.12356885274252L288.15623636363637,230.1650276184082L289.41564606060604,230.17155281702676L290.04590545454545,230.0557281176249L291.3141139393939,230.3055763244629L291.94385575757576,230.37029504776L292.5738193939394,230.41469160715738L293.83470787878787,230.2258971532186L294.4643757575758,230.2635939915975L296.3530096969697,230.39197460810342L296.9827515151515,230.2231920560201L297.612863030303,230.23296531041464L305.6849006060606,232.26824553807577L306.95059515151513,230.18535947799683L307.58307272727274,230.67828830083212L308.84906303030306,230.84729385375977L310.1129090909091,230.20758199691772L310.7456084848485,230.38699102401733L311.3787515151515,230.28585529327393L312.0109333333333,230.6447024345398L313.2762581818182,230.4108715057373L313.90888363636367,230.6534867286682L315.8064642424242,230.6292862892151L318.3340824242424,230.59315045674643L318.96692969696966,230.76648998260498L320.86524969696967,230.7257874806722L321.4977272727273,230.6483383178711L322.7626084848485,230.9528605143229L323.3957515151515,231.1144585609436L324.028376969697,230.94037246704102L324.6612242424242,231.04659843444824L325.2932581818182,231.089715162913L327.19017333333335,230.90956926345825L327.8223551515151,231.044290860494L335.69941454545454,228.8116839726766L336.3348496969697,232.86514123280844L338.24034181818183,232.95642614364624L338.87607272727274,231.66688013076782L339.5107684848485,231.93992042541504L340.1453903030303,231.9563546180725L340.7797903030303,231.93852424621582L341.4149296969697,231.55621353785196L342.6852084848485,231.248957157135L343.32049575757577,231.19462251663208L343.95526545454544,231.13315184911093L345.2251006060606,231.31822315851846L345.85994424242426,231.4864239692688L346.4950096969697,231.5078805287679L347.13088848484847,231.56583166122437L347.7662496969697,231.66353511810303L348.40190666666666,231.50443855921426L349.03667636363633,231.5485054651896L350.3065854545455,231.73416821161905L350.9414290909091,231.74353424708048L352.21185575757573,231.72508335113525L354.751673939394,231.56601587931314L355.38673939393937,231.58819961547852L356.65694424242423,231.59077866872153L357.2917878787879,231.59963083267212L365.16810787878785,231.48581314086914L365.80058545454546,235.08705377578735L366.4323236363636,232.64033699035645L367.06502303030305,232.50664313634238L367.6963175757576,231.28865130742392L368.96112484848487,230.47527996699014L370.85811393939395,231.31172704696655L371.4902957575758,231.37077379226685L372.1224036363637,231.55024099349976L372.7540678787879,231.9512062072754L374.0194666666667,232.10555187861124L375.2838303030303,232.37010844548544L376.5484896969697,233.04244629542032L377.8129272727272,232.42108837763467L379.0771430303031,232.47669315338135L379.7094727272727,232.3596855799357L380.34061939393933,232.60055557886758L380.97309696969694,232.68044805526733L381.60564848484853,232.63600301742554L382.8696424242424,232.79218117396036L383.5020460606061,232.8123288154602L384.7668533333333,232.83304850260416L385.3985175757576,232.7841240564982L386.0306993939394,232.91803121566772L387.29491515151517,232.94083547592163L397.69012848484846,232.2740920384725L398.94902060606057,233.21890783309937L399.57957575757575,233.73641522725424L400.8389854545454,233.6335342725118L401.46857939393936,234.0421396891276L402.09861696969693,234.1203063329061L402.728136969697,234.19403235117593L403.3580266666666,233.7954134941101L403.9879903030303,233.68433968226114L404.61773212121216,234.2314771016439L405.24806545454544,234.12248786290488L405.8777333333333,233.8841290473938L406.5072533333334,233.87346378962198L409.02740363636366,234.1843851407369L409.657736969697,234.10097312927246L410.9168509090909,234.07497898737589L412.80792484848484,234.15984535217285L415.3265963636363,234.07072257995605L415.9563381818182,234.1698319117228L416.58556242424237,234.2630559603373L417.21515636363637,234.08714707692465L425.9429624242424,234.67134141921997L426.5764751515151,235.46768712997437L427.20895272727273,234.6016681989034L427.8422436363636,234.08575089772543L428.47516484848484,234.2960794766744L429.10675515151513,233.85291862487793L431.00374424242426,233.90914392471313L431.63622181818187,234.29219150543213L432.90213818181815,234.87793715794882L434.1667975757576,235.44384543100992L435.43249212121214,235.2681886355082L436.6975951515152,235.3223196665446L437.9624024242424,235.2751792271932L438.59414060606065,235.4601535797119L439.22684,235.5497029622396L439.85909575757574,235.4742317199707L440.49186909090906,235.37493817011514L441.1240509090909,235.33154996236166L441.7565284848485,235.420876344045L442.38974545454545,235.42586962381998L443.02318424242424,235.5319792429606L444.2888048484848,235.44436899820963L445.55346424242424,235.37348381678262L446.18557212121215,235.4496143658956L447.4502315151515,235.50486040115356L456.07089939393944,237.42496554056802L456.707,239.07139046986896L457.34243515151513,238.83432118097943L457.97757454545456,237.90375804901123L458.6127139393939,237.47579034169516L459.2480751515152,237.2959353129069L459.88328848484855,237.1963121096293L460.5190193939394,236.8979369799296L461.1536412121213,237.42928981781006L461.79025939393944,236.95396836598715L462.4259163636364,237.0992873509725L463.696416969697,236.95611111323038L464.33155636363637,236.8920226097107L465.6023527272727,236.4738475481669L466.87396242424245,236.3218288421631L467.50924969696973,236.2829588254293L468.1543709090909,236.31884256998697L468.79024969696974,236.20313421885172L469.425463030303,236.04723723729452L470.6959636363637,236.33885447184244L471.33184242424244,236.26246213912964L472.6013078787879,236.22764492034912L473.2368909090909,236.26487636566162L473.87210424242426,236.31888135274252L474.5071696969697,236.236225605011L475.14312242424245,236.2910353342692L476.4142145454545,236.53673378626505L477.04942787878787,236.42121934890747L485.1219090909091,237.53092002868652L485.7541648484849,233.58951584498087L487.6503406060606,235.87101809183756L488.91536969696966,235.8187001546224L489.548143030303,236.65130774180093L490.81235878787885,236.64218409856161L491.4444666666667,236.97537644704184L492.07709212121216,237.1035534540812L493.3413818181818,238.0027898152669L493.97341575757576,238.1018991470337L495.23785333333336,237.70789543787637L496.50288242424244,237.44950532913208L499.66519636363637,238.31616417566937L500.29678666666666,238.29000520706177L502.1948109090909,237.9782306353251L502.82699272727274,237.7775977452596L503.4591745454545,237.73849503199258L504.09135636363635,237.7399493853251L504.7239818181818,237.83995072046915L505.3559418181818,237.79381863276163L506.6217103030303,237.68539174397787L515.32556,249.6538809935252L516.5862266666667,245.60508735974628L517.8465975757575,243.17700084050495L519.7371539393939,241.62862841288248L520.3665260606061,241.50380611419678L522.256490909091,240.60306692123413L522.8863806060606,240.62133359909058L523.5173793939394,240.2577937444051L524.1475648484849,240.30614614486694L525.4071224242424,240.23029677073163L526.0367903030302,240.055047194163L527.9261636363636,239.6701283454895L528.5564969696969,239.47070741653442L529.8173115151516,239.53695805867514L531.7074242424243,239.61193482081094L532.3374618181819,239.44584767023724L533.5984242424242,239.45837450027466L534.2289793939394,239.4956253369649L534.8591648484849,239.50060892105103L535.4895721212122,239.51037247975665L536.1194618181818,239.55264568328857L536.7494993939393,239.44877576828003L537.3798327272727,239.5223175684611L545.2554133333333,233.78155835469565L545.8874472727273,235.5365653038025L546.5212557575758,237.48968426386514L547.1543987878788,236.97895415623984L547.7875418181818,238.0574541091919L548.4203151515151,238.44450600941974L549.6861575757576,238.73473676045734L550.9525915151515,239.20900138219196L551.5853648484848,239.01461251576742L553.4845721212121,239.28853511810303L554.1174193939394,239.14307069778442L556.6496218181818,239.30383491516113L558.5483115151516,239.83847459157306L559.1821199999999,239.77531687418622L560.4490715151514,239.88701121012372L561.0817709090909,240.04788208007812L562.3478351515151,240.2217257817586L562.9809781818182,240.19679816563922L563.6137515151515,240.36384518941244L565.5125151515152,240.23730675379437L566.1460278787879,240.22771771748862L574.6550472727272,251.19084644317627L577.1971575757576,242.62117608388263L577.8327406060606,242.79700740178424L579.10228,243.82269493738812L579.7376412121212,242.89727052052814L580.3731503030302,242.9309048652649L581.0087333333333,242.94985993703204L581.6443903030304,242.91183344523114L582.2799733333333,242.52265818913776L582.9165175757576,242.21761242548627L584.187166060606,242.19461425145465L584.8226751515151,242.29234679539996L585.4578884848485,242.47781562805176L586.0944327272728,242.22263479232788L586.7295721212121,242.18534517288208L587.3649333333333,242.04095697402954L588.0002206060607,241.934255917867L589.9068218181818,242.13376410802206L590.5423309090909,241.96848169962567L591.1776921212121,241.94275903701782L594.99156,241.92226235071817L596.2633175757576,241.88353776931763L596.8992703030303,241.79856475194293L604.9775927272727,238.10538959503174L605.6105878787879,240.24357016881305L606.2421781818182,241.33830070495605L606.8747296969697,241.33910544713336L607.5072812121213,241.7184298833211L608.1403503030303,241.81974983215332L608.7722363636364,242.0107936859131L609.40464,242.18879683812457L610.0373393939394,241.79342603683472L610.6702606060605,242.39174699783325L611.3025903030303,242.63816293080646L611.93492,242.56131490071613L612.568136969697,242.54198169708252L613.2011321212121,242.7154860496521L613.8336836363636,242.88530604044598L615.0995260606061,242.5997486114502L615.7320775757576,242.7943992614746L616.3644812121213,242.5997001330058L617.6304715151515,243.10687192281085L618.8960181818181,243.1267286936442L620.1606036363637,243.1627384821574L620.793303030303,243.08074204126993L622.6910315151515,243.0980100631714L623.3237309090908,243.1849610010783L623.956726060606,243.15847237904867L625.2208678787879,243.1826631228129L625.853936969697,243.05978965759277L626.4871539393939,243.0386724472046L634.9949903030302,235.98004611333212L635.6255454545454,241.0818109512329L636.2558048484848,241.78855880101523L636.8856945454545,241.89279715220135L638.1456957575757,243.29105122884113L638.7762509090909,243.46232557296753L639.4074715151514,244.13673345247904L640.0372133333333,244.55128232638043L640.6673987878787,244.50466060638428L641.3041648484849,244.0247191588084L641.945736969697,244.0723249912262L642.5984,244.07138450940448L643.3394206060607,244.21392567952472L644.8135503030303,244.573655128479L645.5221854545455,244.63827689488727L646.2258666666667,244.6672718524933L648.3059296969697,244.5375629266103L648.9404775757575,244.57546337445578L649.572067878788,244.43394025166828L650.8321430303031,244.52836656570435L651.4621806060607,244.5748137633006L652.0933272727273,244.44253547986347L652.7239563636364,244.34747409820557L653.983513939394,244.16782267888388L655.2446242424243,244.3136603832245L655.8753272727273,244.45333162943524L656.5058084848484,244.50265844662982L665.152503030303,248.0762227376302L666.4205636363637,244.2053256034851L667.6865539393939,244.64190308252972L668.3198448484849,244.2215416431427L668.9527660606061,245.29164512952167L670.8521951515152,245.83670282363892L673.3856545454545,245.9908739725749L674.0179103030302,246.4684739112854L674.651496969697,246.44346872965497L675.2855272727272,246.18443870544434L675.9217018181818,245.96815212567648L677.1867309090909,245.8149990240733L677.8195042424242,245.49943828582764L679.7357915151515,245.35206381479898L680.373296969697,245.3657735188802L681.6401006060606,245.5238908131917L682.9046860606061,245.57725103696185L683.5375333333334,245.535724401474L685.4368145454546,245.58006763458252L686.7033963636363,245.6334666411082L687.3360957575758,245.61141379674274L695.2135987878787,245.03811256090802L695.8524351515152,243.9960732460022L696.4873527272728,246.3102790514628L697.1233793939394,245.58419799804688L697.7583709090909,245.2356088956197L698.3948412121212,245.23078044255573L699.0299806060606,245.56023025512695L699.6654896969696,246.2201188405355L700.3008509090909,246.24567182858783L700.9365078787879,246.48106861114502L701.5722387878789,246.50370804468793L704.1142012121212,245.86825744311014L704.7495624242424,246.03973539670307L706.0206545454545,246.63939436276752L707.2921903030303,246.54924384752908L707.9268860606061,246.43571217854816L708.5618036363636,246.45423579216003L709.1967212121211,246.32238896687826L709.8326739393939,246.48917905489606L710.4685527272727,246.71375544865927L711.1043575757576,246.681619087855L711.739570909091,246.64028151830038L712.375006060606,246.59190972646076L713.6455806060605,246.4983172416687L714.2810157575758,246.38608479499817L714.9163030303031,246.2917845249176L715.5521818181819,246.27583511670431L716.1879127272728,246.32982556025186L717.4594484848485,246.47484397888184L725.54376,250.4518410364787L726.1773466666666,249.54943418502808L726.8106375757576,251.20475975672403L727.4435587878787,250.59757208824158L728.07648,250.51370922724408L728.7088836363637,250.1620320479075L729.3419527272728,250.38549828529358L729.9744303030303,249.62048904101053L730.6068339393939,249.36290852228802L731.2394593939395,248.48252542813617L731.8723806060606,248.82405122121173L732.5045624242424,248.8380663394928L734.4066533333333,248.7363634109497L735.6748618181819,248.6531259218852L736.9514993939393,248.44257918993634L738.8493757575758,248.3102524280548L739.48348,248.539405186971L740.1161793939394,248.28780206044513L740.748583030303,248.3216254711151L741.3815781818182,248.1860312620799L742.013686060606,248.24650812149048L742.6463115151515,248.2541434764862L743.2786412121212,248.07528710365295L743.9110448484848,247.91539549827576L744.5432266666666,247.87920149167377L745.1760739393939,247.8062074979146L745.8094387878788,247.6251938343048L746.4419903030304,247.597430229187L756.003463030303,252.10806345939636L756.686663030303,253.1378377278646L757.344353939394,254.80920481681824L758.6087915151516,252.83544373512268L759.2403818181818,252.5209931532542L760.500383030303,251.47843996683758L761.131233939394,251.1922183831533L761.7615672727273,251.09621651967365L762.3914569696971,250.98533662160236L763.0217903030302,250.7895855108897L763.6528630303031,250.3938414255778L765.5434933333333,249.81353505452475L766.1766363636364,249.68258508046466L766.8086703030303,249.74746863047284L769.3579527272727,249.60374943415326L769.9879163636364,249.39305726687115L771.2479175757576,249.27058617273968L771.8784727272727,249.31436220804852L772.5092496969697,249.00752758979797L773.1399527272728,249.0900815327962L774.414446060606,249.33153812090558L775.7696072727273,249.27277739842734L776.5844933333333,249.4764935175578L777.2591903030302,249.40364495913187L785.7725721212121,255.89566977818805L786.4074896969696,249.9987808863322L787.043886060606,251.05970255533856L787.6800606060606,252.36712741851807L788.3150521212121,251.37931609153748L788.9510048484849,251.05659023920694L789.5871793939394,251.32683332761127L790.2239454545455,250.6987708409627L792.1318775757576,249.70949546496072L792.7670909090909,249.44011044502258L794.0381090909092,249.72273008028668L795.3100884848485,249.5818565686544L795.9458193939394,249.78671677907306L796.5814763636363,249.7564468383789L797.217429090909,249.73737057050067L798.596103030303,250.32161339124045L799.3312084848485,250.33432443936664L800.0220242424242,250.50236527125043L800.6586424242424,250.35802555084229L801.2911939393939,250.28107086817425L801.9264072727273,250.23019758860272L802.5592545454546,250.04092804590863L803.1926933333334,250.03257036209106L805.0970763636363,250.2415366967519L805.7299975757576,250.1366099516551L806.9981321212122,250.19642750422162L807.6324581818183,250.1307828426361L808.2679672727272,250.23025091489157L816.4628921212121,256.2930766741435L817.7351672727274,251.77055652936298L819.2108496969696,252.7585666179657L819.9147527272727,253.27770773569745L820.5867878787878,253.66489537556967L821.3272169696969,253.4204961458842L821.9738169696969,253.49826041857403L822.6462957575758,253.83076922098797L823.3685357575757,253.5917995770772L824.0089248484849,253.5439562002818L825.2834921212122,253.2333645025889L825.9232896969697,253.40353353818256L826.5613866666667,253.63038841883343L827.8396509090909,253.69063258171082L829.1162145454546,253.622976064682L829.7575648484849,253.56803059577942L830.3957357575757,253.2549277146657L831.0329454545455,253.00038194656372L831.6706727272726,252.99469542503357L832.3115054545455,252.8051398595174L833.5866642424241,252.71970629692078L834.2277187878788,252.63449573516846L834.8665551515152,252.38901543617249L836.1416399999999,252.37363807360333L836.7829163636363,252.43805623054504L838.0586666666667,252.4137345949809L847.238686060606,252.5271547635396L848.5117745454545,254.12329300244647L849.1443260606061,254.68541510899863L849.778873939394,255.32526755332947L851.6882848484848,255.31907200813293L852.3267515151515,255.18235794703168L853.5979175757576,254.915513197581L854.2343139393938,254.73330696423847L855.4994909090909,254.23583086331683L856.1329296969697,254.1541398366292L856.7683648484848,254.01838564872742L858.0339115151514,253.64758857091266L858.6686072727273,253.4894615809123L860.567370909091,253.45963764190674L861.2031018181818,253.40421223640442L862.4676872727273,253.52725052833557L863.1027527272727,253.55202786127728L863.7356,253.63489691416422L864.368890909091,253.6659764448802L865.6365818181818,253.49016451835632L866.2691333333333,253.34195621808368L866.9013890909091,253.42014710108438L867.5366763636363,253.4163512388865L868.8017793939395,253.5035542647044L877.5091042424242,256.26473132769263L878.7730242424242,257.4104902744293L879.4031357575758,257.4072325229645L880.0340606060606,257.38187829653424L880.6642460606062,257.9435980319977L881.2968715151516,258.0676349798838L883.8324012121212,256.92539556821185L884.5848084848485,257.0827469031016L885.2638678787879,256.5643281141917L885.9696193939394,256.81302253405255L887.8690484848485,256.3650817076365L888.4993078787879,256.4151453971863L889.1318593939393,256.28488866488135L889.7624145454546,255.96581323941547L890.3930436363636,255.69515323638916L891.0260387878789,255.7423324584961L891.656372121212,255.8822557926178L892.2874448484849,255.76945130030316L892.9173345454547,255.77395979563397L893.5495903030303,255.7790985107422L894.8104787878788,255.76682861646015L895.4419951515151,255.42637904485065L896.0740290909091,255.37841447194415L896.7047321212121,255.48936708768207L897.3346957575758,255.5222306251526L897.9676909090908,255.41377464930218L898.5984678787879,255.50275683403015L907.4402145454545,261.0571455160777L908.1994981818182,258.7190059026082L908.8420315151515,259.68463349342346L909.5049721212122,258.6563814481099L910.1497236363637,258.21180987358093L910.7946969696969,257.95709927876794L912.0620921212121,257.3575954437256L912.6985624242425,257.2121213277181L915.2525769696969,256.65444469451904L915.88572,257.0010704199473L917.1559248484848,257.15381145477295L917.7892896969697,257.26527794202167L918.42332,257.42627970377606L919.0585333333332,257.0319560368856L919.6918242424242,257.24513999621075L920.3245236363637,257.2318326632182L920.9575187878787,257.16801079114276L922.2268363636364,257.1906308333079L922.8606448484848,256.9589668909709L923.4960800000001,257.13971877098083L924.1293709090909,256.8004035949707L925.3965442424243,257.02625012397766L926.0317575757575,257.16200431187946L926.665713939394,257.263712088267L927.2986351515151,257.1948145230611L927.9345878787879,256.8486154079437L928.5678787878788,256.87176386515296L939.8655224242425,261.65696930885315L940.5042848484848,260.83342234293616L941.1394981818182,260.66974457105005L941.7753769696969,260.8028033574422L942.4136957575757,260.61488636334735L945.2428387878787,261.3741169770559L947.4168787878788,261.5900932947795L948.0563066666667,261.1995412508647L949.3324266666666,260.9032555421194L951.2440557575757,260.5524024963379L951.9140945454546,260.4713513851166L953.2069987878787,260.1361762682597L953.8433212121212,259.7397292455037L954.4783127272729,259.47641857465106L955.1165575757576,259.4598001639048L956.3882412121211,259.56705872217816L957.0237503030303,259.5802254676819L957.6636218181818,259.716784397761L958.3003878787879,259.78928875923157L958.9362666666666,259.6650724411011L959.5746593939393,259.5549439589183L960.21076,259.37794431050617L968.3040921212121,246.5468053817749L968.9433721212121,258.9780068397522L970.30748,261.04366366068524L970.9643575757575,261.6958538691203L972.3725333333334,261.3004491329193L973.6984884848486,262.04147124290466L974.3340715151515,261.50799020131427L975.5994703030303,261.4364360173543L976.8682703030303,261.6908072630564L977.5010436363635,261.6548701922099L978.133816969697,261.6159129142761L978.7696957575758,261.5250449180603L980.6706775757576,262.05145295461017L981.3038206060606,262.1787476539612L981.93652,262.21346791585285L982.5691454545455,261.9294230143229L983.8379454545454,262.1267496744792L984.4711624242424,262.2189362843832L985.1071890909091,261.90118916829425L985.7395187878788,261.8830921649933L986.3722181818181,261.9830547173818L989.5411866666667,261.83032337824505L990.1737381818182,261.7595206101735L998.8814327272728,264.0718018213908L999.5113224242425,266.96930511792505L1000.7816751515151,266.09774510065716L1001.4119345454546,266.0095143318176L1002.042046060606,266.1010319391886L1002.676446060606,267.1186090310415L1003.9367430303031,266.8358197212219L1004.5670763636364,266.82538231213886L1005.1999236363637,267.18051115671796L1006.4611818181818,266.98716942469275L1007.0935115151515,266.8543869654338L1007.7242145454545,266.18714420000714L1008.3547696969698,265.93628764152527L1009.6190593939394,265.73994994163513L1010.2493187878787,265.6599168777466L1011.5146436363638,265.5739161173503L1013.406235151515,265.49433875083923L1014.6700812121212,265.5276240507762L1015.3007842424242,265.3838806152344L1015.9342969696969,265.43524837493896L1016.5652957575757,265.43731355667114L1017.8258884848484,265.29572741190594L1019.0881818181817,265.1293396949768L1019.7186630303031,265.0887729326884L1020.3525454545454,265.1763153076172L1020.9836921212121,265.06778661410016L1028.8587551515152,265.8715252876282L1029.4950036363637,265.95647406578064L1030.1284424242424,267.62197041511536L1030.7613636363637,267.40856345494586L1031.3942848484849,267.6342451572418L1033.2968933333334,267.8609109719594L1033.9330678787878,268.5116953055064L1034.5665066666668,268.1584668159485L1037.735770909091,267.6189647515615L1038.3712799999998,267.68044511477154L1039.004349090909,267.5258812904358L1039.637787878788,267.44428237279254L1040.9080666666666,266.9804939428965L1041.540692121212,267.1769576867421L1042.1734654545455,267.0574728647868L1042.8092703030302,267.19463292757666L1043.4422654545453,267.2224692503611L1046.6104206060606,267.1800409158071L1047.2474824242424,267.1004538536072L1047.8805515151514,266.99862488110864L1048.5141381818182,266.8183335463206L1049.147650909091,266.8661042054494L1049.7838993939395,266.82319593429565L1051.050555151515,267.00043312708533L1058.935304242424,270.66201003392536L1059.5708133333333,270.58315499623615L1060.205656969697,271.56823213895166L1060.8444933333335,269.58260838190716L1061.4796327272727,269.65664951006573L1062.1159551515152,270.64981285731L1062.7539042424244,271.39879512786865L1063.3890436363638,271.26492675145465L1064.6606533333334,271.13824288050336L1065.3001551515151,271.2686111132304L1065.93596,271.5410454273224L1066.5716169696968,271.70818456013996L1067.2100836363636,271.47805738449097L1067.8456666666666,271.5746506849925L1068.481027878788,271.8594033718109L1069.7553733333332,271.4403217633565L1071.0264654545456,271.6440766652425L1072.3009587878787,271.69781502087915L1072.9371333333333,271.8050929705302L1073.5759696969697,271.80973235766095L1074.8478751515152,271.71321177482605L1076.1217769696968,271.1889901161194L1076.7569163636365,271.1885925928752L1078.0304484848484,271.03346157073975L1079.3018363636363,270.8434309164683L1079.9375672727272,270.8670350710551L1080.5764036363637,270.8037028312683L1089.0910424242425,279.2575484911601L1090.9901757575758,280.0405044555664L1091.6262024242424,279.5862323443095L1093.5258533333333,278.3895758787791L1094.1601793939394,278.52968827883404L1094.792509090909,278.72982184092206L1096.6941563636365,278.927419980367L1098.595212121212,278.37972990671796L1099.2279854545454,278.13474408785504L1099.8608327272727,277.950753847758L1100.4965636363636,277.7580229441325L1101.1295587878788,277.51807888348895L1101.7621103030303,277.18132821718854L1102.3968060606062,277.16729855537415L1103.031206060606,277.0094333489736L1103.6638315151515,276.7355592250824L1104.2967527272726,276.65419300397235L1105.565330909091,276.22622044881183L1106.1982521212121,276.096918741862L1106.8321345454547,276.0031177997589L1108.7322290909092,275.5779230594635L1109.3685515151515,275.4579243659973L1110.6343200000001,275.2872705459595L1118.5141151515152,285.44254235426587L1119.1447442424244,280.5887084007263L1119.7750775757575,280.49676418304443L1121.038553939394,281.63600277900696L1121.6686654545454,282.1106843153636L1122.933029090909,281.94683686892193L1123.563732121212,281.8732756773631L1124.1939175757575,281.3749463558197L1124.8272084848486,281.10408759117126L1125.4582072727273,280.9271800518036L1126.0897236363635,280.6880552768707L1126.7202048484849,280.8827398618062L1127.353421818182,280.8770436445872L1127.9839769696969,280.5391731262207L1128.613718787879,280.1658212343852L1129.247896969697,279.8959465821584L1129.8783042424243,279.8236991564433L1130.5087854545454,279.9703028202057L1131.1392666666666,279.9822236696879L1132.402890909091,279.8369628588359L1133.0330763636364,279.8234228293101L1133.66548,279.83117453257245L1134.2964787878786,279.9836440881093L1135.5575151515152,279.67312026023865L1136.23236,279.5509448846181L1138.969892121212,279.43372400601703L1140.8653284848485,279.25451374053955L1150.0241272727271,284.62267247835797L1150.6577878787878,285.7582703431447L1151.290856969697,286.6165060599645L1151.9237042424243,287.45913898944855L1153.194204848485,287.2895444234212L1153.831044848485,287.5163726409276L1154.4699551515153,287.63020245234173L1155.105612121212,287.9959092934926L1155.7417866666667,287.4877945979436L1157.0156145454546,287.0697916348775L1157.6509757575757,286.8262335062027L1158.2870024242425,286.7447436650594L1158.9239903030302,286.0518727699916L1159.5569115151516,285.85665734608966L1160.1902763636365,285.7051185766856L1160.8231236363636,285.59842479228973L1161.4592981818182,285.43086874485016L1162.092736969697,285.3239665031433L1162.7269151515152,285.26187531153363L1163.3622024242425,285.24946482976276L1164.6297454545454,284.87188319365185L1165.2631842424244,284.78340276082355L1166.5322800000001,284.5337436199188L1167.165349090909,284.5156029860179L1167.8018933333335,284.44909540812176L1169.0692884848484,284.14469440778095L1169.7024315151516,284.1586271127065L1170.3380145454546,283.982369184494L1178.3284230303032,284.9309226671855L1179.1966933333333,288.4970842997233L1179.9979745454546,292.04125368595123L1183.043686060606,291.88809816042584L1184.320989090909,292.1017353932063L1186.227812121212,292.2538922627767L1186.8778133333333,292.2976901133855L1188.1489793939393,292.40157457192737L1188.7848581818182,292.2747089068095L1189.4211066666667,292.04992163181305L1190.6936036363636,291.6046374241511L1191.3944012121212,291.4785449902217L1192.0305018181818,291.39124500751495L1192.6904109090908,291.25221610069275L1193.3267333333333,291.00057176748913L1193.9631296969696,291.18487226963043L1194.5997478787879,291.20591191450757L1195.236366060606,291.2399995326996L1195.8726145454546,291.04717167218524L1196.5510824242424,290.97593502203625L1197.8944133333334,290.43779762585956L1198.5327321212121,290.0983248949051L1199.168758787879,289.8586717049281L1200.4416254545454,289.7157742182414L1201.077873939394,289.5338515837987L1201.7141963636363,289.3275927702586L1209.8234993939395,293.5755770603816L1210.4587127272728,291.03430064519245L1211.09156,292.21504163742065L1212.3608036363637,294.06316113471985L1212.9939466666667,294.37591739495593L1213.6304169696969,294.4867342710495L1214.3137648484849,295.07761379082996L1215.0740836363636,295.613307873408L1215.887490909091,295.49940049648285L1216.6127624242424,295.2017404238383L1217.990770909091,295.17422890663147L1218.7626242424242,295.0794147650401L1219.5319636363636,295.1506708065669L1220.2675127272728,295.03108902772266L1221.0452072727273,295.1195427974065L1221.7096266666667,294.89865561326343L1222.3708666666666,294.98938059806824L1223.0217551515152,294.7955031792323L1223.6828472727273,294.69147086143494L1225.2121357575759,294.33233284950256L1225.8456484848484,294.12083594004315L1227.1194763636363,293.7914079427719L1229.884587878788,293.62449665864307L1230.6458678787878,293.58423288663226L1232.1418096969699,293.265976746877L1232.842903030303,293.2086097796758L1233.5597454545455,293.03709789117175L1242.6514072727273,298.71810257434845L1244.021726060606,301.5481190284093L1244.666033939394,301.3164914449056L1245.357736969697,301.0533649921417L1246.7580751515152,300.63324352105457L1247.4235296969698,300.5868593454361L1248.0560812121212,300.6857190132141L1248.6863406060606,300.64529768625897L1249.9507781818184,300.5536176760991L1250.5807418181819,300.5338675578435L1251.2146242424242,300.4224956035614L1251.8450315151515,300.24230364958447L1252.4759563636364,300.3574641942978L1253.7400242424244,300.1899881362915L1254.3750157575757,299.9805152018865L1255.0074193939392,299.9054487546285L1256.354816969697,299.3266839981079L1257.0212327272727,299.1945511500041L1259.0127163636364,298.91107587019604L1260.274713939394,298.6371120611827L1260.9051212121212,298.6395796140035L1262.1666751515152,298.50211413701373L1262.7970824242425,298.3909288247426L1263.4571393939393,298.42202774683636L1264.0919090909092,298.361509680748L1264.7367345454545,298.27763227621716L1273.6502024242425,314.4709173639615L1274.3156569696969,305.48602185646695L1274.985326060606,306.1606345574061L1276.350616969697,306.5699223081271L1277.109383030303,306.58664979537326L1277.8531393939395,306.8244414130847L1278.5300545454545,306.6230849822362L1279.3008727272727,306.8869289159775L1280.0270315151515,306.92297627528507L1280.7515636363637,306.8570625583331L1282.2208133333334,306.60611389080685L1282.9112593939394,306.4933275779088L1283.548543030303,306.4822987318039L1284.1844218181818,306.3108110825221L1284.8183781818182,306.17597071329754L1285.451890909091,306.017008682092L1287.529661818182,306.2340091069539L1288.854064242424,305.7401095032692L1289.487576969697,305.4259158571561L1290.1612387878788,305.2135936021805L1290.9196351515152,304.92826159795123L1291.7201769696971,304.93436745802563L1292.526486060606,304.676687558492L1293.3529806060606,304.5303602218628L1294.1280133333335,304.3210957447688L1294.9196084848486,304.01655173301697L1295.7027006060607,303.8426547050476L1297.6515212121212,303.1476192474365L1298.2851818181819,303.0129727919896L1307.441170909091,308.0600163737933L1308.0773454545454,308.17647250493366L1308.7130024242424,308.36678918202716L1309.3496206060606,308.3784821828206L1309.9856472727272,307.86155289411545L1310.6215260606061,307.78284935156506L1311.8987551515152,307.5644066929817L1312.5360387878786,307.6188613176346L1313.172730909091,307.7432133754094L1314.4476678787878,307.76900148391724L1315.117410909091,307.805028239886L1315.8704096969698,308.0240623354912L1317.1882315151515,307.93613334496814L1317.8861454545456,307.75328840812045L1318.6060193939395,307.73738990227383L1319.9800351515153,307.6573519905408L1320.6162096969697,307.49248892068863L1321.25512,307.40175545215607L1322.5268775757575,307.272034406662L1323.164530909091,307.1703193585078L1324.4361406060607,307.19363021850586L1325.0712800000001,307.2526684800784L1325.709450909091,307.2704685529073L1326.345033939394,307.2766713698705L1326.9810606060605,307.20630005995434L1327.6298048484848,307.19851926962536L1328.9010448484848,307.00198038419086L1337.3259951515151,307.5352820555369L1339.4990739393938,309.4586085875829L1340.8134945454547,309.3384244640668L1342.8182133333332,308.5508836507797L1345.3606193939395,308.8518341978391L1348.5417878787878,309.4302523334821L1350.447353939394,309.79443816343945L1351.0813842424243,309.82980076471966L1351.7140096969697,309.728651702404L1352.354029090909,309.7086640397708L1352.9874678787878,309.7192893028259L1353.6211284848484,309.4281701842944L1354.8939951515151,309.36372900009155L1355.527507878788,309.3476923306783L1356.7994872727272,309.0818001826604L1357.433,308.9608864585559L1358.7003212121213,308.6229977607727L1359.3404884848485,308.52906835079193L1359.974223030303,308.49223806460697" style="fill: none;" fill="none"></path></g></g></g></g></g></g><g transform="translate(34, 366)" clip-path="url(#clip_1)"><clipPath id="clip_1"><rect width="1464" height="34"></rect></clipPath><g><g visibility="inherit"><g><g transform="translate(0,0)" style="visibility: inherit;"><text transform="translate(3,14)" style="text-anchor: start; font-family: &quot;Helvetica Neue&quot;, sans-serif; font-size: 12px; font-weight: 200;" fill="rgb(50, 49, 63)" stroke="none" stroke-width="1px">12:30 PM</text></g><g transform="translate(133.0909090909091,0)" style="visibility: inherit;"><text transform="translate(3,14)" style="text-anchor: start; font-family: &quot;Helvetica Neue&quot;, sans-serif; font-size: 12px; font-weight: 200;" fill="rgb(50, 49, 63)" stroke="none" stroke-width="1px">01:00 PM</text></g><g transform="translate(266.1818181818182,0)" style="visibility: inherit;"><text transform="translate(3,14)" style="text-anchor: start; font-family: &quot;Helvetica Neue&quot;, sans-serif; font-size: 12px; font-weight: 200;" fill="rgb(50, 49, 63)" stroke="none" stroke-width="1px">01:30 PM</text></g><g transform="translate(399.27272727272725,0)" style="visibility: inherit;"><text transform="translate(3,14)" style="text-anchor: start; font-family: &quot;Helvetica Neue&quot;, sans-serif; font-size: 12px; font-weight: 200;" fill="rgb(50, 49, 63)" stroke="none" stroke-width="1px">02:00 PM</text></g><g transform="translate(532.3636363636364,0)" style="visibility: inherit;"><text transform="translate(3,14)" style="text-anchor: start; font-family: &quot;Helvetica Neue&quot;, sans-serif; font-size: 12px; font-weight: 200;" fill="rgb(50, 49, 63)" stroke="none" stroke-width="1px">02:30 PM</text></g><g transform="translate(665.4545454545454,0)" style="visibility: inherit;"><text transform="translate(3,14)" style="text-anchor: start; font-family: &quot;Helvetica Neue&quot;, sans-serif; font-size: 12px; font-weight: 200;" fill="rgb(50, 49, 63)" stroke="none" stroke-width="1px">03:00 PM</text></g><g transform="translate(798.5454545454545,0)" style="visibility: inherit;"><text transform="translate(3,14)" style="text-anchor: start; font-family: &quot;Helvetica Neue&quot;, sans-serif; font-size: 12px; font-weight: 200;" fill="rgb(50, 49, 63)" stroke="none" stroke-width="1px">03:30 PM</text></g><g transform="translate(931.6363636363636,0)" style="visibility: inherit;"><text transform="translate(3,14)" style="text-anchor: start; font-family: &quot;Helvetica Neue&quot;, sans-serif; font-size: 12px; font-weight: 200;" fill="rgb(50, 49, 63)" stroke="none" stroke-width="1px">04:00 PM</text></g><g transform="translate(1064.7272727272727,0)" style="visibility: inherit;"><text transform="translate(3,14)" style="text-anchor: start; font-family: &quot;Helvetica Neue&quot;, sans-serif; font-size: 12px; font-weight: 200;" fill="rgb(50, 49, 63)" stroke="none" stroke-width="1px">04:30 PM</text></g><g transform="translate(1197.818181818182,0)" style="visibility: inherit;"><text transform="translate(3,14)" style="text-anchor: start; font-family: &quot;Helvetica Neue&quot;, sans-serif; font-size: 12px; font-weight: 200;" fill="rgb(50, 49, 63)" stroke="none" stroke-width="1px">05:00 PM</text></g><g transform="translate(1330.9090909090908,0)" style="visibility: inherit;"><text transform="translate(3,14)" style="text-anchor: start; font-family: &quot;Helvetica Neue&quot;, sans-serif; font-size: 12px; font-weight: 200;" fill="rgb(50, 49, 63)" stroke="none" stroke-width="1px">05:30 PM</text></g><g transform="translate(1464,0)" style="visibility: hidden;"><text transform="translate(3,14)" style="text-anchor: start; font-family: &quot;Helvetica Neue&quot;, sans-serif; font-size: 12px; font-weight: 200;" fill="rgb(50, 49, 63)" stroke="none" stroke-width="1px">06:00 PM</text></g></g><g><line x1="0" y1="0" x2="0" y2="17" fill="rgb(0, 0, 0)" stroke="rgb(204, 204, 204)" stroke-width="1px"></line><line x1="133.0909090909091" y1="0" x2="133.0909090909091" y2="17" fill="rgb(0, 0, 0)" stroke="rgb(204, 204, 204)" stroke-width="1px"></line><line x1="266.1818181818182" y1="0" x2="266.1818181818182" y2="17" fill="rgb(0, 0, 0)" stroke="rgb(204, 204, 204)" stroke-width="1px"></line><line x1="399.27272727272725" y1="0" x2="399.27272727272725" y2="17" fill="rgb(0, 0, 0)" stroke="rgb(204, 204, 204)" stroke-width="1px"></line><line x1="532.3636363636364" y1="0" x2="532.3636363636364" y2="17" fill="rgb(0, 0, 0)" stroke="rgb(204, 204, 204)" stroke-width="1px"></line><line x1="665.4545454545454" y1="0" x2="665.4545454545454" y2="17" fill="rgb(0, 0, 0)" stroke="rgb(204, 204, 204)" stroke-width="1px"></line><line x1="798.5454545454545" y1="0" x2="798.5454545454545" y2="17" fill="rgb(0, 0, 0)" stroke="rgb(204, 204, 204)" stroke-width="1px"></line><line x1="931.6363636363636" y1="0" x2="931.6363636363636" y2="17" fill="rgb(0, 0, 0)" stroke="rgb(204, 204, 204)" stroke-width="1px"></line><line x1="1064.7272727272727" y1="0" x2="1064.7272727272727" y2="17" fill="rgb(0, 0, 0)" stroke="rgb(204, 204, 204)" stroke-width="1px"></line><line x1="1197.818181818182" y1="0" x2="1197.818181818182" y2="17" fill="rgb(0, 0, 0)" stroke="rgb(204, 204, 204)" stroke-width="1px"></line><line x1="1330.9090909090908" y1="0" x2="1330.9090909090908" y2="17" fill="rgb(0, 0, 0)" stroke="rgb(204, 204, 204)" stroke-width="1px"></line><line x1="1464" y1="0" x2="1464" y2="17" fill="rgb(0, 0, 0)" stroke="rgb(204, 204, 204)" stroke-width="1px"></line></g><line x1="0" y1="0" x2="1464" y2="0" style="visibility: inherit;" fill="rgb(0, 0, 0)" stroke="rgb(204, 204, 204)" stroke-width="1px"></line></g><g visibility="inherit"><g><g transform="translate(66.54545454545455,0)" style="visibility: inherit;"><text transform="translate(0,31)" style="text-anchor: middle; font-family: &quot;Helvetica Neue&quot;, sans-serif; font-size: 12px; font-weight: 200;" fill="rgb(50, 49, 63)" stroke="none" stroke-width="1px">March  9, 2020</text></g><g transform="translate(199.63636363636363,0)" style="visibility: inherit;"><text transform="translate(0,31)" style="text-anchor: middle; font-family: &quot;Helvetica Neue&quot;, sans-serif; font-size: 12px; font-weight: 200;" fill="rgb(50, 49, 63)" stroke="none" stroke-width="1px">March  9, 2020</text></g><g transform="translate(332.7272727272727,0)" style="visibility: inherit;"><text transform="translate(0,31)" style="text-anchor: middle; font-family: &quot;Helvetica Neue&quot;, sans-serif; font-size: 12px; font-weight: 200;" fill="rgb(50, 49, 63)" stroke="none" stroke-width="1px">March  9, 2020</text></g><g transform="translate(465.8181818181818,0)" style="visibility: inherit;"><text transform="translate(0,31)" style="text-anchor: middle; font-family: &quot;Helvetica Neue&quot;, sans-serif; font-size: 12px; font-weight: 200;" fill="rgb(50, 49, 63)" stroke="none" stroke-width="1px">March  9, 2020</text></g><g transform="translate(598.909090909091,0)" style="visibility: inherit;"><text transform="translate(0,31)" style="text-anchor: middle; font-family: &quot;Helvetica Neue&quot;, sans-serif; font-size: 12px; font-weight: 200;" fill="rgb(50, 49, 63)" stroke="none" stroke-width="1px">March  9, 2020</text></g><g transform="translate(732,0)" style="visibility: inherit;"><text transform="translate(0,31)" style="text-anchor: middle; font-family: &quot;Helvetica Neue&quot;, sans-serif; font-size: 12px; font-weight: 200;" fill="rgb(50, 49, 63)" stroke="none" stroke-width="1px">March  9, 2020</text></g><g transform="translate(865.0909090909091,0)" style="visibility: inherit;"><text transform="translate(0,31)" style="text-anchor: middle; font-family: &quot;Helvetica Neue&quot;, sans-serif; font-size: 12px; font-weight: 200;" fill="rgb(50, 49, 63)" stroke="none" stroke-width="1px">March  9, 2020</text></g><g transform="translate(998.1818181818181,0)" style="visibility: inherit;"><text transform="translate(0,31)" style="text-anchor: middle; font-family: &quot;Helvetica Neue&quot;, sans-serif; font-size: 12px; font-weight: 200;" fill="rgb(50, 49, 63)" stroke="none" stroke-width="1px">March  9, 2020</text></g><g transform="translate(1131.2727272727273,0)" style="visibility: inherit;"><text transform="translate(0,31)" style="text-anchor: middle; font-family: &quot;Helvetica Neue&quot;, sans-serif; font-size: 12px; font-weight: 200;" fill="rgb(50, 49, 63)" stroke="none" stroke-width="1px">March  9, 2020</text></g><g transform="translate(1264.3636363636365,0)" style="visibility: inherit;"><text transform="translate(0,31)" style="text-anchor: middle; font-family: &quot;Helvetica Neue&quot;, sans-serif; font-size: 12px; font-weight: 200;" fill="rgb(50, 49, 63)" stroke="none" stroke-width="1px">March  9, 2020</text></g><g transform="translate(1397.4545454545455,0)" style="visibility: inherit;"><text transform="translate(0,31)" style="text-anchor: middle; font-family: &quot;Helvetica Neue&quot;, sans-serif; font-size: 12px; font-weight: 200;" fill="rgb(50, 49, 63)" stroke="none" stroke-width="1px">March  9, 2020</text></g></g><g><line x1="0" y1="17" x2="0" y2="34" fill="rgb(0, 0, 0)" stroke="rgb(204, 204, 204)" stroke-width="1px"></line><line x1="133.0909090909091" y1="17" x2="133.0909090909091" y2="34" fill="rgb(0, 0, 0)" stroke="rgb(204, 204, 204)" stroke-width="1px"></line><line x1="266.1818181818182" y1="17" x2="266.1818181818182" y2="34" fill="rgb(0, 0, 0)" stroke="rgb(204, 204, 204)" stroke-width="1px"></line><line x1="399.27272727272725" y1="17" x2="399.27272727272725" y2="34" fill="rgb(0, 0, 0)" stroke="rgb(204, 204, 204)" stroke-width="1px"></line><line x1="532.3636363636364" y1="17" x2="532.3636363636364" y2="34" fill="rgb(0, 0, 0)" stroke="rgb(204, 204, 204)" stroke-width="1px"></line><line x1="665.4545454545454" y1="17" x2="665.4545454545454" y2="34" fill="rgb(0, 0, 0)" stroke="rgb(204, 204, 204)" stroke-width="1px"></line><line x1="798.5454545454545" y1="17" x2="798.5454545454545" y2="34" fill="rgb(0, 0, 0)" stroke="rgb(204, 204, 204)" stroke-width="1px"></line><line x1="931.6363636363636" y1="17" x2="931.6363636363636" y2="34" fill="rgb(0, 0, 0)" stroke="rgb(204, 204, 204)" stroke-width="1px"></line><line x1="1064.7272727272727" y1="17" x2="1064.7272727272727" y2="34" fill="rgb(0, 0, 0)" stroke="rgb(204, 204, 204)" stroke-width="1px"></line><line x1="1197.818181818182" y1="17" x2="1197.818181818182" y2="34" fill="rgb(0, 0, 0)" stroke="rgb(204, 204, 204)" stroke-width="1px"></line><line x1="1330.9090909090908" y1="17" x2="1330.9090909090908" y2="34" fill="rgb(0, 0, 0)" stroke="rgb(204, 204, 204)" stroke-width="1px"></line><line x1="1464" y1="17" x2="1464" y2="34" fill="rgb(0, 0, 0)" stroke="rgb(204, 204, 204)" stroke-width="1px"></line></g><line x1="0" y1="17" x2="1464" y2="17" style="visibility: inherit;" fill="rgb(0, 0, 0)" stroke="rgb(204, 204, 204)" stroke-width="1px"></line></g></g></g></g></g></svg>