<svg viewBox="0 0 1498 400" xmlns="http://www.w3.org/2000/svg"><g><g><g><g><g><line x1="58" y1="366" x2="53" y2="366" style="visibility: inherit;" fill="rgb(0, 0, 0)" stroke="rgb(204, 204, 204)" stroke-width="1px"></line><line x1="58" y1="337.84615384615387" x2="53" y2="337.84615384615387" style="visibility: inherit;" fill="rgb(0, 0, 0)" stroke="rgb(204, 204, 204)" stroke-width="1px"></line><line x1="58" y1="309.6923076923077" x2="53" y2="309.6923076923077" style="visibility: inherit;" fill="rgb(0, 0, 0)" stroke="rgb(204, 204, 204)" stroke-width="1px"></line><line x1="58" y1="281.53846153846155" x2="53" y2="281.53846153846155" style="visibility: inherit;" fill="rgb(0, 0, 0)" stroke="rgb(204, 204, 204)" stroke-width="1px"></line><line x1="58" y1="253.38461538461536" x2="53" y2="253.38461538461536" style="visibility: inherit;" fill="rgb(0, 0, 0)" stroke="rgb(204, 204, 204)" stroke-width="1px"></line><line x1="58" y1="225.23076923076925" x2="53" y2="225.23076923076925" style="visibility: inherit;" fill="rgb(0, 0, 0)" stroke="rgb(204, 204, 204)" stroke-width="1px"></line><line x1="58" y1="197.0769230769231" x2="53" y2="197.0769230769231" style="visibility: inherit;" fill="rgb(0, 0, 0)" stroke="rgb(204, 204, 204)" stroke-width="1px"></line><line x1="58" y1="168.92307692307693" x2="53" y2="168.92307692307693" style="visibility: inherit;" fill="rgb(0, 0, 0)" stroke="rgb(204, 204, 204)" stroke-width="1px"></line><line x1="58" y1="140.7692307692308" x2="53" y2="140.7692307692308" style="visibility: inherit;" fill="rgb(0, 0, 0)" stroke="rgb(204, 204, 204)" stroke-width="1px"></line><line x1="58" y1="112.61538461538461" x2="53" y2="112.61538461538461" style="visibility: inherit;" fill="rgb(0, 0, 0)" stroke="rgb(204, 204, 204)" stroke-width="1px"></line><line x1="58" y1="84.46153846153851" x2="53" y2="84.46153846153851" style="visibility: inherit;" fill="rgb(0, 0, 0)" stroke="rgb(204, 204, 204)" stroke-width="1px"></line><line x1="58" y1="56.30769230769232" x2="53" y2="56.30769230769232" style="visibility: inherit;" fill="rgb(0, 0, 0)" stroke="rgb(204, 204, 204)" stroke-width="1px"></line><line x1="58" y1="28.153846153846132" x2="53" y2="28.153846153846132" style="visibility: inherit;" fill="rgb(0, 0, 0)" stroke="rgb(204, 204, 204)" stroke-width="1px"></line><line x1="58" y1="0" x2="53" y2="0" style="visibility: inherit;" fill="rgb(0, 0, 0)" stroke="rgb(204, 204, 204)" stroke-width="1px"></line></g><g transform="translate(48, 0)"><text x="0" y="366" dx="0em" dy="0.3em" style="text-anchor: end; visibility: hidden; font-family: &quot;Helvetica Neue&quot;, sans-serif; font-size: 12px; font-weight: 200;" fill="rgb(50, 49, 63)" stroke="none" stroke-width="1px">-0.1</text><text x="0" y="337.84615384615387" dx="0em" dy="0.3em" style="text-anchor: end; visibility: inherit; font-family: &quot;Helvetica Neue&quot;, sans-serif; font-size: 12px; font-weight: 200;" fill="rgb(50, 49, 63)" stroke="none" stroke-width="1px">0</text><text x="0" y="309.6923076923077" dx="0em" dy="0.3em" style="text-anchor: end; visibility: inherit; font-family: &quot;Helvetica Neue&quot;, sans-serif; font-size: 12px; font-weight: 200;" fill="rgb(50, 49, 63)" stroke="none" stroke-width="1px">0.1</text><text x="0" y="281.53846153846155" dx="0em" dy="0.3em" style="text-anchor: end; visibility: inherit; font-family: &quot;Helvetica Neue&quot;, sans-serif; font-size: 12px; font-weight: 200;" fill="rgb(50, 49, 63)" stroke="none" stroke-width="1px">0.2</text><text x="0" y="253.38461538461536" dx="0em" dy="0.3em" style="text-anchor: end; visibility: inherit; font-family: &quot;Helvetica Neue&quot;, sans-serif; font-size: 12px; font-weight: 200;" fill="rgb(50, 49, 63)" stroke="none" stroke-width="1px">0.3</text><text x="0" y="225.23076923076925" dx="0em" dy="0.3em" style="text-anchor: end; visibility: inherit; font-family: &quot;Helvetica Neue&quot;, sans-serif; font-size: 12px; font-weight: 200;" fill="rgb(50, 49, 63)" stroke="none" stroke-width="1px">0.4</text><text x="0" y="197.0769230769231" dx="0em" dy="0.3em" style="text-anchor: end; visibility: inherit; font-family: &quot;Helvetica Neue&quot;, sans-serif; font-size: 12px; font-weight: 200;" fill="rgb(50, 49, 63)" stroke="none" stroke-width="1px">0.5</text><text x="0" y="168.92307692307693" dx="0em" dy="0.3em" style="text-anchor: end; visibility: inherit; font-family: &quot;Helvetica Neue&quot;, sans-serif; font-size: 12px; font-weight: 200;" fill="rgb(50, 49, 63)" stroke="none" stroke-width="1px">0.6</text><text x="0" y="140.7692307692308" dx="0em" dy="0.3em" style="text-anchor: end; visibility: inherit; font-family: &quot;Helvetica Neue&quot;, sans-serif; font-size: 12px; font-weight: 200;" fill="rgb(50, 49, 63)" stroke="none" stroke-width="1px">0.7</text><text x="0" y="112.61538461538461" dx="0em" dy="0.3em" style="text-anchor: end; visibility: inherit; font-family: &quot;Helvetica Neue&quot;, sans-serif; font-size: 12px; font-weight: 200;" fill="rgb(50, 49, 63)" stroke="none" stroke-width="1px">0.8</text><text x="0" y="84.46153846153851" dx="0em" dy="0.3em" style="text-anchor: end; visibility: inherit; font-family: &quot;Helvetica Neue&quot;, sans-serif; font-size: 12px; font-weight: 200;" fill="rgb(50, 49, 63)" stroke="none" stroke-width="1px">0.9</text><text x="0" y="56.30769230769232" dx="0em" dy="0.3em" style="text-anchor: end; visibility: inherit; font-family: &quot;Helvetica Neue&quot;, sans-serif; font-size: 12px; font-weight: 200;" fill="rgb(50, 49, 63)" stroke="none" stroke-width="1px">1</text><text x="0" y="28.153846153846132" dx="0em" dy="0.3em" style="text-anchor: end; visibility: inherit; font-family: &quot;Helvetica Neue&quot;, sans-serif; font-size: 12px; font-weight: 200;" fill="rgb(50, 49, 63)" stroke="none" stroke-width="1px">1.1</text><text x="0" y="0" dx="0em" dy="0.3em" style="text-anchor: end; visibility: hidden; font-family: &quot;Helvetica Neue&quot;, sans-serif; font-size: 12px; font-weight: 200;" fill="rgb(50, 49, 63)" stroke="none" stroke-width="1px">1.2</text></g><line x1="58" y1="0" x2="58" y2="366" fill="rgb(0, 0, 0)" stroke="rgb(204, 204, 204)" stroke-width="1px"></line></g></g><g transform="translate(58, 0)" clip-path="url(#clip_0)"><clipPath id="clip_0"><rect width="1440" height="366"></rect></clipPath><g><g><g><line x1="0" y1="0" x2="0" y2="366" fill="rgb(0, 0, 0)" stroke="rgb(60, 60, 60)" stroke-width="1px" opacity="0.25"></line><line x1="130.9090909090909" y1="0" x2="130.9090909090909" y2="366" fill="rgb(0, 0, 0)" stroke="rgb(60, 60, 60)" stroke-width="1px" opacity="0.25"></line><line x1="261.8181818181818" y1="0" x2="261.8181818181818" y2="366" fill="rgb(0, 0, 0)" stroke="rgb(60, 60, 60)" stroke-width="1px" opacity="0.25"></line><line x1="392.7272727272727" y1="0" x2="392.7272727272727" y2="366" fill="rgb(0, 0, 0)" stroke="rgb(60, 60, 60)" stroke-width="1px" opacity="0.25"></line><line x1="523.6363636363636" y1="0" x2="523.6363636363636" y2="366" fill="rgb(0, 0, 0)" stroke="rgb(60, 60, 60)" stroke-width="1px" opacity="0.25"></line><line x1="654.5454545454545" y1="0" x2="654.5454545454545" y2="366" fill="rgb(0, 0, 0)" stroke="rgb(60, 60, 60)" stroke-width="1px" opacity="0.25"></line><line x1="785.4545454545454" y1="0" x2="785.4545454545454" y2="366" fill="rgb(0, 0, 0)" stroke="rgb(60, 60, 60)" stroke-width="1px" opacity="0.25"></line><line x1="916.3636363636364" y1="0" x2="916.3636363636364" y2="366" fill="rgb(0, 0, 0)" stroke="rgb(60, 60, 60)" stroke-width="1px" opacity="0.25"></line><line x1="1047.2727272727273" y1="0" x2="1047.2727272727273" y2="366" fill="rgb(0, 0, 0)" stroke="rgb(60, 60, 60)" stroke-width="1px" opacity="0.25"></line><line x1="1178.1818181818182" y1="0" x2="1178.1818181818182" y2="366" fill="rgb(0, 0, 0)" stroke="rgb(60, 60, 60)" stroke-width="1px" opacity="0.25"></line><line x1="1309.090909090909" y1="0" x2="1309.090909090909" y2="366" fill="rgb(0, 0, 0)" stroke="rgb(60, 60, 60)" stroke-width="1px" opacity="0.25"></line><line x1="1440" y1="0" x2="1440" y2="366" fill="rgb(0, 0, 0)" stroke="rgb(60, 60, 60)" stroke-width="1px" opacity="0.25"></line></g><g><line x1="0" y1="366" x2="1440" y2="366" fill="rgb(0, 0, 0)" stroke="rgb(60, 60, 60)" stroke-width="1px" opacity="0.25"></line><line x1="0" y1="337.84615384615387" x2="1440" y2="337.84615384615387" fill="rgb(0, 0, 0)" stroke="rgb(60, 60, 60)" stroke-width="1px" opacity="0.25"></line><line x1="0" y1="309.6923076923077" x2="1440" y2="309.6923076923077" fill="rgb(0, 0, 0)" stroke="rgb(60, 60, 60)" stroke-width="1px" opacity="0.25"></line><line x1="0" y1="281.53846153846155" x2="1440" y2="281.53846153846155" fill="rgb(0, 0, 0)" stroke="rgb(60, 60, 60)" stroke-width="1px" opacity="0.25"></line><line x1="0" y1="253.38461538461536" x2="1440" y2="253.38461538461536" fill="rgb(0, 0, 0)" stroke="rgb(60, 60, 60)" stroke-width="1px" opacity="0.25"></line><line x1="0" y1="225.23076923076925" x2="1440" y2="225.23076923076925" fill="rgb(0, 0, 0)" stroke="rgb(60, 60, 60)" stroke-width="1px" opacity="0.25"></line><line x1="0" y1="197.0769230769231" x2="1440" y2="197.0769230769231" fill="rgb(0, 0, 0)" stroke="rgb(60, 60, 60)" stroke-width="1px" opacity="0.25"></line><line x1="0" y1="168.92307692307693" x2="1440" y2="168.92307692307693" fill="rgb(0, 0, 0)" stroke="rgb(60, 60, 60)" stroke-width="1px" opacity="0.25"></line><line x1="0" y1="140.7692307692308" x2="1440" y2="140.7692307692308" fill="rgb(0, 0, 0)" stroke="rgb(60, 60, 60)" stroke-width="1px" opacity="0.25"></line><line x1="0" y1="112.61538461538461" x2="1440" y2="112.61538461538461" fill="rgb(0, 0, 0)" stroke="rgb(60, 60, 60)" stroke-width="1px" opacity="0.25"></line><line x1="0" y1="84.46153846153851" x2="1440" y2="84.46153846153851" fill="rgb(0, 0, 0)" stroke="rgb(60, 60, 60)" stroke-width="1px" opacity="0.25"></line><line x1="0" y1="56.30769230769232" x2="1440" y2="56.30769230769232" fill="rgb(0, 0, 0)" stroke="rgb(60, 60, 60)" stroke-width="1px" opacity="0.25"></line><line x1="0" y1="28.153846153846132" x2="1440" y2="28.153846153846132" fill="rgb(0, 0, 0)" stroke="rgb(60, 60, 60)" stroke-width="1px" opacity="0.25"></line><line x1="0" y1="0" x2="1440" y2="0" fill="rgb(0, 0, 0)" stroke="rgb(60, 60, 60)" stroke-width="1px" opacity="0.25"></line></g></g></g><g><g><line x1="0" y1="337.84615384615387" x2="1440" y2="337.84615384615387" fill="rgb(0, 0, 0)" stroke="rgb(153, 153, 153)" stroke-width="1.5px"></line></g></g><g><g><line x1="-115181541.81818183" y1="0" x2="-115181541.81818183" y2="366" fill="rgb(0, 0, 0)" stroke="rgb(153, 153, 153)" stroke-width="1.5px"></line></g></g><g><g><g><g><g><path stroke="rgb(255, 112, 67)" stroke-width="2px" d="M153.21694545454545,261.5699559083352L154.47112727272727,248.6450451245675L155.71476363636364,243.53984540242416L156.3344,243.7251244233205L157.57454545454544,243.20195996761322L158.81789090909092,241.96973952880273L159.43730909090908,240.97094279986163L160.0568,240.2674245467553L160.6754181818182,240.32160200522497L161.29389090909092,239.93165351794318L161.91316363636363,239.89482761346378L162.5317090909091,238.78149216908676L163.1501818181818,238.54011426522183L163.76865454545455,238.2672719863745L164.38829090909093,238.1134069974606L165.00683636363635,237.65105688571933L166.24581818181818,237.55486819377313L167.484,237.21547246896304L168.1026909090909,236.92417109012607L171.19854545454547,235.80554963075198L171.8176,235.5702967918836L172.4370181818182,235.3527059555054L173.05534545454546,235.07882325465863L173.67476363636362,234.7355846808507L182.07978181818183,226.74910404131964L183.9461090909091,233.0721764472815L184.5674181818182,232.3446026306886L185.8106181818182,230.48489025922922L186.4327272727273,229.4436208193119L187.05432727272728,229.93275340703818L187.67745454545454,229.66025513869067L188.29803636363636,228.7691756486893L188.92050909090906,229.19063046345343L190.16472727272728,229.3233010493792L190.78676363636362,229.47838266079245L192.66516363636362,229.36774552785434L193.2930909090909,228.7253688482138L193.9165090909091,228.66355603474838L194.5376727272727,228.66572917424716L195.15934545454544,228.64679181575778L197.02494545454547,229.16864735346576L197.64669090909092,229.39470420433926L198.26872727272726,229.49143827878513L198.89839999999998,229.51269980577322L199.52065454545453,229.5443655527555L200.14203636363635,229.4262692653216L200.76479999999998,229.24364164242377L201.38705454545453,229.41618388432724L202.00952727272727,229.04656557853406L202.63119999999998,228.9330337230976L211.1784,232.16495363528912L211.80239999999998,221.81257854058194L212.42654545454545,224.6389520260004L213.05127272727273,221.84264170206512L214.30065454545456,226.1161750646738L215.5493818181818,227.15008603609527L216.17294545454544,228.13319253004516L217.42145454545454,229.2332374224296L218.04574545454545,229.13754376998315L219.29534545454544,228.884041593625L219.91941818181817,228.2964548789538L220.54363636363635,227.3939726994588L221.16749090909093,227.12139891661133L221.7928,226.61216269089627L222.4173818181818,227.18323690157672L223.6669818181818,227.0052408346763L224.29105454545456,227.3301713374945L224.9151272727273,227.5476111448728L225.53883636363636,227.7042114367852L226.78727272727272,227.88071399468643L228.66145454545455,228.25126364597907L229.28574545454546,228.5609570008058L230.5344,228.4871373818471L231.78705454545454,228.16031901652997L232.4176,228.32192843693954L233.04960000000003,228.51123489783362L243.1704,226.37038204303155L243.80138181818182,224.05445301532748L245.69345454545456,224.15471949027136L247.55810909090908,224.2649119267097L248.1797818181818,224.75130921143753L248.8015272727273,224.4183825621238L249.4231272727273,225.60841556695792L250.0453090909091,225.76386636037094L251.90981818181817,226.11661137067355L252.53199999999998,225.85711837731876L253.1538181818182,225.9614122922604L253.77512727272725,226.20116243912625L254.3970181818182,225.57571778847623L255.64094545454546,225.43341490855585L256.2618909090909,225.2681807921483L258.12821818181817,225.0410751287754L259.9925818181818,224.52489995956424L260.6142545454545,224.2367198467255L261.8570181818182,223.8253000699557L263.1005818181818,223.62535445506757L271.04414545454546,204.75010244662946L271.6635636363636,212.01541122106406L272.2834909090909,214.61101239461166L272.90312727272726,216.39761833961194L273.5226181818182,214.90989039494443L274.76218181818183,220.53546892679657L275.38196363636365,219.58958269082584L276.0016,220.71941385819363L276.62065454545456,221.51175394425024L277.8591272727273,222.7716294710453L278.47839999999997,223.78642688347745L279.0979636363636,224.26570902420926L280.33745454545453,223.94334601438965L280.9564363636364,223.71049285851993L281.57556363636365,223.27411134426413L282.8138181818182,223.1086674653567L283.4323636363637,222.92652649145862L284.6711272727273,223.10358282235953L285.29105454545453,223.26480627976932L286.53847272727273,223.2181970522954L287.15796363636366,222.916877416464L287.7775272727273,223.13381379384262L289.01774545454543,222.84954365400168L289.63709090909094,222.76059596355145L291.49476363636364,222.82490914601547L292.1141818181818,222.86784333449145L292.7339636363636,222.85602951049808L300.67367272727273,236.5276864033479L301.9186909090909,225.12215253023L302.5407272727273,221.6280462741852L303.78596363636365,221.85495056555823L305.02909090909094,224.46499178959775L305.6514181818182,223.04241607739377L306.27418181818183,223.16862597832312L306.89599999999996,222.31648679879996L308.14058181818183,222.41360683624563L308.7628363636364,222.44867912622598L310.6293090909091,221.4102121133071L313.1154909090909,221.1162006029716L313.73796363636365,221.206650192921L315.6051636363636,221.9400805785106L316.22727272727275,222.37192283226895L317.4714181818182,221.81914830207828L318.0941818181818,221.4933116252606L318.7164363636364,221.43764904829172L319.33890909090906,221.16406001494482L319.9605818181818,221.25839440639203L321.8264,221.41813274530264L322.44821818181816,221.37597887332623L330.19614545454544,224.00266684935644L330.8211636363636,214.65624558008636L332.6954909090909,217.15764661018667L333.32072727272725,218.6483447918525L333.94501818181817,218.9843843166645L334.5692363636364,219.805545770205L335.1932363636364,219.8445112521832L335.81796363636363,219.78057564221896L337.0674181818182,220.02046842758475L337.6922909090909,220.3144967189202L338.3166545454545,221.00766109503235L339.5656727272727,220.13706281551947L340.1901090909091,219.45151701340308L340.81476363636364,219.65140389479126L341.4402181818182,219.69980868926416L342.06516363636365,219.53825800235455L342.6904,220.01347914108862L343.31476363636364,219.70772932125973L344.56385454545455,219.6793862122756L345.1882909090909,219.81940687619723L346.43796363636363,219.64567318329443L348.93607272727274,219.276549917001L349.56072727272726,219.4854398048841L350.81010909090907,219.69287813626804L351.43454545454546,219.5567926168442L359.1817454545454,233.11955760075497L359.80385454545456,215.78870297395267L360.4252363636363,219.18694776755115L361.04756363636363,215.71953169199136L361.6685090909091,219.9776265346087L362.9125818181818,218.1066792836556L364.77847272727274,219.0378066301346L365.4002909090909,219.14973590007196L366.0220363636364,219.7891003902142L366.6433454545455,219.49268080638006L367.88800000000003,220.15930603100705L369.13163636363635,220.1874729394913L370.3755636363636,220.16319922300485L371.6192727272727,220.07457876205447L372.8627636363637,220.53920269929446L373.48472727272724,220.06748878955844L374.1056,220.09104092304526L374.72763636363635,219.809120123203L375.3498181818182,219.63730785479913L376.5930909090909,219.47663817038904L377.21512727272733,219.0910695241048L378.4592,218.4907376399407L379.08050909090906,218.38790367199826L379.7023272727273,218.0187552342048L380.9458181818182,217.57879936695102L391.17061818181816,219.01343222764822L392.4088727272727,217.38080873856177L393.0290909090909,216.77901690739853L394.2678545454545,215.47820413112643L394.88712727272724,214.87426433196435L395.50683636363635,215.523596736101L396.1260363636364,214.50884966666882L396.74559999999997,215.003587108392L397.36523636363637,215.3079273242217L397.98465454545453,214.56188601713916L398.60465454545454,215.19328792278586L399.224,215.43459870265082L399.8432,215.3102095402204L402.32203636363636,215.28850331673254L402.94203636363636,215.84986132841846L404.1805090909091,216.0862301037862L406.0405818181818,215.12754835532263L408.5179636363636,214.60194226411673L409.13745454545455,214.32441808627203L409.75629090909086,214.3836298447389L410.3755636363636,214.46448909319366L418.96029090909093,212.9391129750472L419.58341818181816,213.64012246865494L420.20552727272724,214.83367948348706L420.82843636363634,211.3641322209285L421.4509818181818,212.47790397130527L422.07221818181813,211.6175421017867L423.9381090909091,211.04963950010446L424.56021818181824,211.05112461860364L425.8053818181818,210.57498052487006L427.0493090909091,210.1367531006153L428.2942545454546,210.50942554840674L429.5386909090909,211.3765837229215L430.7826909090909,211.80471737568197L431.40407272727276,211.37676831392142L432.0264,210.9536353991582L432.64829090909086,210.6187369823456L433.2706909090909,210.40059237296765L433.8925090909091,210.27747856653656L434.51469090909086,210.46518244193152L435.13745454545455,210.18245615408972L435.7605090909091,210.0031008261901L437.00545454545454,210.01354699868423L438.2493090909091,210.3597390284905L438.87105454545457,210.5740575698706L440.1149818181818,210.42572192045358L448.5943272727273,203.43672070136438L449.22,205.10581769393042L449.84501818181815,204.28996742688696L450.4697454545455,205.86409235000613L451.0944727272727,205.00320187898782L451.7194181818182,205.66184773811926L452.34421818181823,204.5682803117312L452.96952727272725,204.5396687067472L453.59381818181816,205.1750309283917L454.2199272727273,205.4148733707575L454.8451636363637,204.68301200866702L456.0948363636364,204.1783234339494L456.71956363636366,204.44686977679913L457.96952727272725,205.14258486490985L459.22036363636363,205.70714804759393L459.8451636363636,206.39141849371103L460.47970909090907,206.1303984293571L461.1052363636364,206.99701122137216L461.7299636363636,207.3980351686478L462.97970909090907,207.27978785221396L463.6050909090909,207.37806577865896L464.85374545454545,208.14675304522882L465.4789090909091,208.603951389973L466.1037090909091,208.43729927906622L466.72836363636367,208.38172060709735L467.3538909090909,208.07884033826682L468.6041454545454,208.19370628320254L469.22894545454545,208.1583906687223L477.1690909090909,224.1986521482468L477.7909818181818,204.13558222697333L479.6560727272727,206.9083236364218L480.90036363636364,205.21376986687002L481.5227636363636,205.6741901636124L482.76625454545456,205.12806090941797L483.38800000000003,205.21537245236914L484.0102545454546,205.07161801594955L485.25381818181813,204.89703688254724L485.8754909090909,204.95456215051505L487.11920000000003,204.7643243441215L488.3634909090909,205.31628499581265L491.47396363636364,204.79963156810174L492.0952,204.5166367842601L493.9621090909091,204.5940223657168L494.5839272727273,204.66832863367523L495.2057454545454,205.00530789448666L495.82756363636366,205.31745966581198L496.4498181818182,205.41764223575595L497.0714181818182,205.47496613172385L498.31643636363634,205.1693002168949L506.87760000000003,205.15381135390356L508.1176,199.12508607827704L509.3573090909091,196.92441734900842L511.2168727272727,198.46785821364477L511.8359272727273,199.13747045627008L513.6949090909092,198.96212578736822L514.3145454545454,198.67861918302683L514.9352,198.6456109560453L515.5549818181819,198.72141912350287L516.7939636363636,199.16986617675195L517.4132363636363,198.84659699293283L519.2716363636364,199.43084428860593L519.8916363636364,199.954310802313L521.1317818181818,199.99461037379047L522.9909090909091,200.3579022425872L523.6106181818182,200.20985187017004L524.8509818181818,200.8218129873276L525.4711272727272,200.91412526827594L526.0909818181818,200.7695989058568L526.7110545454545,200.49873678500836L527.3306181818182,200.35296023808996L527.9503272727272,200.55417281847735L528.5703272727272,200.52059403749612L536.3168000000001,213.72952324610492L536.9384727272727,203.35430921041052L537.561890909091,203.5810624727836L538.1846545454546,202.87638633067792L538.8074181818182,203.7354812346972L539.4298181818182,204.77155695511746L540.6749090909092,202.89257999566885L541.9205818181819,202.67013105979333L542.5429818181818,202.8999971976647L544.4110545454545,202.14884607608502L545.0335272727273,202.32790773648483L547.5242181818181,201.83591398826013L549.3917818181818,200.88517804329214L550.0151999999999,200.6863315839034L551.2613818181818,200.34078562259677L551.8837090909091,199.9945180782905L553.1290181818182,199.33389206116018L553.7517818181818,199.04321996982281L554.3741818181818,199.00394403934482L556.2418181818182,199.00100736434644L556.8649454545455,198.6896191285207L565.2344727272726,179.2520945438972L567.7349090909091,195.51722981379584L568.3600727272727,195.1280448620136L569.6088,194.46670565238367L570.2337454545454,194.93670790012067L570.8588363636363,195.10918301802417L571.484,195.30798752491293L572.1092363636363,194.4266326244061L572.7343999999999,194.40181352541998L573.3605090909091,194.95587180210995L574.6103272727273,193.90754595169653L575.2354181818182,193.9689476306622L575.8602181818183,193.56440806388858L576.4863272727273,193.8509939817282L577.1111272727272,193.99702224364648L577.736,194.54805994033816L578.3608727272727,194.78520903220544L580.2362181818182,194.5856829423171L580.8613090909091,194.50642627936145L581.4862545454546,194.73818867023175L585.2376,194.59875534130978L586.4885818181818,194.93585206912115L587.1140363636364,195.09542259803186L595.0599272727272,198.6491936995433L595.6825454545454,192.15143108367923L596.3037818181818,197.7350655060548L596.9259636363636,195.92561222956732L597.5482181818181,193.2297445810758L598.1708363636363,193.80105372575613L598.7923636363636,193.90207534569961L599.4144,194.18065672654373L600.0367272727273,194.0916670835935L600.6592727272728,194.9350298001216L601.2812363636364,194.8018893461961L601.9032,194.1299445445721L602.5260363636364,193.97827786665698L603.1486545454546,193.30406763003424L603.7708363636364,192.4886452784905L605.0159272727273,192.6759715813857L605.6381818181818,192.18193894166214L606.2601454545455,192.5867805664356L607.5053818181818,192.15445166367752L608.7501818181818,191.41420819209173L609.9940363636364,191.46431625806372L610.6163636363636,191.58396478799673L612.4829818181818,191.77370755489056L613.105309090909,191.64884013396045L613.7279272727272,191.20649297420798L614.9713454545455,191.47477082105783L615.5940363636364,191.70141500693103L616.2168727272727,191.4982306590447L624.5852363636363,202.99790594210992L625.2054545454546,198.39335896418646L625.8253818181818,192.16455382567187L626.4449454545454,191.70754007192758L627.6842909090909,188.3905404897837L628.3045090909092,188.12115509693442L628.9253818181818,187.93684937403754L629.5448727272727,186.9316339126L630.1646545454545,186.46716939485992L630.7909818181819,187.31956028938296L631.4220363636364,187.1176680784959L632.064,186.96348425058218L632.7928727272728,187.87449117807242L634.2428363636363,187.71283980516287L634.9398545454545,187.8646742930779L635.632,187.57256742624136L637.6780363636364,187.3768674043509L638.3021090909091,187.56713038224441L638.9233454545455,188.38198217978845L640.1627636363637,188.74497199058536L640.7824727272728,188.1590465949132L641.4032727272727,187.92931470504175L642.0235636363636,188.60912979566137L643.2624727272728,188.7328896705921L644.502909090909,187.97123364301828L645.1232727272727,187.82090944510242L645.7434181818181,187.77509731512805L654.2483636363636,222.42084783774158L655.4956363636364,189.79385161399844L656.7408727272727,186.05524618809042L657.3637818181818,187.71834397315982L657.9863272727273,186.0495238670936L659.8546909090909,186.09340618206906L662.3465454545454,187.59497006122885L662.9684363636363,186.19023255201486L663.5916363636363,185.96941137313846L664.2152727272727,186.35628054692197L664.8410181818182,186.65228060575632L666.0853818181819,186.62519607177148L666.707709090909,187.32560144937958L668.5925818181818,186.39885394389813L669.2196363636364,186.08812016707202L670.4656727272727,185.8050582592304L671.7095272727273,185.42694876744198L672.332,185.1127077616178L674.2001454545455,185.1947332895719L675.4459636363637,184.8809621517475L676.0682909090909,184.67019279186545L683.8166545454545,189.20329466232886L684.4450181818182,186.3380228189322L685.0695272727272,184.8096429017874L685.6951272727273,188.40938555277313L686.3197818181818,187.8595560880808L686.9457454545454,188.46239673174347L687.5704727272727,188.25226504986105L688.1955636363637,186.45283842086795L688.8205090909091,186.79584206067602L689.4457454545454,184.92346842472372L690.0710545454546,185.00314461267914L692.5713454545455,185.29129116351788L693.1962909090909,184.94939506970923L694.4465454545455,182.85630094088043L695.6972363636363,183.00055041679968L696.3215272727273,183.33291490261374L696.9460363636364,182.74878507394058L697.5705454545455,182.93841037383447L698.1960727272727,182.44578733811014L698.8215272727273,182.31709384918213L699.4469090909091,182.41573256712695L700.071709090909,182.40970818813034L700.6967272727272,182.3016385481908L701.9464727272727,182.4166555221264L702.5714909090909,182.5366061100593L703.1963636363637,182.9331914828374L703.8218181818182,182.78535087292013L704.4471272727272,182.87773027786844L705.6978181818182,182.91859201284555L713.6496727272727,171.93344736099243L714.2728,177.13423165908227L714.8957090909091,171.61907210716836L715.5182545454545,172.11396057789145L716.1408,173.05277362236612L716.7628363636364,174.86706821735092L717.3855272727272,174.86131233435412L718.0076363636364,175.34807880108175L718.6296727272727,175.64971727591296L719.2519272727272,177.52482621486374L719.8744727272727,177.19486141204834L720.4962909090909,177.9525403426244L722.3672,178.4830884383275L723.6146181818183,179.2247415139125L724.8703272727272,179.04270122601434L726.7370909090909,179.59097005770758L727.3607999999999,179.29597685887262L727.9831272727273,179.6752610206604L728.6051636363637,179.6747408096607L729.2277818181818,179.70199315364547L729.8495272727273,179.30473654086776L730.4717818181819,179.59516530770523L731.0937454545455,179.82815271157486L731.7157818181818,180.01437146847067L732.3376,180.05083658145026L732.9601454545453,180.06231478544382L733.5830545454546,180.09701789342444L734.2052363636365,179.80724358558655L743.6099636363637,170.06362443703873L744.2819636363636,169.57249491031357L744.9288727272727,168.74519161077646L746.1726545454545,171.95484313598047L746.7938181818182,170.98488455552322L748.0331636363637,172.77972997151892L748.6536727272727,173.23627385726343L749.2736727272728,173.33007964721094L749.8932363636364,173.04423209337088L750.5132363636363,173.13409434832062L751.1339636363637,173.79189276695251L752.9936,174.71093779343826L753.6164363636364,174.22712478270898L754.2380363636364,174.2385526437026L756.7455272727273,174.05399520580588L757.3651636363636,174.44920453658472L758.6045090909091,174.40087525661178L759.2247272727273,173.95945105185876L759.8451636363637,174.5032057945545L760.4655272727274,174.5761360205137L761.7191272727273,173.93392715087305L763.0520727272727,173.8176683829381L763.8536,173.69298555300787L764.5172363636362,174.00111827483545L772.8910545454545,165.03184158985434L773.5155636363636,181.47139857365534L774.1415272727272,178.54695692429178L774.7672727272727,175.4023317740514L775.3918545454546,173.59255126806406L776.0173818181819,172.9755642414093L776.6431272727274,171.32834128233102L777.2694545454546,172.35171378575842L779.146109090909,173.48033672112686L779.7709090909092,173.44731171314535L781.021090909091,173.44242844214807L782.2722181818182,173.81161044194147L782.8975272727272,173.89618668189416L783.5227636363636,173.64638471603394L784.1482909090909,173.84282310192404L785.5043636363636,172.79239962651178L786.2274181818182,172.99806756239673L786.906909090909,172.29348371579096L787.5330909090909,172.56567153563867L788.1552727272726,172.41687440872192L788.7800727272728,172.29336624879105L789.4025454545455,172.57961654663086L790.0256,172.88600404445944L791.8987636363636,172.77031583052417L792.5213090909091,172.77702823052041L793.7686545454546,172.12626105088455L794.3925818181818,172.20093650084277L795.0176727272727,172.1226195738866L803.0782545454546,155.1868987633632L804.3297454545454,169.08017393258902L805.7811636363635,165.0562411638407L806.4735272727272,164.40117804820724L807.1345454545454,163.26055669784546L807.8628363636363,163.98700618743896L808.498909090909,163.1677745488974L809.160290909091,162.92587643403274L809.8706909090909,163.65939072462228L810.5005818181819,163.40343013176553L811.7542545454546,164.44675524418173L812.3835636363636,164.64913410406848L813.0112,164.30446914526132L814.2685090909091,164.17028826933642L815.5241454545454,164.71501631003161L816.1549818181818,165.01890343886157L816.7826909090909,165.5513981305636L817.4094545454545,165.8584233063918L818.0368000000001,165.80435492442206L818.6670545454544,166.07169303527246L819.9213090909091,166.35656729111307L820.5518545454545,166.66412945894095L821.1802181818182,166.91292456480173L822.4343999999999,167.30152218158432L823.0652363636364,167.29199057358963L824.3199999999999,167.46330780249377L833.3495272727273,164.0776068063883L834.6017454545454,166.1312823662391L835.2239272727272,163.1064064319317L835.8480727272727,162.09041756850024L837.7261818181818,162.05702337851892L838.3542545454546,161.74815229269174L839.6045090909091,161.87238203562225L840.2304727272726,162.82472056608935L841.474909090909,163.55791601767908L842.0979636363636,163.83408093452454L842.7229818181818,163.79253117854782L843.9677818181817,163.95208492645853L844.5920727272728,163.73394870758057L846.4597090909091,164.53394932013293L847.0850181818182,164.6305407560789L848.3289454545454,164.52983797513525L848.9535272727272,164.66341473506048L849.5759999999999,164.8683610879458L850.1989090909092,164.817984525974L851.4458181818181,164.76948743600113L852.068,165.20015501976013L852.689890909091,165.28108978271484L853.3147636363635,164.9773704638848L854.5591272727273,165.03657383185168L863.1237090909091,149.52240509253284L864.3669090909091,152.6725511917701L864.986690909091,153.38319297937247L865.6072727272727,153.25204946444586L866.2271272727273,153.17025887049164L866.8493818181819,153.53853469628555L869.3433454545454,157.36945240314193L870.0834181818183,156.7699008354774L870.7513454545455,157.83911903087912L871.4455272727273,157.8734361758599L873.313890909091,158.63710592343256L873.9337454545455,158.0196322477781L874.5559272727272,157.817874284891L875.1761454545455,157.93003848882822L875.7964363636363,158.17814557368942L876.4190545454546,158.06645123775192L877.0390545454545,158.2913166376261L877.6597818181818,158.77709302535425L878.2793454545455,159.2981262940627L878.9012363636364,159.06960263619058L880.1414545454545,159.2502333200895L880.7626181818182,159.89084799473105L881.384290909091,160.25217648652884L882.0046545454545,159.9895538366758L882.6242909090909,160.1046882776114L883.2469090909091,160.2903364805075L883.8673454545456,160.35420496647177L892.5642181818182,160.5576745913579L893.3109818181817,152.06601872810953L893.9429818181818,154.34414016283478L894.5950545454546,153.32516428140494L895.2292363636363,152.39318110392645L895.8636363636364,154.02481451401346L897.1102545454546,155.77005529403687L897.7362909090909,155.95192777193512L900.2484363636363,156.62521505355835L900.8711999999999,156.43421371166525L902.1206545454546,155.78874932802643L902.7435636363637,155.33586370027984L903.3672,155.03091936845047L903.992,155.17016810637256L904.6149090909091,154.9096598625183L905.2373090909091,154.95409595049347L905.8598545454545,155.369526386261L907.1083636363636,155.91576471695535L907.7317818181817,156.09605978085443L908.3568,156.16417385981634L908.9797090909091,156.83526283044083L910.2261090909091,156.64172755754913L910.850909090909,156.21124456478998L911.4744727272728,156.1837237248054L912.0970181818182,156.49160473163315L912.7225454545454,156.976156106362L913.3454545454546,157.0320703983307L924.4578909090909,147.2155042428237L925.0861818181818,149.81441127336944L925.7109818181818,151.4304047914652L926.3364363636363,149.63963715846725L926.9643636363636,150.26348761411813L929.7470545454545,149.41784268159134L931.8854545454545,148.31442480820877L932.5144,149.03357456280634L933.7696,149.54761015451874L935.6498909090909,149.95715045928955L936.3089454545456,149.97842876727768L937.5806545454544,150.6039908849276L938.2065454545454,150.82630557280322L938.8311272727274,151.45795919344977L939.4589090909091,151.7579531302819L940.7097454545454,151.33037325052115L941.3348363636364,151.35452110950766L941.9642181818182,151.0325105006878L942.5906181818183,150.85980044878448L943.216,150.9729379507212L943.8439272727272,150.72424353086035L944.4696,150.91920518875122L952.4302545454545,171.9081416130066L953.0590545454545,147.2695894057934L954.4008,148.94888085585376L955.046909090909,146.01395108149603L956.432,146.88540519200842L957.7362181818182,146.20178081439093L958.3613818181818,146.24146787936874L959.6060363636363,145.90453896155725L960.8540363636364,145.0541450060331L961.4764363636363,145.42748869382422L962.0988363636363,145.50629226978012L962.724290909091,145.88708672156702L964.5941090909091,145.62906206571142L965.2168727272727,144.9058345281161L965.8392,144.7978655741765L966.4614545454546,145.2271235539363L967.7094545454546,145.01667303305408L968.332290909091,144.596845975289L968.9578909090909,145.20856376794669L969.5798545454545,145.518911581773L970.2021818181818,145.1818651969616L973.3192,145.37967962485095L973.9413818181818,145.7554229956407L982.5063272727273,127.03683840311493L983.1258909090909,127.13143290006201L984.3754181818181,137.53414260424103L984.9953454545455,136.27823578394379L985.6151272727272,137.88788608404306L986.2391272727273,136.51061907181375L987.4787636363637,135.74293866524332L988.0987636363636,135.53893204835748L988.721309090909,134.77457427978516L989.9618181818181,135.00314828065729L990.5838545454546,134.35436125902032L991.2041454545454,135.90163658215448L991.8243636363637,136.56223742778488L993.0679272727273,136.92754301658044L993.6878545454545,137.36126474233774L994.9324363636365,138.04218737895675L996.7930181818181,138.67164268860452L998.0361454545454,138.51589822769165L998.656509090909,138.84515822850744L999.2796363636363,138.5971686106462L999.9002909090908,138.7453112785633L1001.1402181818181,138.76556594555197L1002.3818181818181,138.8424732685089L1003.0019636363637,139.1726394433242L1003.6254545454545,139.31549609624426L1004.2462545454546,139.55289690311142L1011.9922181818182,139.14028567534228L1012.6180363636364,137.22822497441217L1013.241090909091,132.9800644837893L1013.8636363636364,134.46488092495844L1014.4861818181819,134.6007902438824L1016.3576,136.03934146807745L1016.9833454545454,134.84809184074402L1017.6064,135.12382045158975L1020.7237818181818,134.6857356658349L1021.3488,134.6465855928568L1021.9715636363636,134.82943136875448L1022.5945454545455,134.9200319877038L1023.8439999999999,135.2273256595318L1024.4662545454546,134.91365520770736L1025.0886545454546,134.79865501477167L1025.7140363636363,134.74317702880273L1026.3366545454544,134.9287581076989L1029.4528727272727,135.44589818440954L1030.079490909091,135.30859604248636L1030.7021818181818,135.3650137644548L1031.3253818181818,135.5294004403628L1031.948509090909,135.6121811133165L1032.5743272727273,135.67116632828348L1033.820218181818,135.13425823358392L1041.575709090909,129.4952381207393L1042.2008,128.00124247257529L1042.8252363636363,125.92756396073563L1043.4536,129.99323107646063L1044.0783272727274,129.10766414495615L1044.704218181818,128.29514490641083L1045.3317090909093,125.87616375776437L1045.9564363636364,126.23905288256134L1047.2072,125.59605530592111L1047.8362181818181,124.92392591329721L1048.4615999999999,125.12818424518295L1049.0868363636364,125.17569125615637L1049.7148363636363,124.75812963338998L1050.34,124.41621675858133L1050.9649454545454,123.61438701702997L1052.2184,124.49565801253686L1053.4686545454547,124.13859189473669L1054.7222545454545,124.32019587663507L1055.348,124.24736633667581L1055.9763636363637,124.32549867263208L1057.2274181818182,124.73757290840149L1058.4804363636363,125.45499422000006L1059.1051636363636,125.43203781201288L1060.3578181818182,125.95971635671762L1061.6083636363637,126.22611473156854L1062.2336727272727,126.35984252049371L1062.8620363636364,126.8444442382226L1071.237090909091,110.88853245515091L1073.105090909091,109.57887609188373L1073.730690909091,110.53109715535089L1075.5991999999999,111.9786933385409L1076.2231272727272,111.91406970757706L1076.8451636363636,111.52429742079516L1078.7155636363636,110.33571597246026L1080.5854545454545,110.59748279131378L1081.2078545454547,111.02088420207687L1081.8303272727273,111.54289076878473L1082.4556363636364,111.6252015737387L1083.0782545454545,111.9465577235589L1083.7004363636363,112.72907253412103L1084.3247272727274,112.99149381197418L1084.9487272727272,113.22615931584284L1085.5709818181817,113.5598998436561L1086.1935272727274,113.97212510842544L1087.441309090909,114.52067921711847L1088.0638545454544,115.1229325257815L1088.6873454545455,115.3702844656431L1090.5562909090909,115.97248743130609L1091.1821818181818,116.19886312117944L1092.4272,116.92024474877579L1100.177818181818,89.26032383625324L1100.798109090909,101.26298442253704L1101.418181818182,101.31413291050836L1102.6608727272728,101.0696673026452L1103.2806545454546,101.66019069231476L1104.524290909091,103.54879155525799L1105.1446545454546,105.04725094941949L1105.764509090909,106.48284871761615L1106.3874181818182,106.4556299356314L1107.0080727272727,107.02440514931317L1107.6292363636362,107.71979300792401L1108.249381818182,107.19610834121704L1108.8722181818182,107.08592429527874L1109.4924363636364,106.98582563033472L1110.1118545454547,107.5657602090102L1110.735709090909,107.91361355781555L1111.3557090909092,108.19618881665747L1111.9758545454545,108.57255308444684L1112.596,108.36990572856024L1113.838981818182,108.8951678092663L1114.4587636363635,108.93774120624249L1115.0808,108.96365107022802L1115.7014545454545,108.83692095829889L1116.9418181818182,109.41074725297784L1117.6056,109.45921078095074L1120.2982545454545,109.82919826874371L1122.162618181818,109.94366146967963L1131.1712727272727,96.4635177392226L1131.7945454545454,95.12868987596954L1132.4172363636364,94.20516432248633L1133.0397090909091,92.75203040929944L1134.289381818182,93.67522034278284L1134.9157818181818,93.86744669767529L1135.5442181818182,93.54847344985376L1136.1694545454545,92.96137338418225L1136.7952,93.37200445395251L1138.0481454545454,94.57102368428156L1138.673090909091,95.14283625896161L1139.298690909091,95.83025314257696L1139.9252363636363,97.01145095091601L1140.5477818181819,97.60449149058417L1141.1707636363637,97.84516459244946L1141.7932363636362,98.57607782804052L1142.4189818181817,99.04616398077746L1143.0420363636363,99.16740670570965L1143.6658181818182,99.61769127845764L1144.290690909091,99.49446839552661L1145.5374545454545,99.94151423527643L1146.160509090909,99.92832436928387L1147.4088000000002,100.17133003014783L1148.031490909091,100.20705677912787L1148.6576727272727,100.4573286129878L1149.9042181818181,100.93929571371814L1150.5269818181819,101.04171015666083L1151.1521454545455,101.59316737835223L1159.0115636363637,93.8461516086872L1159.8656727272728,91.49884211100067L1160.6537454545455,83.01248904374927L1163.6495272727273,86.24716103993933L1164.9058909090909,85.82377641017621L1166.7814545454544,85.92060278012201L1167.4208,85.7719734632052L1168.6711272727273,86.17241846598114L1169.2965818181817,85.8100159901839L1169.9224,86.0986659710224L1171.1740363636363,86.88399998958295L1171.8633454545454,87.12744195644672L1172.4890181818182,87.38150629630456L1173.138109090909,87.71038033412054L1173.7640000000001,88.16514543386609L1174.3899636363635,88.07140676791852L1175.0161454545455,87.81135161106403L1175.6423272727272,87.67497242414038L1176.2682181818182,88.12507240588849L1176.935490909091,88.66558841558606L1178.2568,89.77378887396594L1178.8846545454544,90.35110561664288L1179.5102545454547,90.90615397233228L1180.7622545454544,91.06278782624463L1181.3880727272729,91.34615179208612L1182.0139636363635,91.50835693799536L1189.9903272727274,81.00096735587482L1190.6151272727272,88.29311733979443L1191.2376,85.56311713732208L1192.4860363636362,85.77690707720245L1193.1088,85.63690319428082L1193.734909090909,85.85129725016083L1194.4069818181817,84.24527164605945L1195.1548363636364,83.27261132460376L1195.954909090909,83.86112099427442L1196.668290909091,84.40816481296832L1198.023709090909,83.98511580320502L1198.782909090909,84.1276536171253L1199.5396363636364,83.76996660232544L1200.2631272727274,83.50819978347187L1201.0280727272727,83.29226187559271L1201.6816000000001,83.44319018950824L1202.3319999999999,83.35374745955829L1202.9722181818183,83.6705223963811L1203.6224727272727,83.81525852130011L1205.126690909091,84.24688262205859L1205.7498181818182,84.86269497871399L1207.0027636363636,85.39515610841607L1209.7225454545455,85.63294287828302L1210.4713454545454,85.67912419025714L1211.9427636363637,85.99161997208233L1212.6323636363636,85.88933977713953L1213.3374545454546,86.22620157095105L1222.2800727272727,77.94407327358539L1223.6279272727272,74.67439611141498L1224.2616727272728,74.02087684778064L1224.9420363636364,72.61553522256702L1226.3194181818183,73.7702190509209L1226.9739636363636,73.76139224492584L1227.5961454545454,73.98640867379993L1228.2160727272728,74.6178944844466L1229.459781818182,74.8185113393343L1230.0794181818183,74.74553077037518L1230.702909090909,75.22910884710456L1231.3229818181817,75.30782851806049L1231.9435636363637,75.36622639802783L1233.1869090909092,76.04332296664899L1233.811490909091,76.216586791552L1234.4335272727271,76.54757523536682L1235.7588363636364,77.48316632784326L1236.4143272727272,77.56712167079633L1238.3732363636364,77.77668279867908L1239.6144727272729,78.16330025746271L1240.2346181818182,78.30934530038098L1241.4754181818182,78.33087532336896L1242.095490909091,78.58891676022455L1242.7447272727272,78.64207896819477L1243.3691636363637,78.62502947220435L1244.0033454545455,78.69245553016663L1252.770690909091,56.30769230769232L1253.4252363636363,71.57799955514758L1254.0839272727274,71.53574499717121L1255.4268363636363,67.62189558836127L1256.1731636363636,67.84937882423401L1256.9047272727273,67.27941215955292L1257.5705454545455,67.21874884458686L1258.3287272727273,66.61824075992291L1259.0429818181817,66.78396991583014L1259.7556363636363,66.77170300483704L1261.2008,66.87547670877893L1261.8799272727274,66.86576050978442L1262.5067636363638,66.83245022480304L1263.1322181818182,67.66394877433777L1263.7557818181817,67.59006203137909L1264.378909090909,67.54539100940411L1266.4226181818183,67.73221388229956L1267.725309090909,68.3352223359621L1268.3485090909091,68.74414174373334L1269.0110545454545,69.03364755557135L1269.7570181818182,69.60156693825354L1270.5444363636364,69.5821345402644L1271.3375272727274,69.82601281312793L1272.1504727272727,70.0991571499751L1272.9128,70.27972070987408L1273.6914909090908,70.51599718974188L1274.4616727272728,70.73747282761792L1276.3785454545455,71.53029117217426L1277.0018181818182,71.82852310400744L1286.007709090909,65.44732970457812L1286.6334545454545,64.69995430799628L1287.258690909091,65.3557054446294L1287.8848727272728,65.5809568075033L1288.5104727272728,65.96952086228589L1289.136,65.67446053945099L1290.3922181818182,65.6689060284541L1291.0190545454545,65.58823976149921L1291.645309090909,65.77229376939624L1292.8993454545455,65.93652941630438L1293.558109090909,66.05500327623804L1294.2987636363637,66.02763346525336L1295.5949818181819,66.01115452326258L1296.2814545454546,66.17983713516821L1296.9895272727272,66.06869657223041L1298.3410181818183,66.17010415517365L1298.9667636363638,66.33598434008081L1299.5952,66.39495277404785L1300.846109090909,66.49174558199365L1301.473309090909,66.63790809191187L1302.7240727272729,66.63154809291547L1303.3488,66.46162368701056L1303.976509090909,66.42730654202973L1304.601672727273,66.50819096198444L1305.2272727272727,66.79205835782562L1305.8654545454544,66.97824355272144L1307.1157818181816,67.17431275661176L1315.4026181818183,67.45192083945636L1317.5400727272727,62.387079422290526L1318.8329454545456,63.08031931290259L1320.8048,65.67207763745233L1323.3055272727274,65.62764154947718L1326.4345454545455,65.3660593216236L1328.3088727272727,64.82821149092456L1328.932509090909,64.70315947899451L1329.5547636363635,64.94913537685687L1330.1842909090908,64.9083072038797L1330.8073454545454,65.07066337878888L1331.4306181818183,65.1143611027644L1332.682618181818,65.22835443570062L1333.3057454545456,65.181166263727L1334.5568727272728,65.50654985354498L1335.18,65.67199373245239L1336.4265454545455,66.03553731624896L1337.0562909090909,66.24961253312915L1337.6795636363636,66.30218740609973" style="fill: none;" fill="none"></path></g></g></g></g></g></g><g transform="translate(58, 366)" clip-path="url(#clip_1)"><clipPath id="clip_1"><rect width="1440" height="34"></rect></clipPath><g><g visibility="inherit"><g><g transform="translate(0,0)" style="visibility: inherit;"><text transform="translate(3,14)" style="text-anchor: start; font-family: &quot;Helvetica Neue&quot;, sans-serif; font-size: 12px; font-weight: 200;" fill="rgb(50, 49, 63)" stroke="none" stroke-width="1px">12:30 PM</text></g><g transform="translate(130.9090909090909,0)" style="visibility: inherit;"><text transform="translate(3,14)" style="text-anchor: start; font-family: &quot;Helvetica Neue&quot;, sans-serif; font-size: 12px; font-weight: 200;" fill="rgb(50, 49, 63)" stroke="none" stroke-width="1px">01:00 PM</text></g><g transform="translate(261.8181818181818,0)" style="visibility: inherit;"><text transform="translate(3,14)" style="text-anchor: start; font-family: &quot;Helvetica Neue&quot;, sans-serif; font-size: 12px; font-weight: 200;" fill="rgb(50, 49, 63)" stroke="none" stroke-width="1px">01:30 PM</text></g><g transform="translate(392.7272727272727,0)" style="visibility: inherit;"><text transform="translate(3,14)" style="text-anchor: start; font-family: &quot;Helvetica Neue&quot;, sans-serif; font-size: 12px; font-weight: 200;" fill="rgb(50, 49, 63)" stroke="none" stroke-width="1px">02:00 PM</text></g><g transform="translate(523.6363636363636,0)" style="visibility: inherit;"><text transform="translate(3,14)" style="text-anchor: start; font-family: &quot;Helvetica Neue&quot;, sans-serif; font-size: 12px; font-weight: 200;" fill="rgb(50, 49, 63)" stroke="none" stroke-width="1px">02:30 PM</text></g><g transform="translate(654.5454545454545,0)" style="visibility: inherit;"><text transform="translate(3,14)" style="text-anchor: start; font-family: &quot;Helvetica Neue&quot;, sans-serif; font-size: 12px; font-weight: 200;" fill="rgb(50, 49, 63)" stroke="none" stroke-width="1px">03:00 PM</text></g><g transform="translate(785.4545454545454,0)" style="visibility: inherit;"><text transform="translate(3,14)" style="text-anchor: start; font-family: &quot;Helvetica Neue&quot;, sans-serif; font-size: 12px; font-weight: 200;" fill="rgb(50, 49, 63)" stroke="none" stroke-width="1px">03:30 PM</text></g><g transform="translate(916.3636363636364,0)" style="visibility: inherit;"><text transform="translate(3,14)" style="text-anchor: start; font-family: &quot;Helvetica Neue&quot;, sans-serif; font-size: 12px; font-weight: 200;" fill="rgb(50, 49, 63)" stroke="none" stroke-width="1px">04:00 PM</text></g><g transform="translate(1047.2727272727273,0)" style="visibility: inherit;"><text transform="translate(3,14)" style="text-anchor: start; font-family: &quot;Helvetica Neue&quot;, sans-serif; font-size: 12px; font-weight: 200;" fill="rgb(50, 49, 63)" stroke="none" stroke-width="1px">04:30 PM</text></g><g transform="translate(1178.1818181818182,0)" style="visibility: inherit;"><text transform="translate(3,14)" style="text-anchor: start; font-family: &quot;Helvetica Neue&quot;, sans-serif; font-size: 12px; font-weight: 200;" fill="rgb(50, 49, 63)" stroke="none" stroke-width="1px">05:00 PM</text></g><g transform="translate(1309.090909090909,0)" style="visibility: inherit;"><text transform="translate(3,14)" style="text-anchor: start; font-family: &quot;Helvetica Neue&quot;, sans-serif; font-size: 12px; font-weight: 200;" fill="rgb(50, 49, 63)" stroke="none" stroke-width="1px">05:30 PM</text></g><g transform="translate(1440,0)" style="visibility: hidden;"><text transform="translate(3,14)" style="text-anchor: start; font-family: &quot;Helvetica Neue&quot;, sans-serif; font-size: 12px; font-weight: 200;" fill="rgb(50, 49, 63)" stroke="none" stroke-width="1px">06:00 PM</text></g></g><g><line x1="0" y1="0" x2="0" y2="17" fill="rgb(0, 0, 0)" stroke="rgb(204, 204, 204)" stroke-width="1px"></line><line x1="130.9090909090909" y1="0" x2="130.9090909090909" y2="17" fill="rgb(0, 0, 0)" stroke="rgb(204, 204, 204)" stroke-width="1px"></line><line x1="261.8181818181818" y1="0" x2="261.8181818181818" y2="17" fill="rgb(0, 0, 0)" stroke="rgb(204, 204, 204)" stroke-width="1px"></line><line x1="392.7272727272727" y1="0" x2="392.7272727272727" y2="17" fill="rgb(0, 0, 0)" stroke="rgb(204, 204, 204)" stroke-width="1px"></line><line x1="523.6363636363636" y1="0" x2="523.6363636363636" y2="17" fill="rgb(0, 0, 0)" stroke="rgb(204, 204, 204)" stroke-width="1px"></line><line x1="654.5454545454545" y1="0" x2="654.5454545454545" y2="17" fill="rgb(0, 0, 0)" stroke="rgb(204, 204, 204)" stroke-width="1px"></line><line x1="785.4545454545454" y1="0" x2="785.4545454545454" y2="17" fill="rgb(0, 0, 0)" stroke="rgb(204, 204, 204)" stroke-width="1px"></line><line x1="916.3636363636364" y1="0" x2="916.3636363636364" y2="17" fill="rgb(0, 0, 0)" stroke="rgb(204, 204, 204)" stroke-width="1px"></line><line x1="1047.2727272727273" y1="0" x2="1047.2727272727273" y2="17" fill="rgb(0, 0, 0)" stroke="rgb(204, 204, 204)" stroke-width="1px"></line><line x1="1178.1818181818182" y1="0" x2="1178.1818181818182" y2="17" fill="rgb(0, 0, 0)" stroke="rgb(204, 204, 204)" stroke-width="1px"></line><line x1="1309.090909090909" y1="0" x2="1309.090909090909" y2="17" fill="rgb(0, 0, 0)" stroke="rgb(204, 204, 204)" stroke-width="1px"></line><line x1="1440" y1="0" x2="1440" y2="17" fill="rgb(0, 0, 0)" stroke="rgb(204, 204, 204)" stroke-width="1px"></line></g><line x1="0" y1="0" x2="1440" y2="0" style="visibility: inherit;" fill="rgb(0, 0, 0)" stroke="rgb(204, 204, 204)" stroke-width="1px"></line></g><g visibility="inherit"><g><g transform="translate(65.45454545454545,0)" style="visibility: inherit;"><text transform="translate(0,31)" style="text-anchor: middle; font-family: &quot;Helvetica Neue&quot;, sans-serif; font-size: 12px; font-weight: 200;" fill="rgb(50, 49, 63)" stroke="none" stroke-width="1px">March  9, 2020</text></g><g transform="translate(196.36363636363635,0)" style="visibility: inherit;"><text transform="translate(0,31)" style="text-anchor: middle; font-family: &quot;Helvetica Neue&quot;, sans-serif; font-size: 12px; font-weight: 200;" fill="rgb(50, 49, 63)" stroke="none" stroke-width="1px">March  9, 2020</text></g><g transform="translate(327.27272727272725,0)" style="visibility: inherit;"><text transform="translate(0,31)" style="text-anchor: middle; font-family: &quot;Helvetica Neue&quot;, sans-serif; font-size: 12px; font-weight: 200;" fill="rgb(50, 49, 63)" stroke="none" stroke-width="1px">March  9, 2020</text></g><g transform="translate(458.1818181818182,0)" style="visibility: inherit;"><text transform="translate(0,31)" style="text-anchor: middle; font-family: &quot;Helvetica Neue&quot;, sans-serif; font-size: 12px; font-weight: 200;" fill="rgb(50, 49, 63)" stroke="none" stroke-width="1px">March  9, 2020</text></g><g transform="translate(589.0909090909091,0)" style="visibility: inherit;"><text transform="translate(0,31)" style="text-anchor: middle; font-family: &quot;Helvetica Neue&quot;, sans-serif; font-size: 12px; font-weight: 200;" fill="rgb(50, 49, 63)" stroke="none" stroke-width="1px">March  9, 2020</text></g><g transform="translate(720,0)" style="visibility: inherit;"><text transform="translate(0,31)" style="text-anchor: middle; font-family: &quot;Helvetica Neue&quot;, sans-serif; font-size: 12px; font-weight: 200;" fill="rgb(50, 49, 63)" stroke="none" stroke-width="1px">March  9, 2020</text></g><g transform="translate(850.909090909091,0)" style="visibility: inherit;"><text transform="translate(0,31)" style="text-anchor: middle; font-family: &quot;Helvetica Neue&quot;, sans-serif; font-size: 12px; font-weight: 200;" fill="rgb(50, 49, 63)" stroke="none" stroke-width="1px">March  9, 2020</text></g><g transform="translate(981.8181818181818,0)" style="visibility: inherit;"><text transform="translate(0,31)" style="text-anchor: middle; font-family: &quot;Helvetica Neue&quot;, sans-serif; font-size: 12px; font-weight: 200;" fill="rgb(50, 49, 63)" stroke="none" stroke-width="1px">March  9, 2020</text></g><g transform="translate(1112.7272727272727,0)" style="visibility: inherit;"><text transform="translate(0,31)" style="text-anchor: middle; font-family: &quot;Helvetica Neue&quot;, sans-serif; font-size: 12px; font-weight: 200;" fill="rgb(50, 49, 63)" stroke="none" stroke-width="1px">March  9, 2020</text></g><g transform="translate(1243.6363636363637,0)" style="visibility: inherit;"><text transform="translate(0,31)" style="text-anchor: middle; font-family: &quot;Helvetica Neue&quot;, sans-serif; font-size: 12px; font-weight: 200;" fill="rgb(50, 49, 63)" stroke="none" stroke-width="1px">March  9, 2020</text></g><g transform="translate(1374.5454545454545,0)" style="visibility: inherit;"><text transform="translate(0,31)" style="text-anchor: middle; font-family: &quot;Helvetica Neue&quot;, sans-serif; font-size: 12px; font-weight: 200;" fill="rgb(50, 49, 63)" stroke="none" stroke-width="1px">March  9, 2020</text></g></g><g><line x1="0" y1="17" x2="0" y2="34" fill="rgb(0, 0, 0)" stroke="rgb(204, 204, 204)" stroke-width="1px"></line><line x1="130.9090909090909" y1="17" x2="130.9090909090909" y2="34" fill="rgb(0, 0, 0)" stroke="rgb(204, 204, 204)" stroke-width="1px"></line><line x1="261.8181818181818" y1="17" x2="261.8181818181818" y2="34" fill="rgb(0, 0, 0)" stroke="rgb(204, 204, 204)" stroke-width="1px"></line><line x1="392.7272727272727" y1="17" x2="392.7272727272727" y2="34" fill="rgb(0, 0, 0)" stroke="rgb(204, 204, 204)" stroke-width="1px"></line><line x1="523.6363636363636" y1="17" x2="523.6363636363636" y2="34" fill="rgb(0, 0, 0)" stroke="rgb(204, 204, 204)" stroke-width="1px"></line><line x1="654.5454545454545" y1="17" x2="654.5454545454545" y2="34" fill="rgb(0, 0, 0)" stroke="rgb(204, 204, 204)" stroke-width="1px"></line><line x1="785.4545454545454" y1="17" x2="785.4545454545454" y2="34" fill="rgb(0, 0, 0)" stroke="rgb(204, 204, 204)" stroke-width="1px"></line><line x1="916.3636363636364" y1="17" x2="916.3636363636364" y2="34" fill="rgb(0, 0, 0)" stroke="rgb(204, 204, 204)" stroke-width="1px"></line><line x1="1047.2727272727273" y1="17" x2="1047.2727272727273" y2="34" fill="rgb(0, 0, 0)" stroke="rgb(204, 204, 204)" stroke-width="1px"></line><line x1="1178.1818181818182" y1="17" x2="1178.1818181818182" y2="34" fill="rgb(0, 0, 0)" stroke="rgb(204, 204, 204)" stroke-width="1px"></line><line x1="1309.090909090909" y1="17" x2="1309.090909090909" y2="34" fill="rgb(0, 0, 0)" stroke="rgb(204, 204, 204)" stroke-width="1px"></line><line x1="1440" y1="17" x2="1440" y2="34" fill="rgb(0, 0, 0)" stroke="rgb(204, 204, 204)" stroke-width="1px"></line></g><line x1="0" y1="17" x2="1440" y2="17" style="visibility: inherit;" fill="rgb(0, 0, 0)" stroke="rgb(204, 204, 204)" stroke-width="1px"></line></g></g></g></g></g></svg>