<svg viewBox="0 0 1498 400" xmlns="http://www.w3.org/2000/svg"><g><g><g><g><g><line x1="58" y1="366" x2="53" y2="366" style="visibility: inherit;" fill="rgb(0, 0, 0)" stroke="rgb(204, 204, 204)" stroke-width="1px"></line><line x1="58" y1="337.84615384615387" x2="53" y2="337.84615384615387" style="visibility: inherit;" fill="rgb(0, 0, 0)" stroke="rgb(204, 204, 204)" stroke-width="1px"></line><line x1="58" y1="309.6923076923077" x2="53" y2="309.6923076923077" style="visibility: inherit;" fill="rgb(0, 0, 0)" stroke="rgb(204, 204, 204)" stroke-width="1px"></line><line x1="58" y1="281.53846153846155" x2="53" y2="281.53846153846155" style="visibility: inherit;" fill="rgb(0, 0, 0)" stroke="rgb(204, 204, 204)" stroke-width="1px"></line><line x1="58" y1="253.38461538461536" x2="53" y2="253.38461538461536" style="visibility: inherit;" fill="rgb(0, 0, 0)" stroke="rgb(204, 204, 204)" stroke-width="1px"></line><line x1="58" y1="225.23076923076925" x2="53" y2="225.23076923076925" style="visibility: inherit;" fill="rgb(0, 0, 0)" stroke="rgb(204, 204, 204)" stroke-width="1px"></line><line x1="58" y1="197.0769230769231" x2="53" y2="197.0769230769231" style="visibility: inherit;" fill="rgb(0, 0, 0)" stroke="rgb(204, 204, 204)" stroke-width="1px"></line><line x1="58" y1="168.92307692307693" x2="53" y2="168.92307692307693" style="visibility: inherit;" fill="rgb(0, 0, 0)" stroke="rgb(204, 204, 204)" stroke-width="1px"></line><line x1="58" y1="140.7692307692308" x2="53" y2="140.7692307692308" style="visibility: inherit;" fill="rgb(0, 0, 0)" stroke="rgb(204, 204, 204)" stroke-width="1px"></line><line x1="58" y1="112.61538461538461" x2="53" y2="112.61538461538461" style="visibility: inherit;" fill="rgb(0, 0, 0)" stroke="rgb(204, 204, 204)" stroke-width="1px"></line><line x1="58" y1="84.46153846153851" x2="53" y2="84.46153846153851" style="visibility: inherit;" fill="rgb(0, 0, 0)" stroke="rgb(204, 204, 204)" stroke-width="1px"></line><line x1="58" y1="56.30769230769232" x2="53" y2="56.30769230769232" style="visibility: inherit;" fill="rgb(0, 0, 0)" stroke="rgb(204, 204, 204)" stroke-width="1px"></line><line x1="58" y1="28.153846153846132" x2="53" y2="28.153846153846132" style="visibility: inherit;" fill="rgb(0, 0, 0)" stroke="rgb(204, 204, 204)" stroke-width="1px"></line><line x1="58" y1="0" x2="53" y2="0" style="visibility: inherit;" fill="rgb(0, 0, 0)" stroke="rgb(204, 204, 204)" stroke-width="1px"></line></g><g transform="translate(48, 0)"><text x="0" y="366" dx="0em" dy="0.3em" style="text-anchor: end; visibility: hidden; font-family: &quot;Helvetica Neue&quot;, sans-serif; font-size: 12px; font-weight: 200;" fill="rgb(50, 49, 63)" stroke="none" stroke-width="1px">-0.1</text><text x="0" y="337.84615384615387" dx="0em" dy="0.3em" style="text-anchor: end; visibility: inherit; font-family: &quot;Helvetica Neue&quot;, sans-serif; font-size: 12px; font-weight: 200;" fill="rgb(50, 49, 63)" stroke="none" stroke-width="1px">0</text><text x="0" y="309.6923076923077" dx="0em" dy="0.3em" style="text-anchor: end; visibility: inherit; font-family: &quot;Helvetica Neue&quot;, sans-serif; font-size: 12px; font-weight: 200;" fill="rgb(50, 49, 63)" stroke="none" stroke-width="1px">0.1</text><text x="0" y="281.53846153846155" dx="0em" dy="0.3em" style="text-anchor: end; visibility: inherit; font-family: &quot;Helvetica Neue&quot;, sans-serif; font-size: 12px; font-weight: 200;" fill="rgb(50, 49, 63)" stroke="none" stroke-width="1px">0.2</text><text x="0" y="253.38461538461536" dx="0em" dy="0.3em" style="text-anchor: end; visibility: inherit; font-family: &quot;Helvetica Neue&quot;, sans-serif; font-size: 12px; font-weight: 200;" fill="rgb(50, 49, 63)" stroke="none" stroke-width="1px">0.3</text><text x="0" y="225.23076923076925" dx="0em" dy="0.3em" style="text-anchor: end; visibility: inherit; font-family: &quot;Helvetica Neue&quot;, sans-serif; font-size: 12px; font-weight: 200;" fill="rgb(50, 49, 63)" stroke="none" stroke-width="1px">0.4</text><text x="0" y="197.0769230769231" dx="0em" dy="0.3em" style="text-anchor: end; visibility: inherit; font-family: &quot;Helvetica Neue&quot;, sans-serif; font-size: 12px; font-weight: 200;" fill="rgb(50, 49, 63)" stroke="none" stroke-width="1px">0.5</text><text x="0" y="168.92307692307693" dx="0em" dy="0.3em" style="text-anchor: end; visibility: inherit; font-family: &quot;Helvetica Neue&quot;, sans-serif; font-size: 12px; font-weight: 200;" fill="rgb(50, 49, 63)" stroke="none" stroke-width="1px">0.6</text><text x="0" y="140.7692307692308" dx="0em" dy="0.3em" style="text-anchor: end; visibility: inherit; font-family: &quot;Helvetica Neue&quot;, sans-serif; font-size: 12px; font-weight: 200;" fill="rgb(50, 49, 63)" stroke="none" stroke-width="1px">0.7</text><text x="0" y="112.61538461538461" dx="0em" dy="0.3em" style="text-anchor: end; visibility: inherit; font-family: &quot;Helvetica Neue&quot;, sans-serif; font-size: 12px; font-weight: 200;" fill="rgb(50, 49, 63)" stroke="none" stroke-width="1px">0.8</text><text x="0" y="84.46153846153851" dx="0em" dy="0.3em" style="text-anchor: end; visibility: inherit; font-family: &quot;Helvetica Neue&quot;, sans-serif; font-size: 12px; font-weight: 200;" fill="rgb(50, 49, 63)" stroke="none" stroke-width="1px">0.9</text><text x="0" y="56.30769230769232" dx="0em" dy="0.3em" style="text-anchor: end; visibility: inherit; font-family: &quot;Helvetica Neue&quot;, sans-serif; font-size: 12px; font-weight: 200;" fill="rgb(50, 49, 63)" stroke="none" stroke-width="1px">1</text><text x="0" y="28.153846153846132" dx="0em" dy="0.3em" style="text-anchor: end; visibility: inherit; font-family: &quot;Helvetica Neue&quot;, sans-serif; font-size: 12px; font-weight: 200;" fill="rgb(50, 49, 63)" stroke="none" stroke-width="1px">1.1</text><text x="0" y="0" dx="0em" dy="0.3em" style="text-anchor: end; visibility: hidden; font-family: &quot;Helvetica Neue&quot;, sans-serif; font-size: 12px; font-weight: 200;" fill="rgb(50, 49, 63)" stroke="none" stroke-width="1px">1.2</text></g><line x1="58" y1="0" x2="58" y2="366" fill="rgb(0, 0, 0)" stroke="rgb(204, 204, 204)" stroke-width="1px"></line></g></g><g transform="translate(58, 0)" clip-path="url(#clip_0)"><clipPath id="clip_0"><rect width="1440" height="366"></rect></clipPath><g><g><g><line x1="0" y1="0" x2="0" y2="366" fill="rgb(0, 0, 0)" stroke="rgb(60, 60, 60)" stroke-width="1px" opacity="0.25"></line><line x1="180" y1="0" x2="180" y2="366" fill="rgb(0, 0, 0)" stroke="rgb(60, 60, 60)" stroke-width="1px" opacity="0.25"></line><line x1="360" y1="0" x2="360" y2="366" fill="rgb(0, 0, 0)" stroke="rgb(60, 60, 60)" stroke-width="1px" opacity="0.25"></line><line x1="540" y1="0" x2="540" y2="366" fill="rgb(0, 0, 0)" stroke="rgb(60, 60, 60)" stroke-width="1px" opacity="0.25"></line><line x1="720" y1="0" x2="720" y2="366" fill="rgb(0, 0, 0)" stroke="rgb(60, 60, 60)" stroke-width="1px" opacity="0.25"></line><line x1="900" y1="0" x2="900" y2="366" fill="rgb(0, 0, 0)" stroke="rgb(60, 60, 60)" stroke-width="1px" opacity="0.25"></line><line x1="1080" y1="0" x2="1080" y2="366" fill="rgb(0, 0, 0)" stroke="rgb(60, 60, 60)" stroke-width="1px" opacity="0.25"></line><line x1="1260" y1="0" x2="1260" y2="366" fill="rgb(0, 0, 0)" stroke="rgb(60, 60, 60)" stroke-width="1px" opacity="0.25"></line><line x1="1440" y1="0" x2="1440" y2="366" fill="rgb(0, 0, 0)" stroke="rgb(60, 60, 60)" stroke-width="1px" opacity="0.25"></line></g><g><line x1="0" y1="366" x2="1440" y2="366" fill="rgb(0, 0, 0)" stroke="rgb(60, 60, 60)" stroke-width="1px" opacity="0.25"></line><line x1="0" y1="337.84615384615387" x2="1440" y2="337.84615384615387" fill="rgb(0, 0, 0)" stroke="rgb(60, 60, 60)" stroke-width="1px" opacity="0.25"></line><line x1="0" y1="309.6923076923077" x2="1440" y2="309.6923076923077" fill="rgb(0, 0, 0)" stroke="rgb(60, 60, 60)" stroke-width="1px" opacity="0.25"></line><line x1="0" y1="281.53846153846155" x2="1440" y2="281.53846153846155" fill="rgb(0, 0, 0)" stroke="rgb(60, 60, 60)" stroke-width="1px" opacity="0.25"></line><line x1="0" y1="253.38461538461536" x2="1440" y2="253.38461538461536" fill="rgb(0, 0, 0)" stroke="rgb(60, 60, 60)" stroke-width="1px" opacity="0.25"></line><line x1="0" y1="225.23076923076925" x2="1440" y2="225.23076923076925" fill="rgb(0, 0, 0)" stroke="rgb(60, 60, 60)" stroke-width="1px" opacity="0.25"></line><line x1="0" y1="197.0769230769231" x2="1440" y2="197.0769230769231" fill="rgb(0, 0, 0)" stroke="rgb(60, 60, 60)" stroke-width="1px" opacity="0.25"></line><line x1="0" y1="168.92307692307693" x2="1440" y2="168.92307692307693" fill="rgb(0, 0, 0)" stroke="rgb(60, 60, 60)" stroke-width="1px" opacity="0.25"></line><line x1="0" y1="140.7692307692308" x2="1440" y2="140.7692307692308" fill="rgb(0, 0, 0)" stroke="rgb(60, 60, 60)" stroke-width="1px" opacity="0.25"></line><line x1="0" y1="112.61538461538461" x2="1440" y2="112.61538461538461" fill="rgb(0, 0, 0)" stroke="rgb(60, 60, 60)" stroke-width="1px" opacity="0.25"></line><line x1="0" y1="84.46153846153851" x2="1440" y2="84.46153846153851" fill="rgb(0, 0, 0)" stroke="rgb(60, 60, 60)" stroke-width="1px" opacity="0.25"></line><line x1="0" y1="56.30769230769232" x2="1440" y2="56.30769230769232" fill="rgb(0, 0, 0)" stroke="rgb(60, 60, 60)" stroke-width="1px" opacity="0.25"></line><line x1="0" y1="28.153846153846132" x2="1440" y2="28.153846153846132" fill="rgb(0, 0, 0)" stroke="rgb(60, 60, 60)" stroke-width="1px" opacity="0.25"></line><line x1="0" y1="0" x2="1440" y2="0" fill="rgb(0, 0, 0)" stroke="rgb(60, 60, 60)" stroke-width="1px" opacity="0.25"></line></g></g></g><g><g><line x1="0" y1="337.84615384615387" x2="1440" y2="337.84615384615387" fill="rgb(0, 0, 0)" stroke="rgb(153, 153, 153)" stroke-width="1.5px"></line></g></g><g><g><line x1="-158603760" y1="0" x2="-158603760" y2="366" fill="rgb(0, 0, 0)" stroke="rgb(153, 153, 153)" stroke-width="1.5px"></line></g></g><g><g><g><g><g><path stroke="rgb(0, 153, 136)" stroke-width="2px" d="M95.7904,247.23876376335437L96.6762,238.84777711904968L98.4605,233.4762209745554L99.3433,230.50056371322046L100.2272,229.05871502252725L101.11139999999999,228.16594904202682L101.9934,227.79028118573703L102.87759999999999,228.94902601608862L103.7606,229.25282923991864L104.64389999999999,228.75617037369656L105.52780000000001,228.88802708112277L106.411,228.63986965326163L107.31949999999999,227.40478805395273L108.2506,226.78452034179983L109.1508,225.69107038241168L110.0794,225.862026819816L110.9666,225.2763783106437L111.8505,224.36511966815362L112.7352,222.99434690292065L113.6196,223.03637491739715L114.504,223.260006913772L115.3878,222.64368273661688L116.27229999999999,222.34727993378272L117.1998,221.9091615860279L118.083,221.2443319283999L118.9668,220.99729043703815L119.8504,220.9958892235389L121.61840000000001,221.20135578742395L122.50089999999999,221.21552734191602L123.383,221.0216648395245L124.2659,220.6083152477558L125.14909999999999,220.17106112150046L126.0342,220.02775138158066L137.5654,201.20918559111084L138.4537,202.04195949664484L139.3357,205.23174231785995L140.218,204.83719583658072L141.09910000000002,206.70685934103454L141.9821,206.791813153487L143.7435,204.94109539802258L144.6302,205.36996741478262L145.5111,206.98618747637823L146.39180000000002,207.02846720585455L147.27429999999998,207.19452359126166L148.1549,207.4751606446046L149.036,207.4271334226315L149.9169,206.62584067307986L150.8744,206.91808178791632L151.8186,207.65509491700394L152.7379,206.80886264947745L153.6214,206.63518769007464L154.5047,206.39730862470773L155.3859,206.23698295079745L156.2676,206.05257654190066L157.1518,206.12705901035895L158.03230000000002,206.08866408238043L158.91670000000002,205.633756344135L159.8187,205.45423320623544L160.6998,204.79692143660327L161.58089999999999,204.7335647711387L162.4621,205.11159874842718L163.34629999999999,204.78940354860748L164.2267,205.3578683137894L165.10739999999998,205.55653018217822L165.9908,205.290618456327L166.8713,205.129831304917L167.75209999999998,205.05223596096042L168.6336,204.89824511454657L179.83610000000002,203.09200539955725L180.7114,192.07234223072348L181.5886,195.8463052236117L182.463,195.69480635569647L183.3372,195.1618753579947L184.2145,197.2763820428115L185.0892,200.3756733215772L185.96419999999998,199.5336614755484L186.8417,200.116952254222L187.7169,200.1807703971863L188.59120000000001,200.4806468670185L189.4656,200.60488500044897L190.3428,199.05614133981558L191.21699999999998,198.87332912591788L192.1004,198.96977792336392L192.996,199.54768200104056L193.9511,199.8142649668914L195.0047,199.1324529372729L196.0932,199.07532202280487L196.9743,199.11323030178366L197.93999999999997,198.68396393152383L198.85479999999998,199.21648379472586L199.73489999999998,199.4587594820903L200.6089,199.65867992547842L201.4828,199.91172062433685L202.35660000000001,199.5023733010659L203.233,199.56713957052966L204.1074,199.66947010847238L204.9812,199.3095260491738L205.85869999999997,199.09462856329407L206.7325,198.86432611942294L207.6062,199.09714571329263L208.4826,199.33896831365732L209.35649999999998,199.13989531076874L210.23090000000002,199.09156603079578L211.1046,199.19902316423563L222.3547,192.98163749621466L223.23950000000002,192.96051021722647L224.1282,192.18871846565833L225.0131,193.76316222777734L225.8979,194.81751245718738L226.7838,193.281279032047L227.6702,193.5394882789025L228.5558,192.53001044346738L229.4437,194.07147954060483L230.32880000000003,193.844214457732L231.21389999999997,193.3964805969825L232.098,194.1024740475875L232.9855,193.54868426689734L233.8715,193.21477592908423L234.75660000000002,193.325933273022L235.64509999999999,192.66816841639007L236.5315,192.81936522630545L237.416,192.25575856062082L238.3015,192.18836606465857L239.19140000000002,192.63945612540613L240.077,192.90058526626L241.85,192.56311935644885L242.7355,192.89912531926083L243.6208,192.51913635547345L245.3928,192.36793954555807L246.28,192.36324086556067L247.1661,192.13683161368738L248.0555,191.84610078885007L248.94050000000001,191.71027537492606L249.8256,191.89083893482504L250.7145,191.82255704586325L251.5996,191.69455157793487L252.4838,191.760433783898L263.7538,190.815009025427L264.6413,177.59928351182205L265.5277,172.71775773855356L266.4115,178.7415494001829L267.2956,180.92064615396353L268.17850000000004,182.71463573895971L269.06489999999997,183.07228919175955L269.9486,184.15149208215567L270.8334,183.39727003757773L271.7201,184.18361091613772L273.48879999999997,184.5180059029506L274.3723,185.52651044038626L275.2581,186.42498196088354L276.1428,186.44278660187354L277.0268,186.2574068949773L277.9146,186.35337743392358L278.79900000000004,186.0277589101058L279.6829,185.26281380653384L280.5692,185.12876717860883L281.4528,184.64780693787796L282.33750000000003,184.3128413970654L283.221,184.55614911592926L284.10720000000003,185.21319238956158L284.99170000000004,185.31706677950348L285.87600000000003,185.63723147832434L286.76210000000003,185.45040860542883L287.6461,185.77339251224814L288.5301,185.97810393113357L289.4144,185.7720164702489L290.30089999999996,186.11379509705765L291.185,185.78829404023978L292.0684,185.8520282782041L292.957,185.86251640319827L293.8402,185.77782269624564L294.72409999999996,185.72502967027518L305.607,172.15468806486865L306.4907,175.35044492208044L307.3717,169.49904447335464L308.2551,178.19442167648904L309.1358,176.89488425621622L310.0165,176.2798102635604L310.8992,178.65833242122946L311.78000000000003,180.15169039139383L312.661,180.96113870694086L313.5446,179.43579615079443L314.4255,179.82078585257898L315.3063,181.37792840370767L316.18699999999995,182.37601194014917L317.0707,181.63788287456222L317.9512,181.80272263746997L318.8326,181.30545126474823L319.7165,182.06101578932544L322.3594,180.77369493704578L323.2428,180.86617502799402L324.1242,181.31585548474237L325.0053,181.60487464758066L325.888,181.62544815356918L326.7683,181.4306375246782L327.64930000000004,181.23139671178964L329.4123,181.4852261176476L330.2935,181.99929527135995L331.174,181.8943301164187L332.0575,181.26210594177246L332.9386,180.73113832106958L334.7026,180.68673579509445L335.5833,180.5282560311831L336.4642,180.68257410709677L347.706,171.94094846798822L348.5801,183.14236664772037L349.4561,180.04878929945139L350.3299,181.75526596949652L351.2038,180.92522736696097L352.07869999999997,179.72984961362985L352.95550000000003,180.371236214271L353.8293,180.3233264592978L354.7042,180.10027340742258L355.5809,179.3434167458461L357.3288,177.05643494312582L358.2026,177.22869190802942L359.0797,177.17111629706164L359.9538,176.53142457741959L360.8286,175.8975726457743L361.70619999999997,175.78186765083902L362.5803,175.23054467714752L363.45509999999996,174.88873248833877L364.32930000000005,175.12260928520791L365.20579999999995,174.7344479744251L366.08009999999996,174.9567794433007L366.95410000000004,174.99839632327743L367.83119999999997,174.8576037333562L368.70520000000005,175.15204315919144L369.5792,174.97725226328924L370.45610000000005,175.32648165409384L371.3299,175.43669926203216L372.20529999999997,175.6133864109333L373.0792,175.17296906617972L373.9566,175.23685433314398L374.83060000000006,175.5911851479457L375.7046,175.32470286809485L376.58119999999997,175.36410465607278L377.4551,175.22131512715265L388.4861,192.55404083545392L389.37579999999997,177.4691468568949L390.2604,176.54825592041016L391.1443,175.8415912298056L392.0322,171.6827895641327L392.91659999999996,171.89751924001257L393.80109999999996,172.26636561980615L394.68850000000003,172.15848057086654L395.5724,172.23414609982416L396.45790000000005,172.29227548379166L397.3427,172.0413156289321L398.23049999999995,172.284556223796L399.11499999999995,171.85815101403458L399.9987,171.56901438419638L400.8866,172.56127491364114L401.7711,172.37740549674402L402.657,171.85415713603683L404.4286,171.97959511096664L405.3123,171.81363102105948L406.19629999999995,171.53664383521448L407.0842,171.9247548029973L407.96880000000004,171.61385321617126L408.85470000000004,171.86474594703088L409.741,172.40712464772741L410.6264,172.3853596907396L411.5113,172.14777429287253L412.39509999999996,171.9267517419962L413.2838,172.31442640377924L414.1682,172.62329748960641L415.0523,172.52105085666366L415.9418,172.48299154868494L416.826,172.5602512726417L417.7106,172.8365839994871L418.5981,172.5170737596659L419.4828,172.14896574387186L430.5401,167.4162706595201L431.42499999999995,165.70715937247644L432.3082,169.4224559893975L434.07570000000004,166.73833504089944L435.84250000000003,165.1791452077719L436.7285,165.00297826987048L437.6119,166.4594516020555L438.49629999999996,166.44456685506384L439.3787,166.86788436082693L440.2643,166.95934081077576L441.1469,167.96217337021463L442.0307,168.22946113806506L442.92629999999997,168.28987273803125L443.8091,168.04418211716873L444.69269999999995,167.16687143765967L445.5771,167.14973803666922L446.45959999999997,167.30741231258102L447.3416,166.7898694918706L449.9936,167.51746008946344L450.8776,167.0744249087114L451.7629,167.60584561641403L452.6447,167.80312305230362L453.52709999999996,167.71829509735107L455.2952,167.83983988028308L456.17780000000005,167.86363533826975L457.0609,168.0887188911438L457.9472,168.1551045271067L458.82919999999996,168.19214019408594L459.71150000000006,168.10977904613205L460.5971,168.24164414405823L461.48030000000006,167.95945484821615L472.5399,160.25729469152597L473.42139999999995,156.62486265255853L474.3026,159.76591344980093L475.18370000000004,159.0413602132064L476.0676,158.58857527145975L476.9483,160.44572854042053L477.8295,161.6748361037328L478.7138,163.29578001682577L479.59520000000003,163.7408792605767L480.47679999999997,165.28444598271295L481.35830000000004,165.2529480457306L482.2423,164.88275918593774L483.1231,165.01665478486282L484.00390000000004,164.82132394497214L484.8872,165.404128074646L485.7676,164.77183677599982L486.6495,165.84494816339935L487.53389999999996,165.35997726367071L488.4147,165.96212988633377L489.29560000000004,166.36210502110998L490.176,166.1141657462487L491.0596,166.58764166098376L491.9404,166.2718400221605L492.82140000000004,166.24096298217773L493.70550000000003,165.88067491237936L494.5864,165.81370194141684L495.46720000000005,166.2194833021898L496.348,166.42885983907263L497.2324,166.519275867022L498.11429999999996,166.6256841879625L498.9949,166.69592945392318L499.87930000000006,166.40088591208826L500.7603,165.95073558734015L501.6408,165.8736604543833L502.5253,165.67470491849463L503.40590000000003,165.78480505943298L514.4717,150.76351107083838L515.3456,152.56931447982788L516.2203,158.55088514548083L517.0943,161.4666006748493L517.9712,157.94678592681885L518.8455,158.63502507943375L519.7196,158.14773840170642L520.5968,158.9737160022442L521.471,158.52302868549643L522.346,158.80513407633856L523.2202,159.26518519108114L524.0971000000001,160.11390104660623L525.8455,158.9871743642367L526.7224,159.22719300710241L527.5966000000001,159.9947391656729L528.4714,160.0824870146238L529.3457000000001,159.95503531969513L530.2225999999999,160.17884351656988L531.0964,159.95892851169296L531.9703000000001,160.1737756545727L532.8471000000001,160.11281028160684L533.7213,160.66884871629568L534.5962,161.02244116709784L535.4728,160.8714289481823L536.3471,161.19092240700357L537.2216999999999,161.08161097306473L538.0955,160.49107080239517L538.9723,160.57264324334952L539.8468,160.4291656934298L540.7215,160.57141823035022L541.5993,160.82578462820788L542.4732,160.8037847372202L543.3476,161.09807313405554L544.2217,161.2852484079508L554.8937999999999,133.8498237133026L555.785,140.23197362973139L557.5567,149.46860520656296L558.4417,153.0965231565329L559.3266,152.1844925880432L560.2135,154.1709266809317L561.0979,154.7395508656135L561.9821000000001,155.30560755729675L562.8723,156.33997161571799L563.7562,157.4630903830895L564.6401,159.19430224712082L565.5273,159.13172589815582L566.4126,158.23734894165628L567.2985,158.31623642261215L568.1833,157.95995901181146L569.0709,158.18687169368454L570.8398000000001,157.7185307649466L571.7278,157.0808695463034L572.6116,157.33110781816336L573.4965,157.77437793291534L574.3809,157.69481921195984L575.269,157.39705714812646L576.1532,157.11540484428406L577.9262,157.06212516931387L578.8093,156.76204732748178L579.6943,157.53558430304895L580.5822,157.4598852120913L581.4671,157.59886545401355L582.3530999999999,157.4345459021055L583.2384,157.76039935992316L584.1247,157.76659154891968L585.0091,157.9760184288025L585.8933,157.762446641922L596.5669,154.51950161273666L597.4531999999999,150.5400217129634L598.3361,150.49528356698843L600.106,151.81381707925064L601.8741,151.76115830128012L602.7577,151.2427260875702L603.6409,152.36740548794089L604.5266,151.30974940153268L605.4091,151.83467586223898L606.292,151.27840249355026L607.1743,150.92554840674768L608.0604,151.22070941558252L608.9444000000001,150.84325438279373L609.8267999999999,150.15481385817895L610.7130000000001,150.58663933093734L611.5956,150.3359647530776L612.4787,150.13103518119226L613.3613,150.28437995910645L614.2464,150.6412111429068L615.1282,150.97557256771967L616.0121,150.83144055880035L616.8968,151.400366801482L617.7797,151.65867673433746L618.6633,151.69744084431574L619.5505,152.20134071203378L620.4329,152.43936241590063L621.3152,152.59196882981522L622.1976,152.61935542179987L623.0828,152.61445536980264L623.965,152.44787038289587L624.8488,152.42479650790878L625.7343,152.78924626570483L626.6163,152.78879317870508L627.4992,152.3843878599314L638.6062000000001,159.9938497726734L639.4869,152.54783479983993L640.3691,151.80428547125598L641.2533,149.3271245956421L642.1347,151.01171884169946L643.0159,149.11367027576156L643.9003,148.66810116401086L644.7815,148.33128971319934L645.6625,149.16773865773126L646.5472,149.33340068963858L647.428,149.79962721237771L648.3095,149.50978578053991L650.0753,149.75374795840338L650.9563,149.4240180895879L651.8377,149.07066057278558L652.7212,149.1321461567512L653.6024,149.01462881381698L654.4839999999999,149.24625695668738L655.3655,148.78892436394327L656.2491,148.81840858092676L657.1305,149.19468894371622L658.0114,149.34617103063147L658.895,149.17080958072958L659.7758,149.52005575253412L660.6572,149.28560840166534L661.5409999999999,148.6703833800096L662.4223,148.7450420489678L663.3032000000001,148.8508630349086L664.1844,149.21876967870276L665.9495,149.2828227556669L666.8307,149.33922369663534L667.7156,149.46778293756338L668.5966999999999,148.9705786888416L679.2683000000001,123.69295565898605L680.1525,136.58816407277033L681.9022,141.37709228809067L682.7817,139.78385380598215L683.6564000000001,140.34272822966943L684.5319,139.85268946794363L685.4068,140.29050575769867L686.2847,139.61767156307516L687.1599,141.33326031611517L688.0360000000001,142.82178535828226L688.9141,141.94663942777197L689.7889,141.77436568186835L690.6645,141.5629083009867L692.4173,141.61972876695486L693.2921,142.4350000894987L694.167,141.87003416281482L695.0451,142.11933269867532L695.9199,142.51704239845276L696.7954,142.5693487754235L697.6736,141.95858749976526L699.4236,143.050946694154L700.2991,143.18828239807718L701.1773,143.89509811768167L702.0522,143.9908001606281L705.5548,144.73841049120978L706.4309000000001,144.93704718809863L707.3088,145.21051036394562L708.1843,144.97676781507639L709.0593,145.11269391500036L709.9372999999999,144.87995822613058L720.6414,144.39297360640307L721.5364,141.01578057729284L722.4217,140.30867958068848L723.3077000000001,144.17169934052689L724.1936,139.85760630094092L725.0819000000001,139.84470171194812L725.9671999999999,139.1670513703273L726.8528,140.04991656083328L727.7401,139.42485787318304L728.6258,138.00268490497885L729.5114000000001,137.96870337999786L730.3969,137.86862149605386L731.2855,138.28346459682174L732.1715,138.98487683442923L733.0572,139.13338868434616L733.9450999999999,138.82007063352148L734.8301000000001,139.1039715913626L735.7146,138.90963083047134L736.6044,139.5909897730901L738.3746000000001,140.06533829982467L739.2589999999999,139.89019500292267L740.1482,139.74257254600525L741.0320999999999,139.75329560499927L741.9173999999999,139.9775065458738L742.8049000000001,140.4976839835827L743.6896999999999,140.50604092157806L744.5757,140.89094671836267L745.4630999999999,140.9376985843365L746.3475,140.83699580339285L747.2322,140.8697858773745L748.1189999999999,140.75431581643912L749.0079,141.35524342610285L749.8937,141.53203126100394L750.7802999999999,141.6306196359488L751.67,141.45837945204516L762.57,139.29081124525806L763.457,135.23177262452936L764.3412,131.01537856688867L765.2253,130.51871131016657L766.1100000000001,129.21150497289804L766.9966000000001,131.5979477625627L767.8793,131.8384866164281L768.7628000000001,131.54641331159155L769.6489,132.08301934829126L770.5328,130.30998923228339L771.4175,129.908604493508L772.3018,129.82552176255447L773.1887999999999,129.44346873576828L774.0732999999999,129.34659202282248L774.9568999999999,129.82025252855743L775.8442,129.88084871952353L776.7284,130.3737570322477L777.6133,130.87119621496936L778.5008,130.87393151796783L780.2698,130.4486674162058L781.1535,131.1016664688404L782.0409,131.41099064166733L782.9237,131.8756900934073L783.8082,132.27829984518198L784.6937999999999,132.10877818327685L785.5777,132.2738360991845L786.4611,132.19741542522726L787.3455,132.3331401531513L788.2339000000001,132.79899749389062L789.1184000000001,133.1806309956771L790.0028,133.4678042485164L790.8891,133.67155915040237L791.7733,133.70543998938342L792.6576,133.96500849723816L803.3725000000001,138.54875542567328L805.1437999999999,130.27481625630304L806.0286,124.56345325249893L806.9102,121.7032660520994L807.7925,125.08789306420547L808.6773,127.65013360977173L809.5591000000001,130.9417435389299L810.4412,131.85117305242102L811.323,132.0550622023069L812.2071,132.54496671603277L813.0889000000001,131.92417040238016L813.9707999999999,131.43931696965143L814.8556,131.55101130558893L815.7374,131.74370752848114L816.6194999999999,131.1116847258348L817.5051,130.95469847092264L818.3869000000001,130.74406335904047L819.2683999999999,130.8731092489683L820.1510000000001,130.734263255046L821.0356,129.99717461145843L821.9169,130.1689281463623L822.7993,130.19800961934607L823.6842,129.8151007615603L824.5662000000001,129.80174308556778L825.4479,129.68939429063064L826.3296,129.72507069661066L827.2146,129.42670451677765L828.097,129.85911732453567L828.9787,129.7813206085792L829.8639000000001,130.01538199644824L830.7453999999999,130.06144584142248L831.6272,129.91331995450537L832.5121,130.04765185943018L833.3937000000001,130.35622088725754L834.2755999999999,130.49286857018106L844.9685,130.20629943334143L845.8495,123.25084343323343L846.7247,118.84343125269965L847.6032,116.99307428873504L848.4784999999999,116.88513889679544L849.3537000000001,117.30325429256149L850.229,119.14100872553314L851.1072,120.2539414259104L851.9821000000001,120.71100552265463L852.8579000000001,120.85839304557214L853.7356,121.45841448123642L854.6106,121.50050122921286L856.3616,121.84780080501852L857.2395,122.04467549690835L858.1152,121.66487112412088L858.9902,122.73464309252228L859.8688,122.02804552591766L860.744,122.30412653776315L861.6188999999999,122.10290556687576L862.4968,121.55587852918188L863.3719000000001,121.4773266682258L864.2471,121.74390963407663L865.1220999999999,121.77775691105768L866.0004,121.93878738696762L866.8754,122.38870277771585L867.751,122.24185224679803L868.6289,122.07115591489355L870.3793999999999,122.28368727977463L871.2543000000001,122.85999716245215L872.1333,123.31232901719903L873.0080999999999,123.67184516099786L873.8832,123.56109056105981L874.7611,123.38106399316055L875.6359,123.23273673424356L886.5356,102.73999769871051L887.4238,114.45102128615747L888.3098000000001,118.01033850816583L889.1956,115.80501305139984L890.0833,116.39452958106995L890.9679,115.3838435136355L891.8537,117.05689243169931L892.7418,117.0522776567019L893.6275,117.30176078356232L894.5152,117.51858808444098L895.3997,117.54485034942627L896.2892999999999,117.41729796849768L897.1754999999999,117.25375034258917L898.0618000000001,117.64504970037024L898.9491,118.01186557916498L899.8347000000001,117.73652293131903L900.721,118.1363134750953L901.6093,118.4880600158985L902.4958999999999,118.15423558308527L905.1582,117.93557915320764L906.0443,117.57859694040741L906.9295000000001,117.83455753326416L907.8193,118.05480815814093L908.7051,118.13993817109329L909.5909999999999,117.7088846243345L910.4789000000001,117.89213314423196L911.3639999999999,117.92574548721313L912.2506,117.71044525733362L913.1354999999999,117.76365780830383L914.0241000000001,117.93430379720834L914.9087000000001,118.09754936511703L915.7939000000001,117.97776658718405L916.6831999999999,117.90181578122656L928.2723,101.28157777052661L929.1608,108.0935394397149L930.0463000000001,109.90395762370184L930.9297,110.41274076241714L931.8168999999999,109.9226180956914L932.7008,113.38138356575601L933.5853999999999,111.96738294454721L934.4725000000001,112.13776043745187L935.3567,113.56147725765524L936.2415000000001,112.22428327340347L937.1252000000001,112.12893363145685L938.0129000000001,111.2634871189411L938.8962,111.05773527805624L939.7811,111.15326951100275L940.6674,111.42389669785135L941.5509000000001,111.05471469805792L942.4352,111.02143797507654L943.3191,110.69219475526077L944.2064,111.33675296490011L945.0901000000001,111.11084714302652L945.9734000000001,111.23947350795456L946.8614,111.37491295887872L947.7463,111.35160414989181L948.6307,111.11183722202597L949.5169999999999,111.06223258605371L950.4001999999999,111.12160376402048L951.2847999999999,111.42146345285272L952.1690000000001,111.46323136182932L953.0564,111.36868720788223L953.9406,111.41609353285571L954.8246,111.20532417297363L955.7118,111.01348378108099L956.5956,111.15853874499984L957.4798,111.02085064007684L969.064,99.41826587456922L969.9531999999999,97.20495266180774L970.8372999999999,98.64449396500225L971.7189,97.81381768446704L972.6013999999999,101.87312480119562L973.4861999999999,103.0563866725335L974.3677,105.1558240193587L975.2495,103.89973260806158L976.1318,104.05759147497326L977.0163,104.06645184296826L977.8982,104.12048666293805L978.7803000000001,103.82361399210419L979.6657,103.33216562637921L980.5473000000001,103.01426636255707L981.4290000000001,102.27021360397339L982.3107,101.96010072414691L983.1956,101.6854628783006L984.0781000000001,101.94237998815686L984.9597,102.08161194507892L985.8443,102.48955805485065L986.7261,102.91237213061407L987.6075000000001,102.8217547306648L988.4921999999999,102.82537942666272L989.3738,102.94925676859344L990.2563,102.69014134773846L991.1379999999999,102.77621109669025L992.0239,102.9723138625805L992.9056,102.87760189863354L994.6721,103.0401091025426L995.5537,103.01517253655652L996.4359,102.98122457357556L997.3176,102.89564147362347L998.2021,103.43083790632397L999.0837,103.91849376605109L999.966,103.95749281002924L1010.6696,89.33306947121258L1011.5482000000001,89.28603232823889L1012.423,93.11846032509442L1013.3011,95.19140047293445L1014.1763,92.64934747035687L1015.0523,92.96481348918036L1015.9308,93.33983527697052L1016.8063,93.63375449180603L1017.6812000000001,93.55466563885028L1018.559,94.96175248806293L1019.4345,95.02093907502984L1020.3105999999999,95.00162414404065L1021.1853,94.54865461129407L1022.0626000000001,94.43157357435962L1022.9374,94.83957002713129L1023.8123999999999,95.32192309086139L1024.691,95.4004246088175L1025.566,95.69360545965344L1026.4413,96.26937835033124L1027.3161,95.996401823484L1028.1945,96.36090192428003L1029.0692,96.06317342244665L1029.9439,96.14390681340143L1030.8217,96.46415541722223L1031.6964,96.59011360315179L1033.4489,97.0713255588825L1034.3252,97.30919623374939L1035.2001,97.35794503872211L1036.0751,97.70799669852624L1036.9529,97.89540690642139L1037.8279,97.87589060343231L1038.7032,98.01745511935309L1039.5817000000002,98.00094261536236L1040.4566,98.01748868135309L1041.3314,97.82021124546344L1052.0467999999998,85.87900268114532L1052.9352999999999,92.23819618958692L1053.82,92.60704256938055L1054.7082,93.09842381110559L1055.5922,91.49686195300177L1056.4791,90.41571246660675L1057.3637,89.82980385193463L1058.2513,88.91975344144385L1059.1362,88.8504311304826L1060.02,89.83373060593243L1060.9085,89.68936366301318L1061.7930000000001,89.44790185414831L1062.6801,89.70782276300287L1063.5671,89.29099950423608L1064.453,89.36003653819745L1065.3388,89.34000002420868L1066.2241000000001,88.85194142048175L1067.1123,89.34085585520819L1067.9977999999999,89.58736874507025L1068.8849,89.9214784548833L1069.7738000000002,89.82247055493872L1070.6580000000001,89.78805272395795L1071.5430999999999,89.73601484298706L1072.4293,89.8641377779154L1073.3186,90.10007863778333L1074.2040000000002,90.29299301367541L1075.0885,90.31037812966565L1075.9781,90.5980548125047L1077.7483,90.91719587032611L1078.6356,90.72366059743445L1079.5207,90.54448986053467L1080.4079,90.49565715056201L1081.2922,90.3623488866366L1082.181,90.27450035168573L1092.8869,79.74183858357941L1093.7813,83.87795233726501L1095.5495,81.58472800254822L1096.4349,80.40133188321039L1097.3216,80.71746914203351L1098.2065,80.60886251009424L1099.0908,80.25847523029034L1100.8645,80.48533756916339L1101.7495000000001,80.55437460312476L1102.6444,80.74889995501593L1103.5294,80.3795501452226L1104.4137,81.28139464671796L1105.2984,81.61057074253375L1106.1856,81.5196680655846L1107.0696,81.25734747373139L1107.9536,82.1562553002284L1108.8406,82.20881339219898L1109.7231,82.55414959100574L1110.6071000000002,82.75119209289551L1111.4943,83.13639994767993L1112.3784,82.89495491981506L1113.2631000000001,82.60979538697461L1114.1458,82.74896021989673L1115.0333,82.70296349892249L1115.9163,82.9109472128061L1116.8012,82.74704718589783L1117.6894,82.84029920284564L1118.5732,82.98958297876209L1119.4569,82.97927944476788L1120.3412,82.89371312581574L1121.2286,83.29231221859271L1122.1131,83.37534460654621L1122.9976,83.4625051204975L1123.8844000000001,83.56253666144153L1134.5873,80.53173703413745L1135.4789,74.78901034135083L1136.3607,74.6998696694007L1137.242,75.9349848307096L1138.1239,75.4901373019585L1139.0082,75.46145857297455L1139.8897,75.56107058891882L1140.7721999999999,75.84228658676147L1141.6568,75.20021196512073L1142.5385,75.00612291922931L1143.4199,75.10112016017621L1144.3016,75.4090347290039L1145.1865,75.58592324990491L1146.0689,75.46776822897101L1146.9508,75.35580539703369L1147.8355,75.18546146612903L1148.7174,75.2731757530799L1149.5992,75.22803486310517L1150.4841999999999,75.19688932712262L1151.3657,75.36634386502777L1152.2477000000001,75.07754285518939L1153.1294,75.42657087399408L1154.8957,75.676893050854L1155.7774,76.07755620662982L1156.6625999999999,76.23815037653998L1157.5442,76.19765782356262L1159.3086,76.6569873553056L1160.1933,76.64064266131476L1161.0749,76.68048075529242L1161.9567,76.71353932527393L1162.8521,76.78682195223291L1163.7338,76.63913237131555L1164.6159,76.82248157721301L1165.5006,76.97852809612567L1176.2065,75.58919554490308L1177.9645,72.03847019488995L1178.8395,71.55583185416003L1179.7142,71.6213952211233L1180.5918,71.9070581839635L1181.4666,71.38599135325506L1182.3415,70.83023819556598L1183.2168,70.41111593980054L1184.0946999999999,70.89548272352954L1184.9697,71.54022552416876L1185.8445,71.33648740328272L1187.5977,71.1128302354079L1188.4734,70.73799303861762L1189.3487,70.74052696961621L1190.2282,70.60342619969293L1191.1028,70.6313833456773L1192.8558,70.5749991857088L1193.7304000000001,70.72847821162298L1194.606,70.69656074964081L1196.3600999999999,70.94196609350348L1197.2349,71.07300892243018L1198.1096,71.29977057530328L1198.9879,71.36758259626532L1199.8627999999999,71.67876946009119L1200.7383,71.96946672292853L1201.6167,72.28862456174994L1202.4917,72.45000743865967L1203.3668,72.40397715568542L1204.2415,72.47959234164313L1205.1192,72.56086272459765L1205.994,72.65466851454516L1216.6883,59.24039020905127L1217.5826,64.20362267127399L1218.4686,67.38585404249335L1219.3545,67.63433030935431L1220.2434,66.85921591978808L1222.0154,67.60487965437079L1222.9029,67.44290944246143L1223.7888,67.7807277532724L1224.6741,68.08298712510327L1225.5635,68.22376293402453L1226.4483,68.40627308992237L1227.3337000000001,68.4593346118927L1228.2197,68.82841592568616L1229.1083,68.7084317757533L1229.9955,68.5522510088407L1230.8808999999999,68.79129635370691L1231.7702,68.92848102863019L1232.6544000000001,68.95789812161371L1233.5417,68.9911412825951L1234.4261999999999,68.81415207569415L1235.3141,68.90282287964453L1236.2011,68.92386625363275L1237.0859,69.03801061556891L1237.9754,69.05341557356024L1238.8609,69.09322010553797L1239.7461,69.01508776958173L1240.6344000000001,69.17672236149127L1241.5207,69.15754167850201L1242.4067,68.99142655959491L1243.2932,69.11439772752612L1244.1822,69.18617006448596L1245.9514,69.21379159047052L1246.84,69.3335911494035L1258.4307,62.64439927614649L1259.324,60.73665129221399L1260.2089,62.549603407199584L1261.0919999999999,65.00927848082324L1261.9792,65.61107870248645L1262.8638999999998,65.87595000633826L1263.7481,65.68424386244556L1265.5185999999999,65.37257034961993L1266.403,65.10248015477106L1267.2866,65.24026894569397L1268.1738,65.60429917849024L1269.0583000000001,65.5191523845379L1269.9424000000001,65.27601247567395L1270.8288,65.32053246864905L1271.7131,65.3640456016247L1273.4855,65.60627933648914L1274.3696,65.5631353855133L1275.2544,65.46526859356806L1276.1387,65.31395431665271L1277.0254,65.17700457572937L1277.9101,65.0140946278205L1278.794,65.21603718170752L1279.6814,65.3886633286109L1280.5653,65.37713478161737L1281.4493,65.43182406058673L1282.3324,65.44667524557849L1283.2201,65.43726110458374L1284.1047,65.70471668243408L1284.9886000000001,65.77184068239649L1285.8754999999999,65.73755709941571L1286.7585000000001,65.66684196545526L1287.6416,65.7876148223877L1288.5301,65.70584100943347L1289.4137,65.78085207939148L1300.1195,62.51223212022046L1301.0076000000001,62.958422128970824L1301.8896,62.89564440800592L1302.7716,62.47578378824085L1303.6574,63.12270811887885L1304.5388,63.04872068992023L1305.4206,63.08874337489789L1306.3028000000002,63.045985386921814L1307.1875,63.46477202268744L1308.0694,63.63041727359479L1308.9512,63.56616282463074L1310.7177,63.386270504731385L1311.5995,63.379759476735046L1312.4841000000001,63.04430728692273L1313.3658,63.175618611849245L1314.2481,63.17001375785236L1315.1298,63.2606143768017L1316.0149999999999,63.205069266832766L1316.9018,63.0708044859079L1317.7834,63.22767327382013L1318.6680999999999,63.29394144278308" style="fill: none;" fill="none"></path></g></g></g></g></g></g><g transform="translate(58, 366)" clip-path="url(#clip_1)"><clipPath id="clip_1"><rect width="1440" height="34"></rect></clipPath><g><g visibility="inherit"><g><g transform="translate(0,0)" style="visibility: inherit;"><text transform="translate(3,14)" style="text-anchor: start; font-family: &quot;Helvetica Neue&quot;, sans-serif; font-size: 12px; font-weight: 200;" fill="rgb(50, 49, 63)" stroke="none" stroke-width="1px">01:00 AM</text></g><g transform="translate(180,0)" style="visibility: inherit;"><text transform="translate(3,14)" style="text-anchor: start; font-family: &quot;Helvetica Neue&quot;, sans-serif; font-size: 12px; font-weight: 200;" fill="rgb(50, 49, 63)" stroke="none" stroke-width="1px">01:30 AM</text></g><g transform="translate(360,0)" style="visibility: inherit;"><text transform="translate(3,14)" style="text-anchor: start; font-family: &quot;Helvetica Neue&quot;, sans-serif; font-size: 12px; font-weight: 200;" fill="rgb(50, 49, 63)" stroke="none" stroke-width="1px">02:00 AM</text></g><g transform="translate(540,0)" style="visibility: inherit;"><text transform="translate(3,14)" style="text-anchor: start; font-family: &quot;Helvetica Neue&quot;, sans-serif; font-size: 12px; font-weight: 200;" fill="rgb(50, 49, 63)" stroke="none" stroke-width="1px">02:30 AM</text></g><g transform="translate(720,0)" style="visibility: inherit;"><text transform="translate(3,14)" style="text-anchor: start; font-family: &quot;Helvetica Neue&quot;, sans-serif; font-size: 12px; font-weight: 200;" fill="rgb(50, 49, 63)" stroke="none" stroke-width="1px">03:00 AM</text></g><g transform="translate(900,0)" style="visibility: inherit;"><text transform="translate(3,14)" style="text-anchor: start; font-family: &quot;Helvetica Neue&quot;, sans-serif; font-size: 12px; font-weight: 200;" fill="rgb(50, 49, 63)" stroke="none" stroke-width="1px">03:30 AM</text></g><g transform="translate(1080,0)" style="visibility: inherit;"><text transform="translate(3,14)" style="text-anchor: start; font-family: &quot;Helvetica Neue&quot;, sans-serif; font-size: 12px; font-weight: 200;" fill="rgb(50, 49, 63)" stroke="none" stroke-width="1px">04:00 AM</text></g><g transform="translate(1260,0)" style="visibility: inherit;"><text transform="translate(3,14)" style="text-anchor: start; font-family: &quot;Helvetica Neue&quot;, sans-serif; font-size: 12px; font-weight: 200;" fill="rgb(50, 49, 63)" stroke="none" stroke-width="1px">04:30 AM</text></g><g transform="translate(1440,0)" style="visibility: hidden;"><text transform="translate(3,14)" style="text-anchor: start; font-family: &quot;Helvetica Neue&quot;, sans-serif; font-size: 12px; font-weight: 200;" fill="rgb(50, 49, 63)" stroke="none" stroke-width="1px">05:00 AM</text></g></g><g><line x1="0" y1="0" x2="0" y2="17" fill="rgb(0, 0, 0)" stroke="rgb(204, 204, 204)" stroke-width="1px"></line><line x1="180" y1="0" x2="180" y2="17" fill="rgb(0, 0, 0)" stroke="rgb(204, 204, 204)" stroke-width="1px"></line><line x1="360" y1="0" x2="360" y2="17" fill="rgb(0, 0, 0)" stroke="rgb(204, 204, 204)" stroke-width="1px"></line><line x1="540" y1="0" x2="540" y2="17" fill="rgb(0, 0, 0)" stroke="rgb(204, 204, 204)" stroke-width="1px"></line><line x1="720" y1="0" x2="720" y2="17" fill="rgb(0, 0, 0)" stroke="rgb(204, 204, 204)" stroke-width="1px"></line><line x1="900" y1="0" x2="900" y2="17" fill="rgb(0, 0, 0)" stroke="rgb(204, 204, 204)" stroke-width="1px"></line><line x1="1080" y1="0" x2="1080" y2="17" fill="rgb(0, 0, 0)" stroke="rgb(204, 204, 204)" stroke-width="1px"></line><line x1="1260" y1="0" x2="1260" y2="17" fill="rgb(0, 0, 0)" stroke="rgb(204, 204, 204)" stroke-width="1px"></line><line x1="1440" y1="0" x2="1440" y2="17" fill="rgb(0, 0, 0)" stroke="rgb(204, 204, 204)" stroke-width="1px"></line></g><line x1="0" y1="0" x2="1440" y2="0" style="visibility: inherit;" fill="rgb(0, 0, 0)" stroke="rgb(204, 204, 204)" stroke-width="1px"></line></g><g visibility="inherit"><g><g transform="translate(90,0)" style="visibility: inherit;"><text transform="translate(0,31)" style="text-anchor: middle; font-family: &quot;Helvetica Neue&quot;, sans-serif; font-size: 12px; font-weight: 200;" fill="rgb(50, 49, 63)" stroke="none" stroke-width="1px">April  5, 2020</text></g><g transform="translate(270,0)" style="visibility: inherit;"><text transform="translate(0,31)" style="text-anchor: middle; font-family: &quot;Helvetica Neue&quot;, sans-serif; font-size: 12px; font-weight: 200;" fill="rgb(50, 49, 63)" stroke="none" stroke-width="1px">April  5, 2020</text></g><g transform="translate(450,0)" style="visibility: inherit;"><text transform="translate(0,31)" style="text-anchor: middle; font-family: &quot;Helvetica Neue&quot;, sans-serif; font-size: 12px; font-weight: 200;" fill="rgb(50, 49, 63)" stroke="none" stroke-width="1px">April  5, 2020</text></g><g transform="translate(630,0)" style="visibility: inherit;"><text transform="translate(0,31)" style="text-anchor: middle; font-family: &quot;Helvetica Neue&quot;, sans-serif; font-size: 12px; font-weight: 200;" fill="rgb(50, 49, 63)" stroke="none" stroke-width="1px">April  5, 2020</text></g><g transform="translate(810,0)" style="visibility: inherit;"><text transform="translate(0,31)" style="text-anchor: middle; font-family: &quot;Helvetica Neue&quot;, sans-serif; font-size: 12px; font-weight: 200;" fill="rgb(50, 49, 63)" stroke="none" stroke-width="1px">April  5, 2020</text></g><g transform="translate(990,0)" style="visibility: inherit;"><text transform="translate(0,31)" style="text-anchor: middle; font-family: &quot;Helvetica Neue&quot;, sans-serif; font-size: 12px; font-weight: 200;" fill="rgb(50, 49, 63)" stroke="none" stroke-width="1px">April  5, 2020</text></g><g transform="translate(1170,0)" style="visibility: inherit;"><text transform="translate(0,31)" style="text-anchor: middle; font-family: &quot;Helvetica Neue&quot;, sans-serif; font-size: 12px; font-weight: 200;" fill="rgb(50, 49, 63)" stroke="none" stroke-width="1px">April  5, 2020</text></g><g transform="translate(1350,0)" style="visibility: inherit;"><text transform="translate(0,31)" style="text-anchor: middle; font-family: &quot;Helvetica Neue&quot;, sans-serif; font-size: 12px; font-weight: 200;" fill="rgb(50, 49, 63)" stroke="none" stroke-width="1px">April  5, 2020</text></g></g><g><line x1="0" y1="17" x2="0" y2="34" fill="rgb(0, 0, 0)" stroke="rgb(204, 204, 204)" stroke-width="1px"></line><line x1="180" y1="17" x2="180" y2="34" fill="rgb(0, 0, 0)" stroke="rgb(204, 204, 204)" stroke-width="1px"></line><line x1="360" y1="17" x2="360" y2="34" fill="rgb(0, 0, 0)" stroke="rgb(204, 204, 204)" stroke-width="1px"></line><line x1="540" y1="17" x2="540" y2="34" fill="rgb(0, 0, 0)" stroke="rgb(204, 204, 204)" stroke-width="1px"></line><line x1="720" y1="17" x2="720" y2="34" fill="rgb(0, 0, 0)" stroke="rgb(204, 204, 204)" stroke-width="1px"></line><line x1="900" y1="17" x2="900" y2="34" fill="rgb(0, 0, 0)" stroke="rgb(204, 204, 204)" stroke-width="1px"></line><line x1="1080" y1="17" x2="1080" y2="34" fill="rgb(0, 0, 0)" stroke="rgb(204, 204, 204)" stroke-width="1px"></line><line x1="1260" y1="17" x2="1260" y2="34" fill="rgb(0, 0, 0)" stroke="rgb(204, 204, 204)" stroke-width="1px"></line><line x1="1440" y1="17" x2="1440" y2="34" fill="rgb(0, 0, 0)" stroke="rgb(204, 204, 204)" stroke-width="1px"></line></g><line x1="0" y1="17" x2="1440" y2="17" style="visibility: inherit;" fill="rgb(0, 0, 0)" stroke="rgb(204, 204, 204)" stroke-width="1px"></line></g></g></g></g></g></svg>