<svg viewBox="0 0 1498 400" xmlns="http://www.w3.org/2000/svg"><g><g><g><g><g><line x1="34" y1="366" x2="29" y2="366" style="visibility: inherit;" fill="rgb(0, 0, 0)" stroke="rgb(204, 204, 204)" stroke-width="1px"></line><line x1="34" y1="320.25" x2="29" y2="320.25" style="visibility: inherit;" fill="rgb(0, 0, 0)" stroke="rgb(204, 204, 204)" stroke-width="1px"></line><line x1="34" y1="274.5" x2="29" y2="274.5" style="visibility: inherit;" fill="rgb(0, 0, 0)" stroke="rgb(204, 204, 204)" stroke-width="1px"></line><line x1="34" y1="228.75" x2="29" y2="228.75" style="visibility: inherit;" fill="rgb(0, 0, 0)" stroke="rgb(204, 204, 204)" stroke-width="1px"></line><line x1="34" y1="183" x2="29" y2="183" style="visibility: inherit;" fill="rgb(0, 0, 0)" stroke="rgb(204, 204, 204)" stroke-width="1px"></line><line x1="34" y1="137.25" x2="29" y2="137.25" style="visibility: inherit;" fill="rgb(0, 0, 0)" stroke="rgb(204, 204, 204)" stroke-width="1px"></line><line x1="34" y1="91.5" x2="29" y2="91.5" style="visibility: inherit;" fill="rgb(0, 0, 0)" stroke="rgb(204, 204, 204)" stroke-width="1px"></line><line x1="34" y1="45.75" x2="29" y2="45.75" style="visibility: inherit;" fill="rgb(0, 0, 0)" stroke="rgb(204, 204, 204)" stroke-width="1px"></line><line x1="34" y1="0" x2="29" y2="0" style="visibility: inherit;" fill="rgb(0, 0, 0)" stroke="rgb(204, 204, 204)" stroke-width="1px"></line></g><g transform="translate(24, 0)"><text x="0" y="366" dx="0em" dy="0.3em" style="text-anchor: end; visibility: hidden; font-family: &quot;Helvetica Neue&quot;, sans-serif; font-size: 12px; font-weight: 200;" fill="rgb(50, 49, 63)" stroke="none" stroke-width="1px">-2</text><text x="0" y="320.25" dx="0em" dy="0.3em" style="text-anchor: end; visibility: inherit; font-family: &quot;Helvetica Neue&quot;, sans-serif; font-size: 12px; font-weight: 200;" fill="rgb(50, 49, 63)" stroke="none" stroke-width="1px">0</text><text x="0" y="274.5" dx="0em" dy="0.3em" style="text-anchor: end; visibility: inherit; font-family: &quot;Helvetica Neue&quot;, sans-serif; font-size: 12px; font-weight: 200;" fill="rgb(50, 49, 63)" stroke="none" stroke-width="1px">2</text><text x="0" y="228.75" dx="0em" dy="0.3em" style="text-anchor: end; visibility: inherit; font-family: &quot;Helvetica Neue&quot;, sans-serif; font-size: 12px; font-weight: 200;" fill="rgb(50, 49, 63)" stroke="none" stroke-width="1px">4</text><text x="0" y="183" dx="0em" dy="0.3em" style="text-anchor: end; visibility: inherit; font-family: &quot;Helvetica Neue&quot;, sans-serif; font-size: 12px; font-weight: 200;" fill="rgb(50, 49, 63)" stroke="none" stroke-width="1px">6</text><text x="0" y="137.25" dx="0em" dy="0.3em" style="text-anchor: end; visibility: inherit; font-family: &quot;Helvetica Neue&quot;, sans-serif; font-size: 12px; font-weight: 200;" fill="rgb(50, 49, 63)" stroke="none" stroke-width="1px">8</text><text x="0" y="91.5" dx="0em" dy="0.3em" style="text-anchor: end; visibility: inherit; font-family: &quot;Helvetica Neue&quot;, sans-serif; font-size: 12px; font-weight: 200;" fill="rgb(50, 49, 63)" stroke="none" stroke-width="1px">10</text><text x="0" y="45.75" dx="0em" dy="0.3em" style="text-anchor: end; visibility: inherit; font-family: &quot;Helvetica Neue&quot;, sans-serif; font-size: 12px; font-weight: 200;" fill="rgb(50, 49, 63)" stroke="none" stroke-width="1px">12</text><text x="0" y="0" dx="0em" dy="0.3em" style="text-anchor: end; visibility: hidden; font-family: &quot;Helvetica Neue&quot;, sans-serif; font-size: 12px; font-weight: 200;" fill="rgb(50, 49, 63)" stroke="none" stroke-width="1px">14</text></g><line x1="34" y1="0" x2="34" y2="366" fill="rgb(0, 0, 0)" stroke="rgb(204, 204, 204)" stroke-width="1px"></line></g></g><g transform="translate(34, 0)" clip-path="url(#clip_0)"><clipPath id="clip_0"><rect width="1464" height="366"></rect></clipPath><g><g><g><line x1="0" y1="0" x2="0" y2="366" fill="rgb(0, 0, 0)" stroke="rgb(60, 60, 60)" stroke-width="1px" opacity="0.25"></line><line x1="133.0909090909091" y1="0" x2="133.0909090909091" y2="366" fill="rgb(0, 0, 0)" stroke="rgb(60, 60, 60)" stroke-width="1px" opacity="0.25"></line><line x1="266.1818181818182" y1="0" x2="266.1818181818182" y2="366" fill="rgb(0, 0, 0)" stroke="rgb(60, 60, 60)" stroke-width="1px" opacity="0.25"></line><line x1="399.27272727272725" y1="0" x2="399.27272727272725" y2="366" fill="rgb(0, 0, 0)" stroke="rgb(60, 60, 60)" stroke-width="1px" opacity="0.25"></line><line x1="532.3636363636364" y1="0" x2="532.3636363636364" y2="366" fill="rgb(0, 0, 0)" stroke="rgb(60, 60, 60)" stroke-width="1px" opacity="0.25"></line><line x1="665.4545454545454" y1="0" x2="665.4545454545454" y2="366" fill="rgb(0, 0, 0)" stroke="rgb(60, 60, 60)" stroke-width="1px" opacity="0.25"></line><line x1="798.5454545454545" y1="0" x2="798.5454545454545" y2="366" fill="rgb(0, 0, 0)" stroke="rgb(60, 60, 60)" stroke-width="1px" opacity="0.25"></line><line x1="931.6363636363636" y1="0" x2="931.6363636363636" y2="366" fill="rgb(0, 0, 0)" stroke="rgb(60, 60, 60)" stroke-width="1px" opacity="0.25"></line><line x1="1064.7272727272727" y1="0" x2="1064.7272727272727" y2="366" fill="rgb(0, 0, 0)" stroke="rgb(60, 60, 60)" stroke-width="1px" opacity="0.25"></line><line x1="1197.818181818182" y1="0" x2="1197.818181818182" y2="366" fill="rgb(0, 0, 0)" stroke="rgb(60, 60, 60)" stroke-width="1px" opacity="0.25"></line><line x1="1330.9090909090908" y1="0" x2="1330.9090909090908" y2="366" fill="rgb(0, 0, 0)" stroke="rgb(60, 60, 60)" stroke-width="1px" opacity="0.25"></line><line x1="1464" y1="0" x2="1464" y2="366" fill="rgb(0, 0, 0)" stroke="rgb(60, 60, 60)" stroke-width="1px" opacity="0.25"></line></g><g><line x1="0" y1="366" x2="1464" y2="366" fill="rgb(0, 0, 0)" stroke="rgb(60, 60, 60)" stroke-width="1px" opacity="0.25"></line><line x1="0" y1="320.25" x2="1464" y2="320.25" fill="rgb(0, 0, 0)" stroke="rgb(60, 60, 60)" stroke-width="1px" opacity="0.25"></line><line x1="0" y1="274.5" x2="1464" y2="274.5" fill="rgb(0, 0, 0)" stroke="rgb(60, 60, 60)" stroke-width="1px" opacity="0.25"></line><line x1="0" y1="228.75" x2="1464" y2="228.75" fill="rgb(0, 0, 0)" stroke="rgb(60, 60, 60)" stroke-width="1px" opacity="0.25"></line><line x1="0" y1="183" x2="1464" y2="183" fill="rgb(0, 0, 0)" stroke="rgb(60, 60, 60)" stroke-width="1px" opacity="0.25"></line><line x1="0" y1="137.25" x2="1464" y2="137.25" fill="rgb(0, 0, 0)" stroke="rgb(60, 60, 60)" stroke-width="1px" opacity="0.25"></line><line x1="0" y1="91.5" x2="1464" y2="91.5" fill="rgb(0, 0, 0)" stroke="rgb(60, 60, 60)" stroke-width="1px" opacity="0.25"></line><line x1="0" y1="45.75" x2="1464" y2="45.75" fill="rgb(0, 0, 0)" stroke="rgb(60, 60, 60)" stroke-width="1px" opacity="0.25"></line><line x1="0" y1="0" x2="1464" y2="0" fill="rgb(0, 0, 0)" stroke="rgb(60, 60, 60)" stroke-width="1px" opacity="0.25"></line></g></g></g><g><g><line x1="0" y1="320.25" x2="1464" y2="320.25" fill="rgb(0, 0, 0)" stroke="rgb(153, 153, 153)" stroke-width="1.5px"></line></g></g><g><g><line x1="-117104162.18181819" y1="0" x2="-117104162.18181819" y2="366" fill="rgb(0, 0, 0)" stroke="rgb(153, 153, 153)" stroke-width="1.5px"></line></g></g><g><g><g><g><g><path stroke="rgb(204, 51, 17)" stroke-width="2px" d="M88.97837090909091,68.99745261669159L90.25929696969696,135.60501730442047L91.65268484848484,157.68342071771622L92.37189333333333,164.61787194013596L93.65688606060606,174.72808545827866L94.9146690909091,180.87575697898865L95.54478060606061,183.0993468761444L96.1739309090909,185.24913561344147L96.80337696969697,187.13702076673508L97.4327490909091,188.44985461235046L98.06249090909091,189.6225033402443L98.69193696969697,190.91236567497253L99.3209393939394,191.93992084264755L99.9504593939394,192.6756091117859L100.57983151515153,193.86485928297043L101.20890787878788,194.3179521560669L102.46905696969696,195.50088679790497L103.72794909090909,196.5471704006195L104.3570993939394,197.03858184814453L107.50588242424243,198.92263841629028L108.13510666666667,199.25693607330322L108.7643309090909,199.64259785413742L109.39340727272726,200.03053933382034L110.02292727272726,200.23065108060837L118.6635587878788,211.11518776416779L120.5615090909091,211.29033190011978L121.19383878787879,210.91399616003036L122.45953333333333,211.66389709711075L123.0920109090909,211.4370179772377L123.72426666666667,211.48789125680923L124.35785333333334,211.36076259613037L124.99092242424243,211.07079362869263L125.62354787878787,210.91528326272964L126.8880593939394,210.88136047124863L127.5209806060606,211.0347220301628L129.41952242424244,211.12343394756317L130.0525915151515,211.1796846985817L130.68521696969697,211.14137703180313L131.31717696969696,211.1852257847786L131.9499503030303,211.2259658575058L133.8475309090909,211.3587446808815L134.4800084848485,211.54072791337967L135.11418666666668,211.40942162275314L135.74688606060604,211.26659685373306L136.3791418181818,211.21214586496353L137.01561212121211,211.0554792881012L137.6537090909091,210.90413564443588L138.29380242424241,210.9709450006485L138.92872,211.05425763130188L139.56363757575758,211.00001388788223L148.56139636363636,211.37171387672424L149.2893296969697,214.78418308496475L149.9442109090909,215.93797248601913L150.59192,215.13719826936722L151.8768387878788,213.67927086353302L153.17299636363637,213.07570695877075L153.83246181818183,212.93968856334686L155.13061575757575,212.50523686408997L155.7806909090909,212.65256649255753L157.06886303030302,212.22720086574554L157.70954787878787,212.0533765554428L158.35008484848484,212.30401253700256L158.98958666666667,212.30937910079956L159.6301975757576,211.97472149133682L160.27650181818183,212.16965210437775L161.57665212121213,212.09526193141937L162.22273454545456,212.04814088344574L162.86911272727272,212.02958697080612L163.51186787878788,212.01850479841232L164.8137187878788,212.13408225774765L166.74952606060606,212.03777861595154L167.41335393939394,212.03914207220078L168.70766303030302,211.76327669620514L170.02282303030302,211.87945407629013L170.6898303030303,211.81794583797455L171.36378787878786,211.82009464502335L181.2020896969697,214.5698259472847L181.84018666666665,213.6785727739334L183.78235272727272,213.76930260658264L185.7063296969697,213.7141317129135L186.33947272727275,213.40894657373428L186.9803793939394,213.4467961192131L187.61322666666666,213.5572251677513L188.25450303030303,213.54074370861053L190.19556,213.4178690314293L190.84031151515154,213.26981949806213L191.49696727272726,213.22630888223648L192.15554545454546,213.16307723522186L192.8005187878788,213.0808226466179L194.07819151515153,213.13714975118637L194.71658424242426,213.18681228160858L196.64455393939392,212.99175077676773L198.60025090909093,212.9828828573227L199.23472484848483,212.91141593456268L200.50544727272728,212.62037801742554L201.78910909090908,212.60116964578629L210.2919175757576,183.09564918279648L210.93666909090908,209.99327051639557L211.58216000000002,211.36119890213013L212.25197696969695,211.78269231319427L212.89443636363637,211.4625855088234L214.1820909090909,212.9497999548912L214.82196242424243,212.5825502872467L215.4675272727273,213.1135237812996L216.12159515151515,212.96354359388351L217.39808484848484,213.13092148303986L218.03455515151515,213.11077505350113L218.7037806060606,213.24889862537384L220.00866303030304,213.54612118005753L220.64779515151517,213.54961162805557L221.28737090909092,213.79503375291824L222.58345454545454,213.76541948318481L223.2395927272727,213.54577213525772L224.51800484848485,213.26919776201248L225.16460484848486,213.1948403120041L226.46660363636366,213.0030838251114L227.11719636363637,213.0902904868126L227.75529333333333,213.27555692195892L229.0797696969697,213.4991528391838L229.71594424242426,213.50073444843292L231.6117503030303,213.27175015211105L232.2545793939394,213.18429261446L232.89925696969698,213.20329374074936L241.44975636363637,216.19588387012482L242.72454545454545,215.25298297405243L243.36027636363636,214.46824300289154L244.65783878787877,213.20121037960052L245.94926424242425,213.55160772800446L246.59786060606064,214.05767905712128L247.25148484848486,214.25265330076218L247.89919393939394,213.9321974515915L249.19461212121215,213.97014516592026L249.83270909090908,213.7282898426056L251.78781454545455,214.16998422145844L254.46094545454548,213.5770879983902L255.09867272727274,213.61320322752L257.0380290909091,213.53534442186356L257.6906921212121,213.52369505167007L258.96437212121214,213.4224829673767L259.6264254545455,213.4691240787506L260.27302545454546,213.64135587215424L260.9265018181818,213.7463201880455L261.57162303030304,213.8853490948677L263.4979660606061,214.06471449136734L264.13199636363635,214.12777161598206L272.4430060606061,214.80728548765182L273.09241575757574,216.7363252043724L275.05373212121214,216.3049276471138L275.7052121212121,215.75801807641983L276.35018545454545,215.92341077327728L276.9910921212121,216.67494785785675L277.6430896969697,216.0187872648239L278.2982666666667,216.06111985445023L279.5808193939394,215.9803814291954L280.22438787878787,215.9541267156601L280.86418545454546,215.98417729139328L282.15095272727274,215.99904441833496L282.78993696969695,216.07200568914413L283.4583490909091,216.05147749185562L284.1177406060606,216.1515879034996L284.75842545454543,216.136589884758L285.4243236363636,216.1773517727852L286.08408484848485,216.14342898130417L287.3854181818182,216.1716034412384L288.02092727272725,216.27001225948334L289.3246266666667,216.22711247205734L291.9163503030303,216.20886397361755L292.5567393939394,216.2078713774681L293.8469078787879,216.0648939013481L294.49764848484847,216.22249853610992L303.1768763636364,201.56454759836197L303.82746909090906,214.39831405878067L304.4685975757576,217.70200127363205L305.11209212121213,216.22650164365768L305.7531466666667,216.4625431895256L307.04575515151515,218.05137330293655L309.00618424242424,218.2619673013687L309.66217454545455,217.9680279493332L310.31254545454544,217.98916697502136L310.95345212121214,217.87053537368774L312.25049696969694,217.40859639644623L313.52084969696966,217.31014394760132L314.80332848484846,217.06127500534058L316.13852606060607,217.08327573537827L317.49605333333335,217.10530918836594L318.156553939394,217.06075143814087L318.8132836363636,217.04453176259995L319.4792557575758,217.08131235837936L320.13154909090906,217.2522570490837L321.4447127272727,217.66323548555374L322.09427030303027,217.943333029747L323.40107515151516,218.07515197992325L324.0640896969697,218.09409856796265L324.71697454545455,218.04696661233902L326.0080303030303,218.1526399254799L337.17857212121214,216.20815497636795L338.44877696969695,218.28624773025513L339.09655999999995,218.39222645759583L340.4280606060606,218.0691527724266L341.0887090909091,218.2190893292427L341.7316121212121,218.747543156147L342.3671212121212,218.7396787405014L343.03531151515153,218.71272593736649L343.66911999999996,218.56691247224808L344.3061078787879,219.00450557470322L344.98139636363635,218.5758022069931L345.6158703030303,218.8910332918167L346.2588472727273,219.12450063228607L348.8169284848485,219.18437272310257L349.4645636363636,219.4007586836815L350.7613866666667,219.65499418973923L352.71405212121215,219.93551713228226L355.282263030303,219.9534820318222L355.936183030303,219.9917351603508L356.5705090909091,220.0569629073143L357.2104545454545,220.23197615146637L366.29072969696966,219.97319215536118L366.9299357575757,220.02613788843155L367.5767575757576,219.94199627637863L368.22927272727276,219.8997182250023L368.88252727272726,221.14020162820816L369.54073575757576,220.96832978725433L371.4547309090909,222.42646443843842L372.09859515151516,222.12460613250732L373.3882460606061,222.42390114068985L374.76802909090907,222.29413282871246L376.1016,222.4520319700241L377.43021696969697,222.73113691806793L378.8060812121212,222.916883289814L379.47212727272733,222.99600738286972L380.1256036363637,222.93411737680435L380.75808121212117,223.02721416950226L381.39832242424245,222.73241311311722L382.05527393939394,222.85562592744827L382.6952193939394,222.8182454109192L383.3438896969697,222.89885294437408L383.97939878787884,222.91139674186707L385.28139757575764,222.82064509391785L386.56942181818175,222.6303938627243L387.2228981818182,222.6532781124115L388.55883515151515,222.52521139383316L398.2040812121212,224.29673373699188L398.91515636363636,225.18588173389435L399.61380969696967,223.9528482556343L400.2575260606061,222.17207622528076L400.9004290909091,221.51467216014862L401.54081818181817,221.6246103644371L402.20471999999995,222.16167032718658L402.8481406060606,222.34619504213333L403.50767999999994,221.78470194339752L404.1552412121212,222.1507408618927L404.811823030303,221.80893874168396L406.09430181818186,222.0512085556984L406.73446909090904,222.00398933887482L408.02256727272726,222.4118154644966L409.31,222.69339644908905L409.99268242424245,222.6817143559456L410.6640521212121,222.8190962076187L411.309616969697,222.76142746210098L411.9529636363636,222.75129425525665L413.25703272727276,223.15932762622833L413.8940206060606,223.1161333322525L415.19165696969696,223.32134985923767L415.8468339393939,223.35798865556717L416.49395151515154,223.36141365766525L417.1431393939394,223.50385665893555L417.78774303030303,223.39829242229462L419.0893721212121,223.39356940984726L419.7401127272727,223.440483212471L428.13238181818184,219.1594705581665L428.78851999999995,229.34150004386902L430.71678545454546,221.92016404867172L432.00517939393944,222.00763249397278L432.6525187878788,222.27130311727524L433.93314909090907,222.56759852170944L434.5740557575757,222.8995401263237L435.2098606060606,222.91447269916534L436.5030606060606,222.71165585517883L437.16659272727276,222.81260615587234L438.5829018181818,223.13600707054138L439.9190606060606,223.2800316810608L443.14377939393944,224.05816161632538L443.7781793939394,224.16379129886627L445.71812727272726,224.41152584552765L446.37286060606067,224.33953535556793L447.0180557575757,224.37401443719864L447.65644848484845,224.35536235570908L448.2913660606061,224.482371032238L448.93397333333337,224.60776537656784L450.26303393939395,224.65652257204056L459.3129939393939,223.4526452422142L460.59887393939397,227.90674048662186L461.9107066666666,228.16610258817673L463.81353696969694,227.03129249811172L464.4481587878788,227.60975790023804L466.3804169696969,227.17481535673141L467.0276824242424,227.20642572641373L467.67864484848485,226.6899921298027L468.3292375757576,226.51016861200333L469.6103854545455,226.4033499956131L470.2447115151515,226.56011474132538L472.15907636363636,226.69936180114746L472.81388363636364,226.78405970335007L474.1055309090909,226.67762285470963L476.03438787878787,226.62306278944016L476.67603393939396,226.65768367052078L477.97825454545455,226.64400547742844L478.619383030303,226.70184874534607L479.26213818181816,226.5924341082573L479.90481939393936,226.77752602100372L480.5477963636364,226.8435173034668L481.18286181818183,226.86749231815338L481.84772484848486,226.78083103895187L490.38824242424243,228.26342064142227L491.04467636363637,229.17600917816162L491.6857309090909,229.81020721793175L492.3364715151515,229.72918519377708L493.0048836363636,228.69060784578323L493.64386787878783,228.1050415635109L494.91821333333337,228.15015560388565L496.21740242424244,228.05348110198975L496.86925212121207,227.96845597028732L498.81038303030306,228.3053496479988L499.4663733333333,228.2311885356903L502.04885454545456,228.75539928674698L503.98532727272726,228.7944813966751L504.62837818181816,228.76705411076546L505.9181030303031,228.61625039577484L506.5568654545454,228.50218909978867L507.8539103030303,228.4215161204338L508.4998448484848,228.49286305904388L509.14600121212123,228.3416393995285L511.0920121212121,228.33168071508408L511.7434921212121,228.33819258213043L520.694816969697,245.05159744620323L523.2999236363636,228.43799757957458L523.9478545454546,229.178894251585L525.2385406060606,228.37978345155716L525.8790036363637,228.68855720758438L526.5158436363637,229.05741029977798L527.1537187878788,229.00044509768486L527.8009842424243,228.75742265582085L528.4452181818182,228.74133932590485L529.09692,229.66635167598724L530.3893066666667,229.84107586741447L531.0312484848484,229.9369759261608L531.6746690909091,230.2515361905098L532.3124703030303,230.56402400135994L532.9514545454546,230.0887395143509L533.6100327272727,230.08628529310226L534.2657272727273,230.15612697601318L536.21196,230.10845509171486L536.8592254545455,229.9289315342903L537.5049381818181,229.79930502176285L541.3672363636364,230.00228548049927L542.6708618181818,229.95266112685204L543.3102896969697,229.96222713589668L551.809623030303,226.4483985900879L552.4472763636364,228.83688488602638L553.0822678787879,233.54004541039467L553.7165939393939,232.04323223233223L554.3535078787879,230.85657808184624L554.9906436363636,229.52253431081772L555.6252654545455,229.4591445028782L556.2716436363636,230.37828308343887L557.0059357575758,230.52681800723076L557.7250703030303,230.53546777367592L558.4076048484849,230.94339206814766L559.0524303030303,230.53881642222404L559.7422848484848,230.40636482834816L560.3847442424243,230.86836379766464L561.0245418181818,230.88742491602898L562.3039151515152,231.28362348675728L562.9539163636364,231.50313448905945L563.59364,231.24095821380615L564.8841781818182,231.2821727693081L566.1604460606061,231.03407281637192L567.43664,231.1336705684662L568.0773987878788,231.05328664183617L570.0037418181818,231.1105681657791L570.65012,231.00795990228653L571.2945757575758,231.26586037874222L572.5774242424242,231.13278704881668L573.2224715151515,230.8561035990715L573.8583503030303,230.73446694016457L582.7467527272727,238.96704849600792L583.3822618181819,236.45666921138763L584.0370690909091,234.42231613397598L584.6798242424243,235.08772096037865L585.9632642424242,235.6162347793579L586.604023030303,235.16362729668617L587.2444121212121,234.27829697728157L587.8820654545455,234.30212473869324L588.5299963636363,234.62256422638893L589.1680933333333,233.74637451767921L589.8161721212122,234.19957646727562L590.4642509090909,234.45507726073265L591.1116642424242,234.31083995103836L592.388153939394,234.39293637871742L593.0287648484848,233.67627105116844L593.6716678787878,233.42217734456062L595.6032606060606,233.04510533809662L596.2440193939394,232.75893223285675L596.8816727272728,232.52513220906258L598.1621551515152,232.1426500082016L598.9043587878788,232.30978247523308L599.6118848484848,232.23793378472328L600.2763781818182,232.3539039194584L601.661189090909,232.34776291251183L603.0469612121212,232.60917565226555L603.6956315151515,232.33097058534622L604.334393939394,232.27146935462952L613.7825175757577,220.836663544178L615.0798581818182,229.31994652748108L616.4964630303031,233.01317864656448L617.1432848484849,232.79039534926414L617.7784242424242,232.27287644147873L619.7540109090909,232.34497600793839L622.3959393939394,232.82278016209602L623.0798048484849,232.79164427518845L623.8694036363637,232.89084389805794L624.6808145454545,232.85887357592583L625.4912642424242,232.64548721909523L626.9971139393939,232.1144319176674L627.7084848484849,232.31643614172935L629.9311769696969,232.44944402575493L630.5760024242425,232.54822915792465L631.8530096969697,233.03257244825363L633.1242496969696,233.3098176419735L633.7585018181818,233.26220574975014L635.6963054545455,233.45249515771866L637.0854787878787,233.47819903492928L637.7832448484849,233.55226743221283L646.8875503030303,223.06346029043198L647.530749090909,234.46691206097603L648.2155018181818,235.41885539889336L648.903433939394,234.27103793621063L649.6147309090909,234.86180171370506L650.2798896969697,235.2252391576767L650.9240496969696,235.4168265759945L651.5637733333333,235.5551519393921L652.2094860606061,235.496326982975L652.8546812121212,235.2684825360775L653.4975842424242,235.2279333472252L656.0803612121211,235.85531410574913L656.7178666666667,235.4279032945633L658.0047078787878,235.2162948846817L659.3006436363637,235.25178837776184L659.9425115151515,235.33285403251648L660.5802387878788,235.37341958284378L661.2317927272727,235.398032695055L661.8846775757576,235.45049303770065L662.5356400000001,235.27417087554932L663.1837187878788,235.31420195102692L663.8462896969697,235.20159682631493L664.4902278787879,235.3715925514698L665.7868290909091,235.3090262711048L666.4391224242424,235.09356746077538L667.0843175757576,235.1594714820385L667.7304,235.0886862874031L668.3679793939394,235.11097061634064L669.6783333333334,235.1825193464756L677.8512242424242,242.67420423030853L678.4986375757576,246.15051591396332L679.1481212121213,243.3926856815815L679.8058860606061,242.23849815130234L680.4690484848485,240.87720161676407L681.1218593939394,240.0868605673313L681.7593648484848,239.0214013159275L682.3945781818181,238.23228192329407L683.0414000000001,237.66612035036087L683.6914751515152,238.362841039896L684.3266145454545,238.17244800925255L684.9912557575758,237.40185526013374L686.9351963636364,237.29859253764153L688.2457721212121,237.18398040533066L689.5364581818181,237.1240155994892L691.4662763636363,237.29582744836807L692.1069612121212,237.28619053959846L692.7616206060607,236.95285820960999L693.4068157575757,237.07533475756645L694.0503842424242,237.22118094563484L694.6886290909091,237.17577239871025L695.3238424242425,237.24798649549484L695.9765054545454,237.19412451982498L696.6439563636363,237.10280567407608L697.3026824242424,237.0645198225975L697.9517963636363,236.92450377345085L698.6214654545455,237.00462046265602L699.2741284848485,236.98377594351768L708.9181175757575,234.20793718099594L709.5621296969697,238.24052810668945L710.2051806060606,237.6027850806713L711.4939442424243,239.0730654001236L712.1389915151515,239.43503031134605L713.4085309090909,238.77611008286476L714.0479587878788,238.58888027071953L714.6958896969697,238.51732063293457L715.3514363636364,238.16837400197983L716.027833939394,238.24147161841393L716.8016096969696,237.96669700741768L719.0993503030303,237.99533504247665L719.8406666666666,238.3730342388153L720.5789515151515,238.34182199835777L723.4089818181818,238.66153612732887L724.0898157575758,238.55797889828682L725.3806496969697,238.66875699162483L726.0287284848484,238.6657792031765L726.6620933333334,238.63712480664253L727.3095806060606,238.602334856987L728.602410909091,238.64479833841324L729.8999733333333,238.92537036538124L730.5537454545454,238.8955761194229L731.2112145454546,238.7108168900013L741.0939539393939,241.15728279948235L741.7814424242424,238.6289440691471L742.4192436363637,237.09941339492798L743.1102812121212,237.17432713508606L743.788970909091,238.7176178097725L744.4547212121213,238.4536635875702L745.136886060606,239.06063067913055L745.8648193939395,239.28774431347847L747.90148,239.5838324725628L748.5524424242425,239.4281475841999L749.8541454545455,238.97589460015297L751.1484545454546,239.1166414618492L751.8108036363636,239.21610286831856L752.450970909091,239.45537853240967L753.1088096969697,239.5528820157051L754.429663030303,239.87769001722336L755.0789987878787,239.82549691200256L755.7255987878788,239.65543028712273L756.3807018181818,239.56585121154785L757.0297418181818,239.69841188192368L757.6653248484849,239.63978871703148L758.3108896969698,239.57153409719467L758.9518703030302,239.4996417760849L760.8809490909091,239.37289488315582L761.5255527272727,239.19430392980576L762.8193442424243,239.3277153968811L763.4775527272727,239.3734838962555L764.1243745454545,239.42246469855309L772.3658072727272,234.31421041488647L773.8145757575758,239.06244680285454L775.148812121212,240.7586409151554L775.8181115151515,240.78037986159325L776.4633066666667,241.52554687857628L777.1077624242424,241.61572042107582L777.7607212121212,241.79425138235092L778.4171551515152,241.7883994281292L779.0537733333333,242.14692842960358L779.6937187878788,242.803825289011L780.9934254545454,242.7225087583065L781.656513939394,242.45919808745384L782.2930581818182,242.8999653160572L783.5956484848484,242.5713396370411L784.884633939394,242.14731565117836L785.5241357575758,242.07368355989456L786.1800521212122,242.1767226755619L786.8350812121212,242.3527666926384L787.4848606060606,242.3636525273323L788.1266545454545,242.43052732944489L789.4245866666666,242.2884333729744L790.0762145454546,242.16621315479279L790.7347187878788,242.03906813263893L792.0120957575757,242.1004345715046L792.6507103030303,242.1456140577793L793.9300096969697,242.04757609963417L803.5570666666667,242.75598978996277L804.8493793939393,247.01065501570702L805.4992327272727,247.43524619936943L806.1395478787879,246.40661662817L808.146263030303,246.73235177993774L808.802623030303,246.25069177150726L810.1064703030303,245.56701117753983L810.7530703030302,245.27118480205536L812.0355490909091,245.1483483016491L812.6717236363636,244.96385085582733L813.3059757575758,245.0389609336853L814.6027248484849,244.6794011592865L815.2518387878788,244.77938613295555L817.1927478787879,244.91518637537956L817.8395696969698,244.87785494327545L819.1522896969698,244.4129545390606L819.7890557575759,244.274601906538L820.4251563636363,244.05241852998734L821.0700557575758,244.0085261464119L822.3444012121212,243.97716119885445L822.9968424242423,243.8757146000862L823.6595612121212,243.7694086432457L824.3070484848485,243.59666419029236L825.6077163636363,243.64866095781326L834.3625842424242,245.11894673109055L835.6378169696969,245.33220219612122L836.272216969697,244.5539631843567L836.9107575757575,245.26783615350723L837.5457490909091,244.8622133731842L838.1849551515152,245.64773869514465L840.7224812121211,245.53325200080872L841.357103030303,245.51616516709328L841.9922424242425,245.1000874042511L842.6239806060605,244.97504210472107L844.5702872727272,245.03279811143875L845.2044654545455,244.64672183990479L845.8512133333334,244.93607997894287L846.4853175757574,244.66359052062035L847.1194218181819,244.8675908446312L847.7541915151515,244.75184977054596L848.3932496969697,244.91514819860458L849.0435466666665,244.79559490084648L849.6891854545455,244.62730076909065L850.3228460606061,244.54100489616394L851.591572121212,244.46321699023247L852.2302606060606,244.6618780195713L852.8747163636363,244.6633341908455L853.5121478787879,244.60765609145164L854.1440339393939,244.5857698917389L854.779616969697,244.68585848808289L855.4252557575757,244.75698727369308L864.395583030303,251.57076716423035L865.0319054545454,248.76284354925156L865.6672666666666,248.92945790290833L866.329246060606,247.87954205274582L866.9697090909091,247.82618728280067L867.6066230303031,247.7548457980156L868.8905806060607,247.81049117445946L869.5254981818182,246.9474070072174L872.0900121212121,247.55120542645454L872.7259648484849,247.58104875683784L874.0016412121212,246.9745834171772L874.6512727272727,246.7474588751793L875.2895915151515,246.7561904489994L875.9265054545453,246.86156925559044L876.5846399999999,246.88926377892494L877.2212581818181,246.9086303114891L877.8663054545455,246.7344133257866L879.1480448484848,246.30301576852798L879.7913175757576,246.31471422314644L880.4303018181818,246.46142211556435L881.0954606060607,246.41910043358803L882.4006387878787,246.45736446976662L883.044503030303,246.49800637364388L883.6839309090909,246.4266703426838L884.323136969697,246.48882213234901L884.9600509090909,246.3081478178501L885.6093866666668,246.2536422908306L897.1048921212122,246.61889040470123L897.7524533333333,247.41145116090775L898.4023806060605,247.89008429646492L899.053343030303,247.84319776296616L899.6998690909091,247.8729429244995L902.2734775757576,248.6625313460827L904.1960496969697,248.94955524802208L904.8316327272728,248.79769349098206L906.1078266666666,248.6920201778412L908.0621927272726,248.25543603301048L908.7181830303031,248.4355649650097L909.9914933333333,248.35323402285576L910.6276678787879,248.2257181406021L911.2933442424242,248.3551101386547L911.943936969697,248.45650765299797L913.2315915151514,248.36060214042664L913.8693187878788,248.44349482655525L914.5095600000001,248.44169506430626L915.1505406060605,248.27339547872543L915.7983975757576,248.27176478505135L916.4359030303029,247.97220253944397L917.0743696969697,247.96456718444824L925.5451624242424,255.71878284215927L926.1931672727272,256.04190015792847L927.4811175757576,254.52683302760124L928.1220981818182,252.48337751626968L929.4019151515151,252.18234819173813L930.6809927272727,251.58458170294762L931.3160581818182,251.6866445839405L932.5986848484848,251.3067093193531L933.9019406060605,250.181001663208L934.5404072727273,250.5381017625332L935.175103030303,250.73062723875046L935.82052,250.54964751005173L937.7626121212121,250.38466930389404L938.4018921212121,250.48596319556236L939.0700084848486,250.05082976818085L939.7101757575757,250.15967175364494L940.9813418181819,250.35530045628548L941.6178121212122,250.31926703453064L942.2542084848484,250.5325170457363L942.8923793939393,250.4898463189602L943.52848,250.66969710588455L946.7478751515151,250.2199801504612L947.3826448484848,250.0264184474945L956.4142678787879,255.32170075178146L957.0644909090909,253.44279804825783L958.3335866666666,254.2184737622738L958.9717575757577,254.84614357352257L959.6175442424243,254.7887311577797L960.2517963636363,254.4489796757698L961.5202266666666,252.80766195058823L962.1682315151515,253.01260578632355L962.8079551515152,252.756259649992L964.1144642424242,252.14287886023521L964.7534484848484,253.05188423395157L965.3913236363637,253.30894482135773L966.0304557575757,253.2221417427063L967.3096072727272,252.52650091052055L967.9438593939394,252.74951872229576L969.2132509090909,252.57201853394508L971.1299078787879,252.613271266222L972.43516,252.58893629908562L973.0920375757576,252.60411974787712L973.7310957575758,252.5108647942543L974.3641648484847,252.39949768781662L975.6385103030303,252.5837715268135L976.9132254545455,252.51841834187508L977.5463684848485,252.5468109548092L978.1934860606061,252.46196579933167L978.8261115151515,252.4413721561432L987.4614193939394,256.9141194820404L988.0972242424243,257.0592348575592L988.7554327272727,255.95330822467804L989.3970787878789,255.46126958727837L990.0479672727272,255.41263782978058L992.0055127272727,255.08756259083748L992.6466412121213,255.11284652352333L993.2817806060606,254.08446782827377L996.513006060606,254.19750380516052L997.1490327272728,253.9782491326332L997.7839503030303,253.85456183552742L998.4227866666668,254.15831261873245L999.6944703030304,254.11725622415543L1000.3355248484849,254.2043210864067L1000.9833818181818,254.15763089060783L1001.6197781818182,254.19971805810928L1002.2597236363637,254.11879420280457L1005.4635915151515,253.94113585352898L1006.1005054545456,254.1249624788761L1006.7381587878788,254.18098416924477L1007.3781042424243,254.12276458740234L1008.0192327272727,254.15922340750694L1008.6737442424242,254.03873205184937L1009.9582933333334,254.07885038852692L1018.2172496969697,258.5843152105808L1018.857343030303,258.3376005291939L1019.501429090909,260.22625467181206L1020.1406351515152,260.0724731683731L1020.7771054545454,260.3673614859581L1021.4155721212121,260.0785978138447L1022.0558133333333,259.5658182799816L1022.6957587878788,259.9486713409424L1023.9853357575757,259.84539771080017L1024.6377030303029,260.144185513258L1025.2802363636363,259.4405875504017L1025.9228436363637,259.0127240717411L1026.560275151515,258.8926744759083L1027.2170787878788,258.6416839957237L1027.8576157575758,258.2796754539013L1029.169818181818,257.6579284965992L1030.4529624242425,257.24482306838036L1031.7287866666666,257.0025805234909L1032.3668096969698,257.18410563468933L1033.0087515151515,257.073900192976L1034.3385515151515,257.20982587337494L1035.6480921212121,257.08092471957207L1036.292547878788,257.1659771203995L1037.5799066666666,256.9120033979416L1038.8773212121214,256.5557977259159L1039.5196327272727,256.5797400176525L1040.1571381818183,256.42815095186234L1049.107575757576,264.8303137421608L1051.03488,262.4806368649006L1051.6814060606062,262.5129889547825L1053.611446060606,261.89616134762764L1054.254349090909,261.9225305914879L1054.8894145454544,262.059885174036L1056.8485866666667,262.05445316433907L1058.7718981818182,261.8189951777458L1059.4071854545455,261.54124277830124L1060.0426945454544,261.07725316286087L1060.7006812121213,260.6732774376869L1061.3378169696969,260.4708205461502L1061.9807939393938,260.37209540605545L1062.6211090909092,260.4031385779381L1063.2705927272727,259.99944645166397L1063.906101818182,259.7047381103039L1064.5430896969697,259.5859974324703L1065.8277866666667,259.3165675699711L1066.46544,259.1700069308281L1067.10472,258.99745336174965L1069.0170884848485,258.99295940995216L1069.670343030303,258.9106884598732L1070.9564448484848,258.61645460128784L1079.3991406060607,269.84165900945663L1080.035610909091,268.19282045960426L1080.6766654545454,264.9895654320717L1081.9482012121214,264.41651022434235L1082.5810484848485,263.8931230008602L1083.8593127272727,265.49481868743896L1084.506726060606,264.8190079629421L1085.1410521212122,263.7745241224766L1085.788909090909,263.8038057088852L1086.4417939393938,263.341255903244L1087.1059915151516,263.23179218173027L1087.744753939394,262.89724364876747L1088.3785624242425,262.81473273038864L1089.0225006060605,262.71193903684616L1089.6569745454547,262.5045900642872L1090.2986945454545,262.11535602808L1090.9359042424244,262.28552082180977L1091.5685296969698,262.11489245295525L1092.2020424242426,262.1335608959198L1093.4786060606061,262.1544926762581L1094.1254278787878,261.94724187254906L1094.7789042424242,262.07464322447777L1095.4107903030304,261.98886001110077L1096.677298181818,261.64113503694534L1097.3334363636363,261.6372410058975L1099.8660824242424,261.38827389478683L1101.7847357575758,260.8863311111927L1111.305393939394,266.62465488910675L1111.9420121212122,265.2760439515114L1112.577964848485,264.60309648513794L1113.2164315151515,265.1041121184826L1114.5000193939395,266.45611533522606L1115.1425527272727,265.9865900874138L1115.788856969697,266.00557485222816L1116.4251054545455,265.6820375919342L1117.0594315151516,265.62176737189293L1118.342206060606,265.3943428695202L1118.9916157575758,265.38954895734787L1119.628233939394,264.93031507730484L1120.2639648484849,264.351053416729L1120.8994,264.08211439847946L1121.5397890909092,263.7940051853657L1122.1800303030302,263.89392471313477L1122.8177575757577,263.82480838894844L1123.4567418181819,263.8459964990616L1124.098166060606,264.0198589861393L1124.7451357575758,263.8704841732979L1126.0487612121212,263.66898170113564L1126.715103030303,263.5732179880142L1127.9989127272727,263.4701843261719L1128.6356048484847,263.5143003165722L1129.2714096969696,263.34813863039017L1130.544867878788,263.9054868221283L1131.180450909091,263.87395280599594L1131.8346666666666,263.9812186360359L1139.9841927272728,275.1690479815006L1140.6298315151516,267.5480092763901L1141.2674848484849,270.07255759835243L1143.832886060606,270.70551761984825L1145.114107878788,270.9768781363964L1147.0638896969697,270.15096724033356L1147.7023563636365,269.7811706364155L1148.9900109090909,269.6840980052948L1149.6428957575758,269.5752123892307L1150.2826193939393,269.3717410862446L1151.609166060606,269.13752657175064L1152.2687054545454,268.66104769706726L1152.9092424242424,268.51008582115173L1153.5485224242425,268.44340190291405L1154.1868412121212,268.39337942004204L1154.842313939394,268.1979361474514L1155.4798193939394,268.01111537218094L1156.1170290909092,267.77985683083534L1156.761336969697,267.75981947779655L1157.408824242424,267.68870705366135L1158.6954436363635,267.26748088002205L1159.332949090909,267.1056331694126L1159.9748909090908,266.9973147511482L1161.2501236363637,266.93900790810585L1161.8899951515152,266.8340054154396L1162.5459115151516,266.6370459794998L1170.7574727272727,283.2096139937639L1171.404886060606,276.60637356340885L1172.0397296969697,276.42799803614616L1173.3175503030304,277.1538285166025L1173.9577915151515,276.4251156896353L1174.5923393939395,274.94025729596615L1175.2282921212122,273.8500349521637L1175.868015757576,273.6450147628784L1176.5090703030303,273.86675092577934L1177.1476109090909,274.12942895293236L1178.4289806060606,273.6728947162628L1179.0874848484848,273.7079900801182L1179.7684666666667,273.413390815258L1180.4314072727273,273.2479326725006L1181.080816969697,273.22893154621124L1181.7294133333332,272.9729235470295L1182.3734993939395,272.7366474866867L1183.0177333333334,272.31251442432404L1183.6610799999999,272.3281559944153L1184.9382351515153,272.1202452778816L1185.5903066666667,272.1361595392227L1186.8872775757575,271.51775577664375L1189.47072,270.95145785808563L1190.1068206060606,271.03884994983673L1191.3978024242424,270.959714949131L1192.0430715151515,270.89423632621765L1192.6842000000001,270.6872036755085L1202.0078096969696,278.9384154975414L1203.2793454545454,277.2888025045395L1203.9121187878789,277.09103317558765L1204.546370909091,277.5425744354725L1205.822343030303,277.5037486553192L1206.4680557575757,276.88572120666504L1207.1027515151516,276.57381422817707L1207.7344157575758,276.2502469718456L1209.0287987878787,275.9925755560398L1209.6666,276.01286378502846L1210.301073939394,275.7922511100769L1210.9357696969696,275.64812287688255L1211.5689866666667,275.3494059741497L1212.8380084848484,274.8899157643318L1213.4904496969696,274.6987210214138L1214.1247018181818,274.3722659647465L1215.3951284848486,273.54271736741066L1216.0289369696968,273.227611720562L1217.9492169696969,273.0158233344555L1219.2524727272728,273.15080550312996L1219.8865030303032,273.3162309229374L1221.17608,273.2338345348835L1221.8259333333333,273.24143171310425L1222.4675793939393,273.188273280859L1223.101535757576,273.0691017508507L1223.7346048484849,273.1796944141388L1231.8699345454545,272.42916083335876L1232.520970909091,274.41844350099564L1233.1567018181818,277.73067685961723L1234.4449478787878,279.20426492393017L1235.0799393939394,279.4006244391203L1235.715966060606,279.4080743640661L1236.368850909091,279.50955641269684L1237.014267878788,279.78906767070293L1237.65096,279.9129458516836L1238.3055454545454,279.84411039948463L1239.595861818182,280.08763459324837L1240.231223030303,279.989064887166L1240.871981818182,279.8882836550474L1241.506233939394,279.6525938808918L1242.1437393939393,279.447614595294L1242.8023915151516,279.1459062695503L1244.7152036363636,279.0267156511545L1246.0010836363635,278.73646581172943L1246.6359272727273,278.84134013950825L1247.271953939394,278.6694846600294L1247.9178884848484,278.543332234025L1248.5577600000001,278.2713745236397L1249.1946,278.26716144382954L1249.8402387878787,277.939244762063L1250.4809975757576,277.7226597368717L1251.1224957575757,277.7395066022873L1251.767616969697,277.60623693466187L1253.7009103030302,277.4108563810587L1254.344256969697,277.2928956001997L1264.055309090909,281.21799436211586L1264.6928884848485,282.16250413656235L1265.330393939394,282.1715274900198L1265.9686387878787,281.2968866676092L1266.6062921212122,282.18927696347237L1267.2483818181818,282.1838367730379L1268.542543030303,281.0674551576376L1269.1983854545454,280.62575532495975L1269.8623612121212,281.0311435908079L1271.1503115151515,281.07269901037216L1271.7921054545454,280.95675069093704L1272.444103030303,280.7634998559952L1273.74832,280.09875494241714L1274.399652121212,279.88878268003464L1275.0489878787878,279.8223578184843L1276.3305793939394,280.2003133445978L1276.974,280.2129825800657L1277.61572,280.0789630115032L1278.900564848485,280.124071598053L1279.539696969697,280.01566319167614L1280.8126375757574,279.827323526144L1281.4511042424242,279.70382165908813L1282.1020666666668,279.2538483738899L1282.753103030303,279.0899636596441L1283.3968193939393,279.16030982136726L1284.0350642424244,278.95389617979527L1285.3104448484848,278.67421312630177L1293.5641515151515,285.1584783643484L1295.4868715151515,285.093043372035L1296.8013660606061,283.43721574544907L1298.746341818182,283.78735131025314L1301.3053842424242,283.14467257261276L1304.5139842424242,283.12254913151264L1306.440623030303,283.83436055481434L1307.0768715151514,283.9173295944929L1307.716816969697,283.8769276589155L1308.3569103030304,283.8344669044018L1308.996264242424,283.88866156339645L1309.6423466666668,283.8643238693476L1310.9249733333334,283.9196583777666L1311.5666933333334,283.8864527642727L1312.8581187878788,283.60687878727913L1313.495846060606,283.4464927017689L1314.7721139393939,283.41076469421387L1315.408732121212,283.4308838546276L1316.0474206060608,283.48354598879814" style="fill: none;" fill="none"></path></g></g></g></g></g></g><g transform="translate(34, 366)" clip-path="url(#clip_1)"><clipPath id="clip_1"><rect width="1464" height="34"></rect></clipPath><g><g visibility="inherit"><g><g transform="translate(0,0)" style="visibility: inherit;"><text transform="translate(3,14)" style="text-anchor: start; font-family: &quot;Helvetica Neue&quot;, sans-serif; font-size: 12px; font-weight: 200;" fill="rgb(50, 49, 63)" stroke="none" stroke-width="1px">11:30 PM</text></g><g transform="translate(133.0909090909091,0)" style="visibility: inherit;"><text transform="translate(3,14)" style="text-anchor: start; font-family: &quot;Helvetica Neue&quot;, sans-serif; font-size: 12px; font-weight: 200;" fill="rgb(50, 49, 63)" stroke="none" stroke-width="1px">12:00 AM</text></g><g transform="translate(266.1818181818182,0)" style="visibility: inherit;"><text transform="translate(3,14)" style="text-anchor: start; font-family: &quot;Helvetica Neue&quot;, sans-serif; font-size: 12px; font-weight: 200;" fill="rgb(50, 49, 63)" stroke="none" stroke-width="1px">12:30 AM</text></g><g transform="translate(399.27272727272725,0)" style="visibility: inherit;"><text transform="translate(3,14)" style="text-anchor: start; font-family: &quot;Helvetica Neue&quot;, sans-serif; font-size: 12px; font-weight: 200;" fill="rgb(50, 49, 63)" stroke="none" stroke-width="1px">01:00 AM</text></g><g transform="translate(532.3636363636364,0)" style="visibility: inherit;"><text transform="translate(3,14)" style="text-anchor: start; font-family: &quot;Helvetica Neue&quot;, sans-serif; font-size: 12px; font-weight: 200;" fill="rgb(50, 49, 63)" stroke="none" stroke-width="1px">01:30 AM</text></g><g transform="translate(665.4545454545454,0)" style="visibility: inherit;"><text transform="translate(3,14)" style="text-anchor: start; font-family: &quot;Helvetica Neue&quot;, sans-serif; font-size: 12px; font-weight: 200;" fill="rgb(50, 49, 63)" stroke="none" stroke-width="1px">02:00 AM</text></g><g transform="translate(798.5454545454545,0)" style="visibility: inherit;"><text transform="translate(3,14)" style="text-anchor: start; font-family: &quot;Helvetica Neue&quot;, sans-serif; font-size: 12px; font-weight: 200;" fill="rgb(50, 49, 63)" stroke="none" stroke-width="1px">02:30 AM</text></g><g transform="translate(931.6363636363636,0)" style="visibility: inherit;"><text transform="translate(3,14)" style="text-anchor: start; font-family: &quot;Helvetica Neue&quot;, sans-serif; font-size: 12px; font-weight: 200;" fill="rgb(50, 49, 63)" stroke="none" stroke-width="1px">03:00 AM</text></g><g transform="translate(1064.7272727272727,0)" style="visibility: inherit;"><text transform="translate(3,14)" style="text-anchor: start; font-family: &quot;Helvetica Neue&quot;, sans-serif; font-size: 12px; font-weight: 200;" fill="rgb(50, 49, 63)" stroke="none" stroke-width="1px">03:30 AM</text></g><g transform="translate(1197.818181818182,0)" style="visibility: inherit;"><text transform="translate(3,14)" style="text-anchor: start; font-family: &quot;Helvetica Neue&quot;, sans-serif; font-size: 12px; font-weight: 200;" fill="rgb(50, 49, 63)" stroke="none" stroke-width="1px">04:00 AM</text></g><g transform="translate(1330.9090909090908,0)" style="visibility: inherit;"><text transform="translate(3,14)" style="text-anchor: start; font-family: &quot;Helvetica Neue&quot;, sans-serif; font-size: 12px; font-weight: 200;" fill="rgb(50, 49, 63)" stroke="none" stroke-width="1px">04:30 AM</text></g><g transform="translate(1464,0)" style="visibility: hidden;"><text transform="translate(3,14)" style="text-anchor: start; font-family: &quot;Helvetica Neue&quot;, sans-serif; font-size: 12px; font-weight: 200;" fill="rgb(50, 49, 63)" stroke="none" stroke-width="1px">05:00 AM</text></g></g><g><line x1="0" y1="0" x2="0" y2="17" fill="rgb(0, 0, 0)" stroke="rgb(204, 204, 204)" stroke-width="1px"></line><line x1="133.0909090909091" y1="0" x2="133.0909090909091" y2="17" fill="rgb(0, 0, 0)" stroke="rgb(204, 204, 204)" stroke-width="1px"></line><line x1="266.1818181818182" y1="0" x2="266.1818181818182" y2="17" fill="rgb(0, 0, 0)" stroke="rgb(204, 204, 204)" stroke-width="1px"></line><line x1="399.27272727272725" y1="0" x2="399.27272727272725" y2="17" fill="rgb(0, 0, 0)" stroke="rgb(204, 204, 204)" stroke-width="1px"></line><line x1="532.3636363636364" y1="0" x2="532.3636363636364" y2="17" fill="rgb(0, 0, 0)" stroke="rgb(204, 204, 204)" stroke-width="1px"></line><line x1="665.4545454545454" y1="0" x2="665.4545454545454" y2="17" fill="rgb(0, 0, 0)" stroke="rgb(204, 204, 204)" stroke-width="1px"></line><line x1="798.5454545454545" y1="0" x2="798.5454545454545" y2="17" fill="rgb(0, 0, 0)" stroke="rgb(204, 204, 204)" stroke-width="1px"></line><line x1="931.6363636363636" y1="0" x2="931.6363636363636" y2="17" fill="rgb(0, 0, 0)" stroke="rgb(204, 204, 204)" stroke-width="1px"></line><line x1="1064.7272727272727" y1="0" x2="1064.7272727272727" y2="17" fill="rgb(0, 0, 0)" stroke="rgb(204, 204, 204)" stroke-width="1px"></line><line x1="1197.818181818182" y1="0" x2="1197.818181818182" y2="17" fill="rgb(0, 0, 0)" stroke="rgb(204, 204, 204)" stroke-width="1px"></line><line x1="1330.9090909090908" y1="0" x2="1330.9090909090908" y2="17" fill="rgb(0, 0, 0)" stroke="rgb(204, 204, 204)" stroke-width="1px"></line><line x1="1464" y1="0" x2="1464" y2="17" fill="rgb(0, 0, 0)" stroke="rgb(204, 204, 204)" stroke-width="1px"></line></g><line x1="0" y1="0" x2="1464" y2="0" style="visibility: inherit;" fill="rgb(0, 0, 0)" stroke="rgb(204, 204, 204)" stroke-width="1px"></line></g><g visibility="inherit"><g><g transform="translate(66.54545454545455,0)" style="visibility: inherit;"><text transform="translate(0,31)" style="text-anchor: middle; font-family: &quot;Helvetica Neue&quot;, sans-serif; font-size: 12px; font-weight: 200;" fill="rgb(50, 49, 63)" stroke="none" stroke-width="1px">March  9, 2020</text></g><g transform="translate(199.63636363636363,0)" style="visibility: inherit;"><text transform="translate(0,31)" style="text-anchor: middle; font-family: &quot;Helvetica Neue&quot;, sans-serif; font-size: 12px; font-weight: 200;" fill="rgb(50, 49, 63)" stroke="none" stroke-width="1px">March 10, 2020</text></g><g transform="translate(332.7272727272727,0)" style="visibility: inherit;"><text transform="translate(0,31)" style="text-anchor: middle; font-family: &quot;Helvetica Neue&quot;, sans-serif; font-size: 12px; font-weight: 200;" fill="rgb(50, 49, 63)" stroke="none" stroke-width="1px">March 10, 2020</text></g><g transform="translate(465.8181818181818,0)" style="visibility: inherit;"><text transform="translate(0,31)" style="text-anchor: middle; font-family: &quot;Helvetica Neue&quot;, sans-serif; font-size: 12px; font-weight: 200;" fill="rgb(50, 49, 63)" stroke="none" stroke-width="1px">March 10, 2020</text></g><g transform="translate(598.909090909091,0)" style="visibility: inherit;"><text transform="translate(0,31)" style="text-anchor: middle; font-family: &quot;Helvetica Neue&quot;, sans-serif; font-size: 12px; font-weight: 200;" fill="rgb(50, 49, 63)" stroke="none" stroke-width="1px">March 10, 2020</text></g><g transform="translate(732,0)" style="visibility: inherit;"><text transform="translate(0,31)" style="text-anchor: middle; font-family: &quot;Helvetica Neue&quot;, sans-serif; font-size: 12px; font-weight: 200;" fill="rgb(50, 49, 63)" stroke="none" stroke-width="1px">March 10, 2020</text></g><g transform="translate(865.0909090909091,0)" style="visibility: inherit;"><text transform="translate(0,31)" style="text-anchor: middle; font-family: &quot;Helvetica Neue&quot;, sans-serif; font-size: 12px; font-weight: 200;" fill="rgb(50, 49, 63)" stroke="none" stroke-width="1px">March 10, 2020</text></g><g transform="translate(998.1818181818181,0)" style="visibility: inherit;"><text transform="translate(0,31)" style="text-anchor: middle; font-family: &quot;Helvetica Neue&quot;, sans-serif; font-size: 12px; font-weight: 200;" fill="rgb(50, 49, 63)" stroke="none" stroke-width="1px">March 10, 2020</text></g><g transform="translate(1131.2727272727273,0)" style="visibility: inherit;"><text transform="translate(0,31)" style="text-anchor: middle; font-family: &quot;Helvetica Neue&quot;, sans-serif; font-size: 12px; font-weight: 200;" fill="rgb(50, 49, 63)" stroke="none" stroke-width="1px">March 10, 2020</text></g><g transform="translate(1264.3636363636365,0)" style="visibility: inherit;"><text transform="translate(0,31)" style="text-anchor: middle; font-family: &quot;Helvetica Neue&quot;, sans-serif; font-size: 12px; font-weight: 200;" fill="rgb(50, 49, 63)" stroke="none" stroke-width="1px">March 10, 2020</text></g><g transform="translate(1397.4545454545455,0)" style="visibility: inherit;"><text transform="translate(0,31)" style="text-anchor: middle; font-family: &quot;Helvetica Neue&quot;, sans-serif; font-size: 12px; font-weight: 200;" fill="rgb(50, 49, 63)" stroke="none" stroke-width="1px">March 10, 2020</text></g></g><g><line x1="0" y1="17" x2="0" y2="34" fill="rgb(0, 0, 0)" stroke="rgb(204, 204, 204)" stroke-width="1px"></line><line x1="133.0909090909091" y1="17" x2="133.0909090909091" y2="34" fill="rgb(0, 0, 0)" stroke="rgb(204, 204, 204)" stroke-width="1px"></line><line x1="266.1818181818182" y1="17" x2="266.1818181818182" y2="34" fill="rgb(0, 0, 0)" stroke="rgb(204, 204, 204)" stroke-width="1px"></line><line x1="399.27272727272725" y1="17" x2="399.27272727272725" y2="34" fill="rgb(0, 0, 0)" stroke="rgb(204, 204, 204)" stroke-width="1px"></line><line x1="532.3636363636364" y1="17" x2="532.3636363636364" y2="34" fill="rgb(0, 0, 0)" stroke="rgb(204, 204, 204)" stroke-width="1px"></line><line x1="665.4545454545454" y1="17" x2="665.4545454545454" y2="34" fill="rgb(0, 0, 0)" stroke="rgb(204, 204, 204)" stroke-width="1px"></line><line x1="798.5454545454545" y1="17" x2="798.5454545454545" y2="34" fill="rgb(0, 0, 0)" stroke="rgb(204, 204, 204)" stroke-width="1px"></line><line x1="931.6363636363636" y1="17" x2="931.6363636363636" y2="34" fill="rgb(0, 0, 0)" stroke="rgb(204, 204, 204)" stroke-width="1px"></line><line x1="1064.7272727272727" y1="17" x2="1064.7272727272727" y2="34" fill="rgb(0, 0, 0)" stroke="rgb(204, 204, 204)" stroke-width="1px"></line><line x1="1197.818181818182" y1="17" x2="1197.818181818182" y2="34" fill="rgb(0, 0, 0)" stroke="rgb(204, 204, 204)" stroke-width="1px"></line><line x1="1330.9090909090908" y1="17" x2="1330.9090909090908" y2="34" fill="rgb(0, 0, 0)" stroke="rgb(204, 204, 204)" stroke-width="1px"></line><line x1="1464" y1="17" x2="1464" y2="34" fill="rgb(0, 0, 0)" stroke="rgb(204, 204, 204)" stroke-width="1px"></line></g><line x1="0" y1="17" x2="1464" y2="17" style="visibility: inherit;" fill="rgb(0, 0, 0)" stroke="rgb(204, 204, 204)" stroke-width="1px"></line></g></g></g></g></g></svg>