<svg viewBox="0 0 1498 400" xmlns="http://www.w3.org/2000/svg"><g><g><g><g><g><line x1="58" y1="366" x2="53" y2="366" style="visibility: inherit;" fill="rgb(0, 0, 0)" stroke="rgb(204, 204, 204)" stroke-width="1px"></line><line x1="58" y1="335.5" x2="53" y2="335.5" style="visibility: inherit;" fill="rgb(0, 0, 0)" stroke="rgb(204, 204, 204)" stroke-width="1px"></line><line x1="58" y1="305" x2="53" y2="305" style="visibility: inherit;" fill="rgb(0, 0, 0)" stroke="rgb(204, 204, 204)" stroke-width="1px"></line><line x1="58" y1="274.5" x2="53" y2="274.5" style="visibility: inherit;" fill="rgb(0, 0, 0)" stroke="rgb(204, 204, 204)" stroke-width="1px"></line><line x1="58" y1="244" x2="53" y2="244" style="visibility: inherit;" fill="rgb(0, 0, 0)" stroke="rgb(204, 204, 204)" stroke-width="1px"></line><line x1="58" y1="213.5" x2="53" y2="213.5" style="visibility: inherit;" fill="rgb(0, 0, 0)" stroke="rgb(204, 204, 204)" stroke-width="1px"></line><line x1="58" y1="183.00000000000003" x2="53" y2="183.00000000000003" style="visibility: inherit;" fill="rgb(0, 0, 0)" stroke="rgb(204, 204, 204)" stroke-width="1px"></line><line x1="58" y1="152.50000000000003" x2="53" y2="152.50000000000003" style="visibility: inherit;" fill="rgb(0, 0, 0)" stroke="rgb(204, 204, 204)" stroke-width="1px"></line><line x1="58" y1="122.00000000000006" x2="53" y2="122.00000000000006" style="visibility: inherit;" fill="rgb(0, 0, 0)" stroke="rgb(204, 204, 204)" stroke-width="1px"></line><line x1="58" y1="91.50000000000006" x2="53" y2="91.50000000000006" style="visibility: inherit;" fill="rgb(0, 0, 0)" stroke="rgb(204, 204, 204)" stroke-width="1px"></line><line x1="58" y1="61" x2="53" y2="61" style="visibility: inherit;" fill="rgb(0, 0, 0)" stroke="rgb(204, 204, 204)" stroke-width="1px"></line><line x1="58" y1="30.5" x2="53" y2="30.5" style="visibility: inherit;" fill="rgb(0, 0, 0)" stroke="rgb(204, 204, 204)" stroke-width="1px"></line><line x1="58" y1="0" x2="53" y2="0" style="visibility: inherit;" fill="rgb(0, 0, 0)" stroke="rgb(204, 204, 204)" stroke-width="1px"></line></g><g transform="translate(48, 0)"><text x="0" y="366" dx="0em" dy="0.3em" style="text-anchor: end; visibility: hidden; font-family: &quot;Helvetica Neue&quot;, sans-serif; font-size: 12px; font-weight: 200;" fill="rgb(50, 49, 63)" stroke="none" stroke-width="1px">-0.1</text><text x="0" y="335.5" dx="0em" dy="0.3em" style="text-anchor: end; visibility: inherit; font-family: &quot;Helvetica Neue&quot;, sans-serif; font-size: 12px; font-weight: 200;" fill="rgb(50, 49, 63)" stroke="none" stroke-width="1px">0</text><text x="0" y="305" dx="0em" dy="0.3em" style="text-anchor: end; visibility: inherit; font-family: &quot;Helvetica Neue&quot;, sans-serif; font-size: 12px; font-weight: 200;" fill="rgb(50, 49, 63)" stroke="none" stroke-width="1px">0.1</text><text x="0" y="274.5" dx="0em" dy="0.3em" style="text-anchor: end; visibility: inherit; font-family: &quot;Helvetica Neue&quot;, sans-serif; font-size: 12px; font-weight: 200;" fill="rgb(50, 49, 63)" stroke="none" stroke-width="1px">0.2</text><text x="0" y="244" dx="0em" dy="0.3em" style="text-anchor: end; visibility: inherit; font-family: &quot;Helvetica Neue&quot;, sans-serif; font-size: 12px; font-weight: 200;" fill="rgb(50, 49, 63)" stroke="none" stroke-width="1px">0.3</text><text x="0" y="213.5" dx="0em" dy="0.3em" style="text-anchor: end; visibility: inherit; font-family: &quot;Helvetica Neue&quot;, sans-serif; font-size: 12px; font-weight: 200;" fill="rgb(50, 49, 63)" stroke="none" stroke-width="1px">0.4</text><text x="0" y="183.00000000000003" dx="0em" dy="0.3em" style="text-anchor: end; visibility: inherit; font-family: &quot;Helvetica Neue&quot;, sans-serif; font-size: 12px; font-weight: 200;" fill="rgb(50, 49, 63)" stroke="none" stroke-width="1px">0.5</text><text x="0" y="152.50000000000003" dx="0em" dy="0.3em" style="text-anchor: end; visibility: inherit; font-family: &quot;Helvetica Neue&quot;, sans-serif; font-size: 12px; font-weight: 200;" fill="rgb(50, 49, 63)" stroke="none" stroke-width="1px">0.6</text><text x="0" y="122.00000000000006" dx="0em" dy="0.3em" style="text-anchor: end; visibility: inherit; font-family: &quot;Helvetica Neue&quot;, sans-serif; font-size: 12px; font-weight: 200;" fill="rgb(50, 49, 63)" stroke="none" stroke-width="1px">0.7</text><text x="0" y="91.50000000000006" dx="0em" dy="0.3em" style="text-anchor: end; visibility: inherit; font-family: &quot;Helvetica Neue&quot;, sans-serif; font-size: 12px; font-weight: 200;" fill="rgb(50, 49, 63)" stroke="none" stroke-width="1px">0.8</text><text x="0" y="61" dx="0em" dy="0.3em" style="text-anchor: end; visibility: inherit; font-family: &quot;Helvetica Neue&quot;, sans-serif; font-size: 12px; font-weight: 200;" fill="rgb(50, 49, 63)" stroke="none" stroke-width="1px">0.9</text><text x="0" y="30.5" dx="0em" dy="0.3em" style="text-anchor: end; visibility: inherit; font-family: &quot;Helvetica Neue&quot;, sans-serif; font-size: 12px; font-weight: 200;" fill="rgb(50, 49, 63)" stroke="none" stroke-width="1px">1</text><text x="0" y="0" dx="0em" dy="0.3em" style="text-anchor: end; visibility: hidden; font-family: &quot;Helvetica Neue&quot;, sans-serif; font-size: 12px; font-weight: 200;" fill="rgb(50, 49, 63)" stroke="none" stroke-width="1px">1.1</text></g><line x1="58" y1="0" x2="58" y2="366" fill="rgb(0, 0, 0)" stroke="rgb(204, 204, 204)" stroke-width="1px"></line></g></g><g transform="translate(58, 0)" clip-path="url(#clip_0)"><clipPath id="clip_0"><rect width="1440" height="366"></rect></clipPath><g><g><g><line x1="0" y1="0" x2="0" y2="366" fill="rgb(0, 0, 0)" stroke="rgb(60, 60, 60)" stroke-width="1px" opacity="0.25"></line><line x1="130.9090909090909" y1="0" x2="130.9090909090909" y2="366" fill="rgb(0, 0, 0)" stroke="rgb(60, 60, 60)" stroke-width="1px" opacity="0.25"></line><line x1="261.8181818181818" y1="0" x2="261.8181818181818" y2="366" fill="rgb(0, 0, 0)" stroke="rgb(60, 60, 60)" stroke-width="1px" opacity="0.25"></line><line x1="392.7272727272727" y1="0" x2="392.7272727272727" y2="366" fill="rgb(0, 0, 0)" stroke="rgb(60, 60, 60)" stroke-width="1px" opacity="0.25"></line><line x1="523.6363636363636" y1="0" x2="523.6363636363636" y2="366" fill="rgb(0, 0, 0)" stroke="rgb(60, 60, 60)" stroke-width="1px" opacity="0.25"></line><line x1="654.5454545454545" y1="0" x2="654.5454545454545" y2="366" fill="rgb(0, 0, 0)" stroke="rgb(60, 60, 60)" stroke-width="1px" opacity="0.25"></line><line x1="785.4545454545454" y1="0" x2="785.4545454545454" y2="366" fill="rgb(0, 0, 0)" stroke="rgb(60, 60, 60)" stroke-width="1px" opacity="0.25"></line><line x1="916.3636363636364" y1="0" x2="916.3636363636364" y2="366" fill="rgb(0, 0, 0)" stroke="rgb(60, 60, 60)" stroke-width="1px" opacity="0.25"></line><line x1="1047.2727272727273" y1="0" x2="1047.2727272727273" y2="366" fill="rgb(0, 0, 0)" stroke="rgb(60, 60, 60)" stroke-width="1px" opacity="0.25"></line><line x1="1178.1818181818182" y1="0" x2="1178.1818181818182" y2="366" fill="rgb(0, 0, 0)" stroke="rgb(60, 60, 60)" stroke-width="1px" opacity="0.25"></line><line x1="1309.090909090909" y1="0" x2="1309.090909090909" y2="366" fill="rgb(0, 0, 0)" stroke="rgb(60, 60, 60)" stroke-width="1px" opacity="0.25"></line><line x1="1440" y1="0" x2="1440" y2="366" fill="rgb(0, 0, 0)" stroke="rgb(60, 60, 60)" stroke-width="1px" opacity="0.25"></line></g><g><line x1="0" y1="366" x2="1440" y2="366" fill="rgb(0, 0, 0)" stroke="rgb(60, 60, 60)" stroke-width="1px" opacity="0.25"></line><line x1="0" y1="335.5" x2="1440" y2="335.5" fill="rgb(0, 0, 0)" stroke="rgb(60, 60, 60)" stroke-width="1px" opacity="0.25"></line><line x1="0" y1="305" x2="1440" y2="305" fill="rgb(0, 0, 0)" stroke="rgb(60, 60, 60)" stroke-width="1px" opacity="0.25"></line><line x1="0" y1="274.5" x2="1440" y2="274.5" fill="rgb(0, 0, 0)" stroke="rgb(60, 60, 60)" stroke-width="1px" opacity="0.25"></line><line x1="0" y1="244" x2="1440" y2="244" fill="rgb(0, 0, 0)" stroke="rgb(60, 60, 60)" stroke-width="1px" opacity="0.25"></line><line x1="0" y1="213.5" x2="1440" y2="213.5" fill="rgb(0, 0, 0)" stroke="rgb(60, 60, 60)" stroke-width="1px" opacity="0.25"></line><line x1="0" y1="183.00000000000003" x2="1440" y2="183.00000000000003" fill="rgb(0, 0, 0)" stroke="rgb(60, 60, 60)" stroke-width="1px" opacity="0.25"></line><line x1="0" y1="152.50000000000003" x2="1440" y2="152.50000000000003" fill="rgb(0, 0, 0)" stroke="rgb(60, 60, 60)" stroke-width="1px" opacity="0.25"></line><line x1="0" y1="122.00000000000006" x2="1440" y2="122.00000000000006" fill="rgb(0, 0, 0)" stroke="rgb(60, 60, 60)" stroke-width="1px" opacity="0.25"></line><line x1="0" y1="91.50000000000006" x2="1440" y2="91.50000000000006" fill="rgb(0, 0, 0)" stroke="rgb(60, 60, 60)" stroke-width="1px" opacity="0.25"></line><line x1="0" y1="61" x2="1440" y2="61" fill="rgb(0, 0, 0)" stroke="rgb(60, 60, 60)" stroke-width="1px" opacity="0.25"></line><line x1="0" y1="30.5" x2="1440" y2="30.5" fill="rgb(0, 0, 0)" stroke="rgb(60, 60, 60)" stroke-width="1px" opacity="0.25"></line><line x1="0" y1="0" x2="1440" y2="0" fill="rgb(0, 0, 0)" stroke="rgb(60, 60, 60)" stroke-width="1px" opacity="0.25"></line></g></g></g><g><g><line x1="0" y1="335.5" x2="1440" y2="335.5" fill="rgb(0, 0, 0)" stroke="rgb(153, 153, 153)" stroke-width="1.5px"></line></g></g><g><g><line x1="-115184421.81818183" y1="0" x2="-115184421.81818183" y2="366" fill="rgb(0, 0, 0)" stroke="rgb(153, 153, 153)" stroke-width="1.5px"></line></g></g><g><g><g><g><g><path stroke="rgb(204, 51, 17)" stroke-width="2px" d="M87.51970909090909,248.05976006388667L88.77963636363636,234.53018370270732L90.1501818181818,235.87541508674624L90.8576,234.09785899519923L92.12152727272726,230.5194498896599L93.35869090909091,227.23478379845622L93.97854545454545,227.48061496019366L94.59730909090909,226.89726474881175L95.21643636363636,225.77191340923312L95.83549090909091,226.2410787045956L96.45490909090908,225.07420557737353L97.07403636363637,224.14278316497806L97.69272727272727,224.26476705074313L98.31192727272727,223.7828761637211L98.93098181818182,223.72439298033717L99.54974545454546,223.62629684805873L100.78923636363636,223.0460644066334L102.02749090909091,222.60954025387767L102.64632727272728,222.7390413284302L105.74349090909092,222.43284541368487L106.3624,222.01933640241626L106.98130909090908,221.82721632719043L107.60007272727272,221.8779823482037L108.21927272727272,221.7166400253773L116.71825454545456,207.20092120766643L118.58509090909091,212.58126500248912L119.20705454545455,214.97533965110782L120.452,214.7920093238354L121.07410909090908,215.59342163801196L121.696,216.88737797737124L122.3192,217.34866249561313L122.94189090909092,216.8873961567879L123.56414545454545,217.69684377312663L124.80792727272727,216.24352666735652L125.43047272727271,216.10648113489154L127.29789090909091,216.6758513748646L127.92058181818182,216.68525922298434L128.54283636363635,216.92484575510028L129.16443636363636,217.10074979066852L129.78683636363635,217.49392512440684L131.6533090909091,217.06297296285632L132.2754181818182,217.16364148259166L132.89927272727272,217.00750756263736L133.52152727272727,217.04537528753283L134.14341818181816,217.21011716127398L134.76945454545455,216.95575076341632L135.3970909090909,216.72113630175593L136.02669090909092,216.25406163930896L136.65120000000002,216.31526264548305L137.2757090909091,216.550031632185L146.12596363636365,222.74844917654994L146.84196363636363,212.1626384854317L147.48610909090908,209.17805093526843L148.1232,211.61347466707232L149.38705454545453,211.40637475252154L150.66196363636365,213.18232196569446L151.3106181818182,212.8853521049023L152.58749090909092,212.09758344292644L153.22698181818183,212.3677841126919L154.49396363636362,213.34272804856303L155.12421818181818,213.56148096919063L155.75418181818182,213.08823439478877L156.3832,213.05620226264003L157.0133090909091,212.81454327702525L157.64901818181818,212.64997410774234L158.92785454545455,213.47714665532115L159.56334545454547,213.7499833405018L160.19912727272728,213.63871622085574L160.83134545454544,213.9526474773884L162.11185454545455,213.68872779607776L164.01592727272728,213.6424975395203L164.6688727272727,213.6334532797337L165.94203636363636,214.08204856514934L167.23556363636362,214.01744800806048L167.89163636363637,214.05241611599925L168.5546181818182,214.3964615762234L178.23156363636363,215.53447487950328L178.8592,215.60563820600512L180.7695272727273,212.77521210908893L182.66196363636362,211.84581670165065L183.28472727272728,211.85536998510364L183.91512727272726,212.0131309628487L184.5376,212.30608317255977L185.16843636363635,213.23941442370418L187.07760000000002,213.24916768074038L187.71178181818183,212.5893003046513L188.35767272727273,212.2997567355633L189.00552727272728,212.49491277337077L189.63985454545457,213.02676069736484L190.89658181818183,213.00225484371188L191.5245090909091,213.08626192808154L193.42087272727272,213.12759283185008L195.34458181818184,213.3696517646313L195.9685818181818,213.15277132391932L197.21847272727274,213.10763183236125L198.4810909090909,212.84977498650554L206.84458181818184,218.6876310706139L207.4786909090909,214.55736759305003L208.11367272727273,213.92417851090434L208.77243636363636,216.75152319669726L209.40436363636366,214.53541594743731L210.67098181818182,214.68902292847636L211.3002909090909,215.4635933339596L211.93534545454548,214.34743168950084L212.57869090909088,214.6227771341801L213.83418181818183,213.1836854219437L214.4602181818182,212.55460488796237L215.11847272727275,212.9290554225445L216.40196363636363,211.17095130681994L217.0306181818182,210.7852386236191L217.6597818181818,209.8863391876221L218.93454545454543,209.33628457784656L219.57999999999998,209.77356317639354L220.83738181818183,210.4653717875481L221.47345454545456,210.39271774888041L222.7541090909091,211.07416409254077L223.39403636363636,210.48388752341273L224.02159999999998,210.3313440382481L225.3243636363636,210.4720345437527L225.9501090909091,210.52859070897105L227.81483636363635,210.5031849741936L228.44712727272727,210.18500882387164L229.08123636363638,210.08876699209216L237.49156363636365,214.38940796256068L238.7455272727273,206.99792984128L239.37076363636365,206.22651356458667L240.64705454545455,208.32005518674853L241.91738181818184,209.60479456186297L242.55527272727275,209.8719865381718L243.19825454545455,209.5062712132931L243.83527272727272,209.82747423648837L245.10945454545455,208.93417406082156L245.7370909090909,209.29606261849406L247.66014545454544,208.28711408376697L250.28945454545456,210.24733695387843L250.9167272727273,210.3938085138798L252.82436363636364,210.11370915174487L253.46625454545455,209.821011453867L254.71905454545455,209.9062547385693L255.37032727272728,209.58673331141475L256.00625454545457,209.33458480238917L256.6490181818182,209.35030999779704L257.2835636363636,208.83705961704257L259.1783272727273,208.51501125097278L259.8020363636364,208.29334053397181L267.9767272727273,196.996669203043L268.6154909090909,204.1996813118458L270.5446545454546,199.46244347095492L271.18545454545455,200.51036867499354L271.8198545454546,201.6392013728619L272.45032727272724,200.49098941683772L273.0915636363637,201.7796373665333L273.73607272727276,201.1758262217045L274.99752727272727,202.27746251225474L275.6305454545454,202.06304538249972L276.2598545454546,201.78534570336345L277.52552727272723,202.22053366899493L278.15403636363635,202.13018196821216L278.81156363636364,202.993049800396L279.4600727272727,202.4609655439854L280.09025454545457,202.40598189830783L280.74523636363637,202.58713069558146L281.39425454545454,202.78161409497264L282.6741818181818,203.26697725057605L283.2992727272727,203.46462386846545L284.58167272727275,203.12745022773746L287.1308363636364,203.3443488478661L287.7607272727273,203.34584864974025L289.0298181818182,203.36825478076938L289.6698181818182,203.46891421079638L298.20683636363634,182.46910649538043L298.8467636363636,207.36579033732417L299.4773090909091,203.01582860946658L300.11025454545455,195.6655723154545L300.7408,195.58932784199718L302.0122181818182,196.89705508947375L303.9405090909091,198.66096752882007L304.5857454545455,198.7949770987034L305.22545454545457,199.39777928590777L305.8558545454546,199.15565672516826L307.13170909090906,198.50630614161494L308.3811636363636,199.29232048988345L309.6426181818182,199.1449854075909L310.9559272727273,198.69848984479907L312.2912,199.37810006737712L312.94087272727273,199.38828963041308L313.5869090909091,199.1956332623959L314.2418909090909,199.27056881785396L314.8834909090909,198.87586641311648L316.17512727272725,198.52819415926936L316.8140363636364,197.90076795220378L318.0994181818182,198.077308267355L318.75156363636364,198.0585834681988L319.39374545454547,198.2217982709408L320.6637090909091,197.8829430341721L331.65105454545454,200.5194947421551L332.90043636363635,196.94311264157298L333.5376,196.53393942117694L334.84727272727275,195.94593527913096L335.4970909090909,195.10775509476665L336.1294545454545,194.71057119965556L336.75454545454545,195.59629964828494L337.41185454545456,196.67389366030696L338.0352,196.02062541246417L338.66174545454544,195.41750508546832L339.3260363636364,195.96067878603938L339.95003636363634,195.58293777704242L340.5825454545455,195.83289566636088L343.0986909090909,197.0887661278248L343.73563636363633,196.48857268691066L345.01120000000003,195.6068073511124L346.93192727272725,194.39575824141505L349.4579636363636,194.19319409132007L350.10116363636365,194.13217487931254L350.7250909090909,194.36045381426814L351.3545454545454,193.98227649927142L360.2859636363636,190.51467093825343L360.9146909090909,192.8219479620457L361.5509818181818,192.19433996081355L362.19272727272727,190.8610706329346L362.8352727272727,191.66672784090045L363.4827636363636,190.35740989446643L365.3653090909091,187.94715556502345L365.99869090909095,189.09954878687861L367.2671272727273,189.9099144637585L368.6243636363636,190.55596548318866L369.93600000000004,189.9815777242184L371.24290909090905,189.7122678458691L372.59621818181813,188.35593792796138L373.25127272727275,188.0824831426144L373.89410909090907,187.61362689733508L374.51614545454544,187.66839239001277L375.1459636363636,188.1811791956425L375.7920727272727,187.84614163637164L376.4216,187.82850760221484L377.05963636363634,187.78187739849093L377.6846545454546,187.96492594480517L378.9653818181818,188.1649267971516L380.2322909090909,188.0017483532429L380.8749818181819,187.8599943518639L382.18909090909096,187.95327293872836L391.67614545454546,191.6837983131409L392.3756363636364,186.8913041353226L393.0628363636364,187.48006272315982L393.69592727272726,189.38357490301135L394.3282909090909,189.33755370974544L394.95825454545457,189.80537372827533L395.61119999999994,187.00218039751056L396.2441454545455,187.42996934056285L396.89279999999997,187.99734893441203L397.5298181818182,186.8453829288483L398.1755636363636,187.55845236778262L399.4370181818182,187.28342506289485L400.0666909090909,187.17578473687175L401.3336727272727,186.5515581071377L402.60007272727273,187.23848554492L403.2715636363636,187.15141522884372L403.9318545454545,186.98788228631022L404.56690909090906,186.73966053128245L405.19970909090904,186.85991737246516L406.4823272727273,186.4217116236687L407.10887272727274,186.3584108948708L408.38523636363635,186.4149216115475L409.0296727272727,186.69637534022334L409.6661818181818,186.92973542213443L410.3047272727273,187.10975709557536L410.93876363636366,187.2333044111729L412.2191272727273,187.13790792226794L412.8592,186.9833010733128L421.11389090909097,197.35426741838458L421.75919999999996,183.04683926701549L423.65585454545453,186.56142044067386L424.9232,185.26465538144114L425.5598545454545,185.31029480695727L426.8194909090909,185.09290534257892L427.44989090909087,185.0958594977856L428.07534545454547,185.38205805420878L429.3472727272727,184.52883440256122L429.9999272727273,184.76337614655498L431.3930181818182,184.28193065524104L432.70727272727277,184.23328253626826L435.87919999999997,184.47182375192645L436.5031272727273,184.39229789376262L438.4112727272727,183.63644319772723L439.0552727272728,183.590994656086L439.6898909090909,183.66033095121387L440.31781818181815,183.65334096550944L440.9423272727273,183.8777749538422L441.57447272727273,183.48070922493937L442.8817454545454,183.20721808075908L451.7832727272727,188.2493338286877L453.04807272727277,179.6953274607659L454.33847272727274,177.8833486437798L456.21003636363633,177.81813907623294L456.83425454545454,177.68324780464178L458.73490909090907,177.56324547529223L459.3714909090909,177.5752620697022L460.0117818181818,178.1780733466149L460.6517090909091,178.66180944442752L461.91192727272727,178.425640642643L462.5357818181818,178.26727974414828L464.4187636363636,178.22961199283606L465.06290909090905,178.06434291601184L466.3333090909091,178.5957090854645L468.23054545454545,179.66818559169772L468.8616727272728,179.3629895448685L470.1425454545454,178.71034848690036L470.7732363636364,178.57842046022418L471.4053818181818,178.52997231483462L472.03752727272723,178.24175584316257L472.66996363636366,177.88563925027853L473.29461818181824,177.85502511262897L473.9485818181818,177.85504329204565L482.34909090909093,185.46707409620288L482.99476363636364,179.37529700994497L483.62530909090907,178.39800792932513L484.2654545454546,177.4384437799454L484.9229090909091,175.76782810688022L485.5513454545454,177.87382262945178L486.8048727272727,176.6475664377213L488.0826909090909,175.9595664143563L488.7238545454545,175.61693894863132L490.6331636363637,175.16510772705084L491.27847272727274,174.91025048494345L493.8185454545455,173.17786115407947L495.72327272727273,173.28897374868396L496.3558545454546,172.8910626769066L497.6243636363637,173.30059039592746L498.25272727272727,173.61578512191778L499.52843636363633,174.19607210159307L500.16385454545457,174.46181881427768L500.79941818181817,174.68100804090503L502.71345454545457,174.4233693480492L503.3542545454545,174.25639140605932L512.1589090909091,138.02594113349917L514.7213090909091,173.3048807382584L515.3585454545455,172.36162352561956L516.6280727272728,173.10950654745108L517.2580363636364,171.1441661715508L517.8844363636364,170.5705328583718L518.5118545454545,171.14914733171466L519.1485818181818,171.67660492658618L519.7821818181818,172.02114123106008L520.4232,169.93047195672995L521.6944,169.754604279995L522.3258181818181,170.00324416160586L522.9587636363636,169.61169588565832L523.5861090909091,168.72972148656848L524.2145454545455,169.12308770418173L524.8624,169.2888476252556L525.5072727272727,169.38607114553457L527.4216,169.79336279630667L528.0582545454546,170.13978976011282L528.6933818181818,170.51501291990286L532.4923636363636,169.76318496465686L533.7746181818181,169.89882159233096L534.4035636363636,170.04514771699908L542.7635636363636,170.78326839208606L543.3907636363637,172.5346370339394L544.0153454545455,164.59257709980014L544.6392727272727,164.25422179698947L545.2657454545455,169.52610719203952L545.8924363636363,170.29058802127844L546.5166545454546,170.97104358673099L547.1524363636364,170.07325309515005L547.8746909090909,168.8316716551781L548.5820363636363,168.29357910156253L549.2534545454546,167.20474112033847L549.8876363636364,167.711346924305L550.5661818181818,167.8308584094048L551.198109090909,167.90139454603198L551.8274181818182,167.42154884338385L553.0858181818181,165.89071470499044L553.7252363636363,165.8648635745049L554.3544,165.43748366832736L555.6237818181818,165.42635786533359L556.8791272727273,165.73257195949557L558.1344,165.6767066121102L558.7646545454545,166.45958501100543L560.6594181818182,166.46576601266867L561.2952,166.5318845510483L561.9291636363637,166.69617193937304L563.190909090909,166.67093890905386L563.8253818181819,166.7026801705361L564.4508363636363,167.04752552509314L573.1936000000001,157.2834517359734L573.8186181818182,160.5283867120743L574.462690909091,157.89160776138309L575.0949090909091,159.72934681177142L576.3573090909091,162.3340936303139L576.9875636363636,162.33638423681262L577.6174545454545,164.39456689357763L578.2446545454546,164.34502798318866L578.8819636363636,163.74716150760653L579.5096,165.26554274559027L580.1470545454546,165.07924008369451L580.7845090909091,164.8180018663407L581.4213090909091,164.50698840618136L582.6768727272728,164.78915113210684L583.3069818181818,164.76304548978808L583.9394181818183,165.5444513559342L585.8392727272727,165.48164147138598L586.4695272727273,166.0460032820702L587.0967272727273,166.1486806273461L588.3562181818182,166.1751134991646L589.0862545454545,165.96788632869726L589.7822545454545,165.59618997573855L590.4357818181818,165.36716568470004L591.7978909090909,165.42673963308337L593.1610181818182,165.19729721546176L593.7989818181818,165.68365114927295L594.4272727272727,165.7265545725823L603.7205090909091,155.01518774032598L604.9965818181819,168.06704539060595L606.3899636363636,158.28982788324362L607.0261818181818,158.13361215591434L607.6509090909091,159.20010763406756L609.5941090909091,158.43617218732837L612.1927272727273,159.43149524927142L612.8653818181818,159.69749647378924L613.6420363636364,160.15429067611697L614.4401454545455,159.43529474735266L615.2373090909091,160.05139517784121L616.7184727272727,161.96330624818808L617.4181818181819,161.63918542861944L619.6044363636363,161.42172324657443L620.2386909090909,161.0029603838921L621.4947636363637,160.88953900337222L622.7451636363636,160.6550972461701L623.3690181818182,160.20315694808963L625.2750545454545,159.5481707453728L626.6414545454545,159.55780583620074L627.3278545454546,159.45930975675586L636.2828363636363,181.648451268673L636.9154909090909,165.17717260122302L637.5890181818182,156.9402607083321L638.2656727272728,155.9241040349007L638.965309090909,157.10547524690634L639.6195636363636,156.33443164825442L640.2532363636363,157.06897097826007L640.8824,157.32497352361682L641.5175272727273,157.21716958284384L642.1521454545455,157.24014836549762L642.7845090909091,157.47320848703387L645.3249454545454,157.08962279558185L645.952,157.68758016824725L647.2177454545455,158.42728245258334L648.4924363636364,157.6254247426987L649.1237818181818,157.61355358362204L649.7510545454545,158.04353314638144L650.3919272727272,158.01326441764837L651.034109090909,157.93060261011126L651.6744,158.51839768886572L652.3118545454545,158.62554717063907L652.9636363636364,158.47329455614096L653.5969454545454,157.70390528440478L654.8723636363636,157.9307116866112L655.513890909091,157.93058443069464L656.1485818181818,158.02119064331058L656.7840727272727,158.17722457647326L657.4111272727273,158.48818349838263L658.7000727272726,158.02609908580783L666.7389090909091,146.66974472999578L667.3757090909091,136.16916823387152L668.0146181818182,142.71281290054324L668.6615999999999,144.59703671932223L669.3138181818182,144.77928537130362L669.956,148.31890869140628L670.5829818181818,151.43820571899417L671.2077818181818,150.3980158567429L671.844,152.6586808562279L672.4834909090908,150.81788766384128L673.1081454545455,151.86769443750384L673.7618909090909,153.0593370199204L675.6739636363636,152.13478642702106L676.9630545454545,152.21801179647449L678.2325818181818,152.16454613208774L680.1308363636364,151.82351845502856L680.7609454545454,152.21626657247546L681.4048727272727,153.27000010013583L682.0394909090909,153.02497792243963L682.6725090909091,152.109862446785L683.3002909090909,152.06437754631045L683.925090909091,151.7122422456742L684.5671272727272,151.88512849807745L685.2235636363637,151.72793108224872L685.8715636363637,151.847733438015L686.5099636363636,151.99844080209735L687.1686545454546,151.97124439477926L687.8106181818182,152.25677031278613L697.2965818181818,145.89937376976016L697.9299636363636,143.3850150108338L698.5625454545454,142.6774902939797L699.8301090909091,145.70185440778738L700.4645818181818,145.70339965820315L701.7133090909091,146.3389884233475L702.3423272727273,146.63853067159656L702.9795636363637,146.128434419632L703.6243636363637,146.63749444484714L704.2896727272728,146.21816802024847L705.0507636363636,146.80329072475436L707.3108363636363,148.62997668981555L708.04,147.89969134330755L708.7661818181818,148.5531504750252L711.5498181818182,148.22223055362707L712.219490909091,148.27284204959875L713.4891636363636,148.11120885610583L714.1266181818182,148.1004830002785L714.7496,148.11882603168493L715.3865454545454,148.44774621725088L716.6581090909091,148.31223684549335L717.9344,147.98838871717456L718.5774545454545,148.05799770355227L719.2242181818182,148.53933411836627L728.9448727272728,147.3458735942841L729.621090909091,152.22372013330462L730.2484363636364,154.92032754421237L730.9282181818182,153.8882820606232L731.5957090909092,149.91389799118048L732.2505454545455,150.7129560709L732.9216000000001,149.7702624201775L733.6375272727273,147.82726454734808L735.6408,148.2064508199692L736.281090909091,146.637185394764L737.5614545454546,148.69758594036108L738.8345454545455,147.8881655931473L739.486109090909,147.24815922975543L740.1157090909091,146.9430540800095L740.7628363636364,146.48109692335134L742.0619636363635,145.9902890324593L742.7006545454545,145.9360961914063L743.3366545454545,145.92851537466055L743.9810181818182,146.51112931966784L744.6194181818182,145.99427032470706L745.2445818181818,146.14114183187488L745.8795636363636,146.6121886968613L746.5101090909092,146.87308150529864L748.4074909090909,146.91980260610586L749.0415272727273,147.16255235672003L750.3141090909091,147.41962748765948L750.9616,147.10815954208377L751.5978181818182,146.8743177056313L759.7040727272727,135.74551510810858L761.1291636363636,139.32395148277286L762.4414545454545,137.91050183773044L763.0998545454545,138.03657609224322L763.7344,137.41533088684085L764.3682909090909,138.92836737632757L765.0105454545454,139.224819123745L765.6562181818182,139.5992242097855L766.2823999999999,139.1760982871056L766.9118545454545,138.6372240185738L768.1902545454545,137.7561949491501L768.8424727272727,138.27387201786044L769.4685818181819,138.52900195121768L770.7498909090908,139.3617101311684L772.0176727272727,140.26379096508032L772.6466909090909,140.29371428489688L773.2918545454546,139.90583825111392L773.9361454545453,139.56781017780307L774.5752727272727,139.20598524808887L775.2065454545454,139.46520555019382L776.4831999999999,139.67521417140966L777.1242181818182,139.75571262836462L777.7719272727272,140.10433930158618L779.0282909090909,140.0463287830353L779.6564363636363,140.17262119054797L780.9147636363637,140.73136556148532L790.384,143.9853902459145L791.6552,134.991760134697L792.2944000000001,132.82419192790988L792.9241454545454,134.0170161724091L794.8979636363636,130.48162865638736L795.5435636363637,131.31297338008886L796.8260363636363,131.8586831092835L797.4620363636363,132.36218023300177L798.7234909090909,133.46512544155124L799.3492363636364,133.51684588193896L799.973090909091,133.42683959007266L801.2485818181818,132.87422168254855L801.8870545454546,133.08619368076327L803.7962181818182,133.50761073827746L804.4323636363637,133.56553035974505L805.7235636363637,134.68476432561877L806.349890909091,134.85026973485952L806.9755636363636,134.99968636035922L807.609890909091,135.2773224115372L808.8633454545454,135.36167490482336L809.5051636363637,135.72110015153888L810.1569454545454,135.67599701881412L810.7938181818181,136.0048626661301L812.0732363636364,136.11408460140234L820.684509090909,126.43643575906759L821.9388363636363,130.02092587947848L822.5628363636364,131.83775860071185L823.190909090909,130.8445625305176L823.815490909091,131.98004889488223L824.4442181818182,130.71788835525516L826.9401454545454,131.27963232994082L827.5643636363637,131.481260240078L828.189090909091,132.20298308134085L828.8104727272727,132.10006940364843L830.7248727272727,132.76803570985797L831.3486545454546,133.65306425094607L831.9848,133.5005025863648L832.608509090909,134.1388728022576L833.2322181818182,134.22135281562808L833.8565818181819,134.28049045801166L834.4851636363636,134.29785180091864L835.1248727272728,134.25383943319326L835.7598545454546,134.62526309490207L836.3831272727273,134.97563499212268L837.6310545454545,134.94138497114184L838.2592727272727,134.48759037256247L838.8931636363636,134.67934685945517L839.5201454545455,134.63642525672918L840.1416727272727,134.6199547052384L840.7668363636363,134.59384906291965L841.4018909090909,134.42119914293292L850.2251636363636,129.21637761592868L850.8510545454544,130.27283805608752L851.4759999999999,126.83696466684347L852.1271272727272,130.96707361936572L852.757090909091,132.35554474592212L853.3835636363636,130.85052537918094L854.6464727272728,131.20831447839743L855.2709818181818,132.33400213718417L857.7934545454546,129.9559526443482L858.4189818181818,129.68471574783328L859.6737454545455,130.36388057470324L860.3127272727272,130.72630542516714L860.9405818181818,130.68587440252307L861.5670545454545,130.5816154479981L862.2144,129.85545682907107L862.8405818181818,129.896687746048L863.4751272727271,130.44056135416034L864.7357818181817,131.24298262596133L865.3685818181817,131.15472155809405L865.9970181818181,131.38899970054632L866.6512727272727,131.73397231101993L867.9350545454545,131.2776871323586L868.5684363636365,130.91126281023028L869.197309090909,131.3222630620003L869.8260363636364,131.04944455623632L870.4525090909092,130.9286786913872L871.0912000000001,131.10467362403872L882.3983272727273,130.15725332498556L883.0351999999999,128.57853460311895L883.6744727272727,128.08083671331408L884.3147636363636,128.57893455028537L884.9506909090909,129.1087009310723L887.4821090909091,126.84667247533804L889.3731636363636,126.51111680269244L889.9983272727274,126.78442615270617L891.2535999999999,126.84716331958776L893.1759272727272,127.29748564958578L893.8211636363637,127.13347095251086L895.0736,127.24661964178088L895.6993454545454,127.23300325870517L896.354109090909,127.34886068105703L896.9940363636364,127.04897302389148L898.2605818181818,126.92742544412616L898.8878545454545,127.15005058050158L899.5176,127.07735109329226L900.1480727272727,127.11031037569052L900.7853090909091,127.07955080270773L901.4123636363636,127.8488309979439L902.0403636363636,127.90464180707934L910.3722909090909,113.78496158123019L911.0096727272727,113.74905723333362L912.2765090909091,111.46661329269415L912.9069818181817,115.23626077175143L914.165890909091,117.00322735309607L915.4239272727273,119.20955407619479L916.0485818181819,118.52299022674566L917.3102545454545,120.78634577989581L918.5920727272727,122.20181334018713L919.2200727272727,121.4337875247002L919.8443636363636,122.06881272792819L920.4792,122.57896351814273L922.3894545454546,122.50206458568576L923.0183272727272,122.33570474386221L923.6754181818183,122.88834083080297L924.3051636363635,122.64302778244024L925.5554181818183,122.4090041518212L926.1814545454546,122.6509721875191L926.8074181818181,122.33641374111181L927.4351272727272,121.95957261323932L928.0608,121.83995205163961L931.2274909090909,122.5816904306412L931.8517818181818,122.88804996013644L940.7353454545454,106.21481615304947L941.3749818181818,110.29642242193225L942.6231999999999,112.55346971750262L943.2509090909092,111.29136371612552L943.8861090909091,112.51143890619281L944.5099636363635,113.31058788299563L945.7576,117.4315525889397L946.3950545454545,116.5217091441155L947.0242909090908,117.71033394336703L948.3093818181819,116.94772559404376L948.9378181818181,115.62824535369876L949.5652363636365,115.37424254417422L950.1938909090909,115.23495185375216L951.4520727272727,116.37665557861331L952.0759272727273,115.46746659278872L953.3245090909091,116.14850389957434L955.2098181818182,116.21982175111773L956.4936727272727,116.49424004554751L957.139709090909,116.6552187800408L957.768290909091,116.82048785686496L958.3909818181818,117.53261196613315L959.6444363636365,117.73054945468908L960.8982545454545,118.09601026773458L961.5210181818182,118.06670504808429L962.1575272727273,118.28187662363058L962.7797818181818,118.2468085289002L971.2736,110.3255276679993L971.8989090909091,111.5458573698998L972.5463272727272,106.4917613863945L973.1774545454546,107.09304559230804L973.8176727272727,109.84806346893316L975.7431272727273,111.16478043794635L976.3737454545454,111.27656567096713L976.9984727272728,113.2153822779656L980.1767272727272,113.33327579498294L980.8023272727273,113.40219396352771L981.426909090909,113.6105118989945L982.0552,112.63934928178793L983.3060363636364,112.64036732912066L983.9365818181818,112.84699457883838L984.5738909090909,113.4768386483193L985.1997818181818,113.29295384883883L985.8292363636365,113.65837830305102L988.9805818181818,114.89428776502615L989.6070545454546,114.58329248428348L990.2342545454545,114.6106525063515L990.8637090909092,114.85443848371509L991.4943272727272,114.54486119747168L992.1381090909091,114.89988702535632L993.4016,115.20133811235434L1001.5251636363636,103.4559805989266L1002.1547636363636,104.98850542306906L1002.7882909090908,100.36869752407074L1003.4170181818182,99.63364917039877L1004.0430545454545,100.75001078844076L1004.6710545454545,101.7528783082962L1005.3008,103.14262199401855L1005.9302545454545,102.9593916535378L1007.1986909090908,102.97642576694494L1007.8403636363636,102.40275609493256L1008.4724363636365,103.8632722496987L1009.1044363636364,104.24936670064926L1009.7314181818182,104.37422293424612L1010.3774545454545,104.70332491397863L1011.0074909090908,105.39974200725555L1012.2982545454546,106.83582502603537L1013.560290909091,107.26355034112936L1014.8152,107.33817684650427L1015.4427636363637,106.92855823040009L1016.0741818181818,107.13002252578735L1017.3821818181818,106.13851714134216L1018.6702545454546,107.5265337824822L1019.3042181818182,107.59208875894552L1020.5704727272728,108.21800607442856L1021.8465454545455,108.67392766475683L1022.4784,108.68943470716476L1023.1053818181819,109.25659614801413L1031.909090909091,104.33590072393423L1033.8048000000001,101.58699113130575L1034.4407272727274,100.6984721422196L1036.3391272727272,99.26498878002172L1036.9714909090908,98.4259723424912L1037.5961454545454,98.14006465673452L1039.5232727272728,98.36436229944229L1041.4149818181818,99.40473395586014L1042.0398545454545,100.06193804740911L1042.6649454545454,101.0618423223496L1043.3121454545455,101.84890198707586L1043.9388363636363,101.84364813566214L1044.5712727272728,101.89069646596909L1045.201090909091,101.83628547191626L1045.8399272727274,102.84358876943588L1046.465018181818,103.06857722997671L1047.0915636363636,103.08081197738653L1048.3552,104.05491966009146L1048.9824,104.23018741607672L1049.6112,104.62715315818787L1051.492218181818,104.46512001752853L1052.1347636363637,104.60126566886908L1053.3997818181817,104.98835998773575L1061.7040727272727,91.6046370863915L1062.330109090909,90.36627340316778L1062.9607272727274,96.93029719591146L1064.2113454545456,94.97308301925665L1064.833818181818,97.2538726329804L1066.0911272727274,93.57519495487213L1066.7279272727274,94.83101087808615L1067.3518545454547,96.0808094143868L1067.9891636363636,96.3311945199967L1068.6312727272727,96.79469692707062L1069.2846545454547,96.73517751693731L1069.9128727272728,97.60718959569937L1070.536290909091,98.08694440126425L1071.1696727272727,98.06531089544302L1071.7937454545454,97.96943265199667L1072.4250181818181,98.6590324640274L1073.051709090909,98.501398742199L1073.6739636363636,98.53315818309784L1074.297090909091,98.51743298769003L1075.5527272727272,99.29285782575613L1076.1890181818183,99.67144417762762L1076.8317818181818,99.38270050287247L1077.453309090909,99.5219002962113L1078.6989818181817,99.74099862575537L1079.3444363636363,99.71267509460455L1081.8354909090908,100.17057824134832L1083.722690909091,101.25234442949301L1093.0873454545454,91.3759036660195L1093.7134545454546,91.95528167486196L1094.338981818182,92.44898009300232L1094.966981818182,91.83707910776144L1096.2295272727274,88.83334863185888L1096.8615272727272,89.53587400913244L1097.4972363636364,90.36607342958456L1098.1230545454546,91.7486362457276L1098.746981818182,92.26716774702078L1100.0088,92.3944782018662L1100.647490909091,92.53013300895691L1101.2736727272727,93.32110124826431L1101.898981818182,93.83581507205969L1102.524,94.33031338453299L1103.153890909091,95.02036768198019L1103.783781818182,94.70030087232595L1104.4109090909092,94.89367532730108L1105.0394181818183,94.70202791690832L1105.6703272727273,94.69730126857763L1106.306690909091,95.13911563158041L1107.5890181818181,94.95570349693304L1108.2444363636364,95.01540470123297L1109.5071272727273,95.35350549221045L1110.1333818181818,95.2997853159905L1110.7587636363637,95.9489359259606L1112.0113454545456,95.19225406646729L1112.6365090909092,95.15227752923965L1113.28,94.95803046226507L1121.2959272727273,85.98170715570456L1121.9309818181819,90.45987921953207L1122.5581818181818,86.4290117025376L1125.0815272727273,84.21519505977636L1126.3417454545456,84.29049420356756L1128.2595636363637,84.89835935831076L1128.8876363636364,85.96510934829718L1130.154109090909,86.36111158132559L1130.7962909090909,86.50316554307943L1131.425527272727,86.57077479362493L1132.7303272727272,86.88211548328405L1133.3790545454544,87.76843476295477L1134.009090909091,87.76590782403952L1134.6378909090909,87.70131635665899L1135.2657454545454,87.95728254318243L1135.9104727272727,88.4283475875855L1136.5375272727272,88.66442549228674L1137.164290909091,88.7328891754151L1137.7980363636364,88.13867676258093L1138.4349818181818,88.55173128843313L1139.7005090909092,89.32353842258459L1140.327490909091,89.57039672136312L1140.9589090909092,89.85899496078497L1142.2132363636363,89.84023380279547L1142.8426181818181,90.20883965492254L1143.4878545454546,90.48338520526892L1151.5647272727272,54.93466305732727L1152.2015272727272,74.16215944290167L1152.8259636363637,75.49836474657064L1154.082909090909,73.46574234962469L1154.712581818182,74.03330373764044L1155.3367272727273,76.7138587236405L1155.9622545454547,77.29538190364843L1156.5915636363636,78.37856608629232L1157.2220363636363,78.49573242664343L1157.8501090909092,78.50678551197058L1159.1104727272727,78.91185927391058L1159.7582545454545,78.34467965364462L1160.4280727272728,78.57732164859777L1161.0800727272729,78.79741984605795L1161.7189090909092,78.70786803960806L1162.3568,79.03366136550909L1162.9903272727272,79.49256438016897L1163.6240727272727,80.51862883567816L1164.2567999999999,80.76228755712515L1165.5130909090908,81.28783631324774L1166.1544727272728,81.64777058362966L1167.4301818181818,82.31806385517126L1169.9712727272727,83.36774337291723L1170.5968727272727,83.09748816490179L1171.866690909091,83.01706242561346L1172.501381818182,82.8520296812058L1173.132,83.34074693918234L1182.3027636363636,76.96409839391714L1183.5534545454545,75.4377909302712L1184.1758545454545,74.54672682285315L1184.7997090909091,73.33036023378378L1186.0548363636365,73.13822197914129L1186.689890909091,74.61733567714697L1187.3142545454546,74.85977637767797L1187.935490909091,74.59464776515966L1189.2086545454545,73.71325510740286L1189.836,73.93655288219458L1190.4600727272727,74.25334739685064L1191.0843636363636,74.36693239212042L1191.7071999999998,75.22938209772116L1192.955490909091,75.96481221914297L1193.5971636363636,75.88493186235434L1194.2210181818182,76.34021717309957L1195.4706181818183,77.57559943199163L1196.0940363636364,78.23033112287527L1197.9828363636364,78.74306339025503L1199.2647272727274,78.2932500839234L1199.8883636363637,78.0194680690766L1201.156872727273,77.97558295726782L1201.796,77.94776844978338L1202.4271272727274,78.12127280235296L1203.050690909091,78.24018436670309L1203.6734545454547,78.31237483024603L1211.6754181818183,69.04861676692968L1212.3157818181817,76.74234586954123L1212.9410181818182,74.26287341117865L1214.2081454545455,71.22302043437963L1214.8327272727274,71.63140285015112L1215.4583272727273,71.78598242998129L1216.100509090909,71.05924206972128L1216.7353454545455,70.68661856651312L1217.3616,69.74056172370916L1218.0054545454545,69.684260070324L1219.2746181818181,69.07014119625097L1219.8995636363636,68.78543335199362L1220.5298181818182,69.16461962461477L1221.1536727272728,69.65406405925756L1221.7807272727273,69.82518690824514L1222.4285818181818,69.97542160749441L1224.3100363636363,70.58834064006811L1225.5748363636362,71.1378316879273L1226.1992727272727,71.00063163042074L1226.8249454545455,71.09814602136618L1227.4602181818182,71.19962352514273L1228.0896,71.84097516536718L1228.716,71.85662764310842L1229.3510545454544,72.5551353693009L1229.981309090909,72.71569597721106L1230.612290909091,72.71351444721228L1231.246909090909,72.76559847593313L1233.148509090909,72.73714768886572L1233.7812363636363,73.21179407835012L1243.333090909091,70.01759785413748L1243.9602181818182,66.4908819198609L1244.5872727272726,66.38255077600485L1245.2150545454544,66.0803725123406L1245.8422545454546,64.89865589141851L1246.4738181818182,64.90805464982992L1247.7468363636365,67.01833951473242L1248.3919272727271,67.5164373517037L1249.0450181818183,66.71377974748617L1250.3118545454545,65.66277313232428L1250.9430545454545,65.84696698188787L1251.5843636363636,66.13145667314535L1252.8672,66.86386901140219L1253.5078545454544,67.35674935579306L1254.1465454545455,67.69823151826864L1255.4071272727274,66.9393317699433L1256.04,66.9490213990212L1256.6712,66.87428581714636L1257.9350545454545,66.58855992555624L1258.5636363636363,66.894574046135L1259.815709090909,67.44342881441122L1260.4437090909091,67.57197546958929L1261.084,68.31422287225729L1261.7243636363637,68.4032656550408L1262.3575272727273,68.44618725776678L1262.9853818181818,68.68391948938375L1264.2398545454546,68.79386860132223L1272.3582545454544,54.89752250909805L1274.2493818181817,59.553052961826324L1275.5424,60.97493785619736L1277.4554181818182,60.49221980571747L1279.972509090909,61.17558407783514L1283.1285818181818,62.07053858041769L1285.0235636363636,61.89667063951498L1285.6493818181818,61.91403198242193L1286.2788363636364,61.68338972330099L1286.9084363636364,61.72996538877493L1287.5373818181818,61.68540763854986L1288.1728727272728,61.67769956588751L1289.4344,61.66837352514273L1290.0656727272726,61.449038863182125L1291.3358545454546,61.92157644033438L1291.9631272727272,61.90237897634512L1293.2184727272727,62.03596132993704L1293.8446545454547,61.8467681407929L1294.4728727272727,61.93124788999563" style="fill: none;" fill="none"></path></g></g></g></g></g></g><g transform="translate(58, 366)" clip-path="url(#clip_1)"><clipPath id="clip_1"><rect width="1440" height="34"></rect></clipPath><g><g visibility="inherit"><g><g transform="translate(0,0)" style="visibility: inherit;"><text transform="translate(3,14)" style="text-anchor: start; font-family: &quot;Helvetica Neue&quot;, sans-serif; font-size: 12px; font-weight: 200;" fill="rgb(50, 49, 63)" stroke="none" stroke-width="1px">11:30 PM</text></g><g transform="translate(130.9090909090909,0)" style="visibility: inherit;"><text transform="translate(3,14)" style="text-anchor: start; font-family: &quot;Helvetica Neue&quot;, sans-serif; font-size: 12px; font-weight: 200;" fill="rgb(50, 49, 63)" stroke="none" stroke-width="1px">12:00 AM</text></g><g transform="translate(261.8181818181818,0)" style="visibility: inherit;"><text transform="translate(3,14)" style="text-anchor: start; font-family: &quot;Helvetica Neue&quot;, sans-serif; font-size: 12px; font-weight: 200;" fill="rgb(50, 49, 63)" stroke="none" stroke-width="1px">12:30 AM</text></g><g transform="translate(392.7272727272727,0)" style="visibility: inherit;"><text transform="translate(3,14)" style="text-anchor: start; font-family: &quot;Helvetica Neue&quot;, sans-serif; font-size: 12px; font-weight: 200;" fill="rgb(50, 49, 63)" stroke="none" stroke-width="1px">01:00 AM</text></g><g transform="translate(523.6363636363636,0)" style="visibility: inherit;"><text transform="translate(3,14)" style="text-anchor: start; font-family: &quot;Helvetica Neue&quot;, sans-serif; font-size: 12px; font-weight: 200;" fill="rgb(50, 49, 63)" stroke="none" stroke-width="1px">01:30 AM</text></g><g transform="translate(654.5454545454545,0)" style="visibility: inherit;"><text transform="translate(3,14)" style="text-anchor: start; font-family: &quot;Helvetica Neue&quot;, sans-serif; font-size: 12px; font-weight: 200;" fill="rgb(50, 49, 63)" stroke="none" stroke-width="1px">02:00 AM</text></g><g transform="translate(785.4545454545454,0)" style="visibility: inherit;"><text transform="translate(3,14)" style="text-anchor: start; font-family: &quot;Helvetica Neue&quot;, sans-serif; font-size: 12px; font-weight: 200;" fill="rgb(50, 49, 63)" stroke="none" stroke-width="1px">02:30 AM</text></g><g transform="translate(916.3636363636364,0)" style="visibility: inherit;"><text transform="translate(3,14)" style="text-anchor: start; font-family: &quot;Helvetica Neue&quot;, sans-serif; font-size: 12px; font-weight: 200;" fill="rgb(50, 49, 63)" stroke="none" stroke-width="1px">03:00 AM</text></g><g transform="translate(1047.2727272727273,0)" style="visibility: inherit;"><text transform="translate(3,14)" style="text-anchor: start; font-family: &quot;Helvetica Neue&quot;, sans-serif; font-size: 12px; font-weight: 200;" fill="rgb(50, 49, 63)" stroke="none" stroke-width="1px">03:30 AM</text></g><g transform="translate(1178.1818181818182,0)" style="visibility: inherit;"><text transform="translate(3,14)" style="text-anchor: start; font-family: &quot;Helvetica Neue&quot;, sans-serif; font-size: 12px; font-weight: 200;" fill="rgb(50, 49, 63)" stroke="none" stroke-width="1px">04:00 AM</text></g><g transform="translate(1309.090909090909,0)" style="visibility: inherit;"><text transform="translate(3,14)" style="text-anchor: start; font-family: &quot;Helvetica Neue&quot;, sans-serif; font-size: 12px; font-weight: 200;" fill="rgb(50, 49, 63)" stroke="none" stroke-width="1px">04:30 AM</text></g><g transform="translate(1440,0)" style="visibility: hidden;"><text transform="translate(3,14)" style="text-anchor: start; font-family: &quot;Helvetica Neue&quot;, sans-serif; font-size: 12px; font-weight: 200;" fill="rgb(50, 49, 63)" stroke="none" stroke-width="1px">05:00 AM</text></g></g><g><line x1="0" y1="0" x2="0" y2="17" fill="rgb(0, 0, 0)" stroke="rgb(204, 204, 204)" stroke-width="1px"></line><line x1="130.9090909090909" y1="0" x2="130.9090909090909" y2="17" fill="rgb(0, 0, 0)" stroke="rgb(204, 204, 204)" stroke-width="1px"></line><line x1="261.8181818181818" y1="0" x2="261.8181818181818" y2="17" fill="rgb(0, 0, 0)" stroke="rgb(204, 204, 204)" stroke-width="1px"></line><line x1="392.7272727272727" y1="0" x2="392.7272727272727" y2="17" fill="rgb(0, 0, 0)" stroke="rgb(204, 204, 204)" stroke-width="1px"></line><line x1="523.6363636363636" y1="0" x2="523.6363636363636" y2="17" fill="rgb(0, 0, 0)" stroke="rgb(204, 204, 204)" stroke-width="1px"></line><line x1="654.5454545454545" y1="0" x2="654.5454545454545" y2="17" fill="rgb(0, 0, 0)" stroke="rgb(204, 204, 204)" stroke-width="1px"></line><line x1="785.4545454545454" y1="0" x2="785.4545454545454" y2="17" fill="rgb(0, 0, 0)" stroke="rgb(204, 204, 204)" stroke-width="1px"></line><line x1="916.3636363636364" y1="0" x2="916.3636363636364" y2="17" fill="rgb(0, 0, 0)" stroke="rgb(204, 204, 204)" stroke-width="1px"></line><line x1="1047.2727272727273" y1="0" x2="1047.2727272727273" y2="17" fill="rgb(0, 0, 0)" stroke="rgb(204, 204, 204)" stroke-width="1px"></line><line x1="1178.1818181818182" y1="0" x2="1178.1818181818182" y2="17" fill="rgb(0, 0, 0)" stroke="rgb(204, 204, 204)" stroke-width="1px"></line><line x1="1309.090909090909" y1="0" x2="1309.090909090909" y2="17" fill="rgb(0, 0, 0)" stroke="rgb(204, 204, 204)" stroke-width="1px"></line><line x1="1440" y1="0" x2="1440" y2="17" fill="rgb(0, 0, 0)" stroke="rgb(204, 204, 204)" stroke-width="1px"></line></g><line x1="0" y1="0" x2="1440" y2="0" style="visibility: inherit;" fill="rgb(0, 0, 0)" stroke="rgb(204, 204, 204)" stroke-width="1px"></line></g><g visibility="inherit"><g><g transform="translate(65.45454545454545,0)" style="visibility: inherit;"><text transform="translate(0,31)" style="text-anchor: middle; font-family: &quot;Helvetica Neue&quot;, sans-serif; font-size: 12px; font-weight: 200;" fill="rgb(50, 49, 63)" stroke="none" stroke-width="1px">March  9, 2020</text></g><g transform="translate(196.36363636363635,0)" style="visibility: inherit;"><text transform="translate(0,31)" style="text-anchor: middle; font-family: &quot;Helvetica Neue&quot;, sans-serif; font-size: 12px; font-weight: 200;" fill="rgb(50, 49, 63)" stroke="none" stroke-width="1px">March 10, 2020</text></g><g transform="translate(327.27272727272725,0)" style="visibility: inherit;"><text transform="translate(0,31)" style="text-anchor: middle; font-family: &quot;Helvetica Neue&quot;, sans-serif; font-size: 12px; font-weight: 200;" fill="rgb(50, 49, 63)" stroke="none" stroke-width="1px">March 10, 2020</text></g><g transform="translate(458.1818181818182,0)" style="visibility: inherit;"><text transform="translate(0,31)" style="text-anchor: middle; font-family: &quot;Helvetica Neue&quot;, sans-serif; font-size: 12px; font-weight: 200;" fill="rgb(50, 49, 63)" stroke="none" stroke-width="1px">March 10, 2020</text></g><g transform="translate(589.0909090909091,0)" style="visibility: inherit;"><text transform="translate(0,31)" style="text-anchor: middle; font-family: &quot;Helvetica Neue&quot;, sans-serif; font-size: 12px; font-weight: 200;" fill="rgb(50, 49, 63)" stroke="none" stroke-width="1px">March 10, 2020</text></g><g transform="translate(720,0)" style="visibility: inherit;"><text transform="translate(0,31)" style="text-anchor: middle; font-family: &quot;Helvetica Neue&quot;, sans-serif; font-size: 12px; font-weight: 200;" fill="rgb(50, 49, 63)" stroke="none" stroke-width="1px">March 10, 2020</text></g><g transform="translate(850.909090909091,0)" style="visibility: inherit;"><text transform="translate(0,31)" style="text-anchor: middle; font-family: &quot;Helvetica Neue&quot;, sans-serif; font-size: 12px; font-weight: 200;" fill="rgb(50, 49, 63)" stroke="none" stroke-width="1px">March 10, 2020</text></g><g transform="translate(981.8181818181818,0)" style="visibility: inherit;"><text transform="translate(0,31)" style="text-anchor: middle; font-family: &quot;Helvetica Neue&quot;, sans-serif; font-size: 12px; font-weight: 200;" fill="rgb(50, 49, 63)" stroke="none" stroke-width="1px">March 10, 2020</text></g><g transform="translate(1112.7272727272727,0)" style="visibility: inherit;"><text transform="translate(0,31)" style="text-anchor: middle; font-family: &quot;Helvetica Neue&quot;, sans-serif; font-size: 12px; font-weight: 200;" fill="rgb(50, 49, 63)" stroke="none" stroke-width="1px">March 10, 2020</text></g><g transform="translate(1243.6363636363637,0)" style="visibility: inherit;"><text transform="translate(0,31)" style="text-anchor: middle; font-family: &quot;Helvetica Neue&quot;, sans-serif; font-size: 12px; font-weight: 200;" fill="rgb(50, 49, 63)" stroke="none" stroke-width="1px">March 10, 2020</text></g><g transform="translate(1374.5454545454545,0)" style="visibility: inherit;"><text transform="translate(0,31)" style="text-anchor: middle; font-family: &quot;Helvetica Neue&quot;, sans-serif; font-size: 12px; font-weight: 200;" fill="rgb(50, 49, 63)" stroke="none" stroke-width="1px">March 10, 2020</text></g></g><g><line x1="0" y1="17" x2="0" y2="34" fill="rgb(0, 0, 0)" stroke="rgb(204, 204, 204)" stroke-width="1px"></line><line x1="130.9090909090909" y1="17" x2="130.9090909090909" y2="34" fill="rgb(0, 0, 0)" stroke="rgb(204, 204, 204)" stroke-width="1px"></line><line x1="261.8181818181818" y1="17" x2="261.8181818181818" y2="34" fill="rgb(0, 0, 0)" stroke="rgb(204, 204, 204)" stroke-width="1px"></line><line x1="392.7272727272727" y1="17" x2="392.7272727272727" y2="34" fill="rgb(0, 0, 0)" stroke="rgb(204, 204, 204)" stroke-width="1px"></line><line x1="523.6363636363636" y1="17" x2="523.6363636363636" y2="34" fill="rgb(0, 0, 0)" stroke="rgb(204, 204, 204)" stroke-width="1px"></line><line x1="654.5454545454545" y1="17" x2="654.5454545454545" y2="34" fill="rgb(0, 0, 0)" stroke="rgb(204, 204, 204)" stroke-width="1px"></line><line x1="785.4545454545454" y1="17" x2="785.4545454545454" y2="34" fill="rgb(0, 0, 0)" stroke="rgb(204, 204, 204)" stroke-width="1px"></line><line x1="916.3636363636364" y1="17" x2="916.3636363636364" y2="34" fill="rgb(0, 0, 0)" stroke="rgb(204, 204, 204)" stroke-width="1px"></line><line x1="1047.2727272727273" y1="17" x2="1047.2727272727273" y2="34" fill="rgb(0, 0, 0)" stroke="rgb(204, 204, 204)" stroke-width="1px"></line><line x1="1178.1818181818182" y1="17" x2="1178.1818181818182" y2="34" fill="rgb(0, 0, 0)" stroke="rgb(204, 204, 204)" stroke-width="1px"></line><line x1="1309.090909090909" y1="17" x2="1309.090909090909" y2="34" fill="rgb(0, 0, 0)" stroke="rgb(204, 204, 204)" stroke-width="1px"></line><line x1="1440" y1="17" x2="1440" y2="34" fill="rgb(0, 0, 0)" stroke="rgb(204, 204, 204)" stroke-width="1px"></line></g><line x1="0" y1="17" x2="1440" y2="17" style="visibility: inherit;" fill="rgb(0, 0, 0)" stroke="rgb(204, 204, 204)" stroke-width="1px"></line></g></g></g></g></g></svg>